<?xml version="1.0" encoding="UTF-8" standalone="no"?>
<!-- Created with Inkscape (http://www.inkscape.org/) -->

<svg
   xmlns:dc="http://purl.org/dc/elements/1.1/"
   xmlns:cc="http://creativecommons.org/ns#"
   xmlns:rdf="http://www.w3.org/1999/02/22-rdf-syntax-ns#"
   xmlns:svg="http://www.w3.org/2000/svg"
   xmlns="http://www.w3.org/2000/svg"
   xmlns:sodipodi="http://sodipodi.sourceforge.net/DTD/sodipodi-0.dtd"
   xmlns:inkscape="http://www.inkscape.org/namespaces/inkscape"
   width="300mm"
   height="300mm"
   viewBox="0 0 300 300"
   version="1.1"
   id="svg8"
   inkscape:version="0.92.3 (2405546, 2018-03-11)"
   sodipodi:docname="addBook.svg">
  <defs
     id="defs2" />
  <sodipodi:namedview
     id="base"
     pagecolor="#ffffff"
     bordercolor="#666666"
     borderopacity="1.0"
     inkscape:pageopacity="0.0"
     inkscape:pageshadow="2"
     inkscape:zoom="0.48892506"
     inkscape:cx="566.92913"
     inkscape:cy="477.49405"
     inkscape:document-units="mm"
     inkscape:current-layer="layer1"
     showgrid="false"
     inkscape:window-width="1678"
     inkscape:window-height="1010"
     inkscape:window-x="0"
     inkscape:window-y="0"
     inkscape:window-maximized="1" />
  <metadata
     id="metadata5">
    <rdf:RDF>
      <cc:Work
         rdf:about="">
        <dc:format>image/svg+xml</dc:format>
        <dc:type
           rdf:resource="http://purl.org/dc/dcmitype/StillImage" />
        <dc:title></dc:title>
      </cc:Work>
    </rdf:RDF>
  </metadata>
  <g
     inkscape:label="Layer 1"
     inkscape:groupmode="layer"
     id="layer1"
     transform="translate(0,3)">
    <g
       id="g381">
      <path
         inkscape:connector-curvature="0"
         d="m 186.6965,62.524646 c -0.42476,2.116135 -0.33253,4.2965 -0.46528,6.444575 -0.2618,3.16026 -0.28722,6.337168 -0.0846,9.501053 0.003,3.272467 0.17442,6.540976 0.40158,9.805037 0.52652,5.060797 1.07723,10.118664 1.77795,15.158579 0.41857,4.88973 1.52544,9.6755 2.35019,14.50161 0.77393,3.86801 0.98681,7.81252 1.00632,11.74816 0.032,4.01304 0.0425,8.028 0.22151,12.03784 0.24851,2.84046 0.13503,5.69228 0.29369,8.53559 0.15143,2.37006 0.0915,4.71549 -0.0313,7.08438 -0.34717,3.82004 -1.37132,7.52976 -2.27989,11.24318 -0.5474,3.19617 -1.14245,6.39151 -1.56672,9.60699 -0.52701,3.93135 -1.17503,7.84382 -1.75322,11.76736 -0.41336,2.53642 -0.52007,5.097 -0.50858,7.66127 -0.0195,0.33853 -0.0154,0.67923 -0.0585,1.01558 -0.0948,0.74066 -0.27144,1.46898 -0.3757,2.20837 -0.18461,1.30929 -0.31374,2.61569 -0.42038,3.93342 -0.12076,2.56495 -0.1212,5.1346 0.049,7.69695 0.0714,1.62454 0.25949,3.25681 0.17348,4.8829 -0.071,2.04621 -0.21284,4.0905 -0.1653,6.13826 0.0839,2.30397 -0.13506,4.5919 -0.0511,6.89869 0.0486,2.30731 0.0313,4.62702 -0.0217,6.93764 0.02,1.92808 0.43829,4.01398 -0.19613,5.87667 -0.26427,1.01273 -0.0789,0.54988 -0.52832,1.3993 0,0 -48.21632,22.44545 -48.21632,22.44545 v 0 c 0.24448,-0.98283 0.0472,-0.55802 0.53405,-1.29974 0.53585,-1.47663 -0.11061,0.0292 0.65488,-1.10506 0.68634,-1.01696 0.8807,-2.24216 0.89342,-3.44107 -0.0541,-2.30331 -0.0703,-4.6153 -0.0217,-6.91553 0.0803,-2.28984 -0.13195,-4.55921 -0.0512,-6.84608 0.0449,-1.98988 -0.0894,-3.97578 -0.16843,-5.96375 -0.0975,-1.68843 0.10722,-3.3862 0.16845,-5.07371 0.17463,-2.67487 0.20107,-5.3542 0.2286,-8.03391 -0.0223,-2.33784 -0.13661,-4.71881 0.19472,-7.03254 0.38408,-2.91461 0.9892,-5.79455 1.50015,-8.68842 0.97288,-5.39573 -0.26389,1.609 0.63055,-3.94892 0.39822,-2.47445 0.99046,-4.90321 0.84482,-7.43626 0.17651,-1.6153 0.22414,-3.28368 0.51187,-4.88375 0.3233,-1.79789 0.9172,-3.5507 1.2702,-5.34269 0.61165,-3.37408 1.66405,-6.66492 1.85377,-10.10861 0.0526,-1.12212 -0.0625,-2.21508 -0.0299,-3.33544 0.0218,-0.74905 0.1288,-1.49422 0.12,-2.24489 0.011,-0.41713 0.008,-0.83452 0.0113,-1.25179 0.15936,-2.94617 0.0621,-5.90051 0.31228,-8.8437 0.17639,-4.01126 0.21085,-8.03054 0.0912,-12.04391 -0.18107,-3.75455 -0.30992,-7.51145 -0.7111,-11.25159 -0.49587,-4.58639 0.0138,0.45404 -0.35445,-4.30743 -0.27456,-3.54975 -0.79965,-7.07923 -1.18517,-10.61726 -0.69376,-4.96719 -1.61824,-9.89041 -2.72709,-14.78236 -0.56372,-3.33421 -1.15433,-6.64697 -1.28288,-10.03527 0.18849,-3.135343 0.19571,-6.284213 -0.0846,-9.414853 -0.13112,-1.988174 -0.0174,-4.023312 -0.46528,-5.970428 0,0 47.71085,-24.309893 47.71085,-24.309893 z"
         id="path360"
         style="fill:#000000;stroke-width:0.26458332" />
      <path
         inkscape:connector-curvature="0"
         d="m 181.72673,237.53404 c 2.66475,-1.30071 5.4153,-2.41792 8.12654,-3.61776 1.72891,-0.66031 3.39895,-1.47152 5.11131,-2.16793 1.63889,-0.66653 3.34773,-1.1853 5.0094,-1.79321 0.52131,-0.18502 1.0382,-0.38301 1.56393,-0.55508 0.50751,-0.16611 1.0326,-0.27762 1.5348,-0.45914 1.85621,-0.67095 3.6288,-1.58476 5.42945,-2.38692 0.39776,-0.15914 0.79167,-0.32824 1.19326,-0.47742 0.36171,-0.13436 0.74146,-0.22033 1.09587,-0.37291 1.162,-0.50023 2.2404,-1.1942 3.39239,-1.71846 0.2734,-0.096 0.54121,-0.20967 0.82019,-0.288 0.99851,-0.28034 2.03797,-0.40999 3.0242,-0.74488 3.51815,-1.19461 -1.38861,0.2581 2.53074,-0.86082 2.70522,-0.53745 5.40081,-1.14959 8.13805,-1.52649 0.33371,-0.0768 0.67609,-0.12253 1.00111,-0.23028 0.32285,-0.10704 0.61864,-0.28346 0.93387,-0.41122 1.38847,-0.56275 2.81344,-1.0608 4.21729,-1.58488 0.38837,-0.13152 0.77674,-0.26304 1.16511,-0.39457 0.38997,-0.0966 0.78934,-0.16116 1.16991,-0.28993 0.73798,-0.2497 1.41959,-0.6469 2.15339,-0.90863 0.78209,-0.27896 1.58108,-0.50875 2.3641,-0.78509 1.22119,-0.24014 2.42111,-0.57002 3.6315,-0.85224 0.7345,-0.17126 1.50031,-0.20364 2.22413,-0.41555 0.31894,-0.0934 0.60993,-0.26413 0.9149,-0.3962 0.98297,-0.37826 1.96558,-0.83067 3.00034,-1.05769 0.99901,-0.21918 2.01832,-0.26691 3.01961,-0.49602 0.32974,-0.051 0.65947,-0.10211 0.98921,-0.15316 0.31847,-0.0829 0.63157,-0.19015 0.95542,-0.24854 0.37384,-0.0674 0.76178,-0.0446 1.13241,-0.12791 0.38297,-0.0861 0.73964,-0.26409 1.11551,-0.3772 3.89615,-1.17253 -1.4523,0.54342 2.41094,-0.7131 2.22391,-0.56095 4.42338,-1.12321 6.70123,-1.41629 0.32935,-0.0224 0.66072,-0.0244 0.98805,-0.0672 0.61432,-0.0803 1.21365,-0.25422 1.82714,-0.34059 0.87819,-0.12365 1.77047,-0.17962 2.65436,-0.24577 1.46149,-0.063 2.9281,-0.0789 4.39119,-0.0529 1.5756,0.006 3.14996,0.0456 4.72569,0.0582 0,0 -26.57994,19.30733 -26.57994,19.30733 v 0 c -1.61376,0.009 -3.22641,0.04 -4.83998,0.0547 -1.38596,0.0417 -2.77354,0.0559 -4.15069,0.2398 -1.74903,0.20686 -3.48879,0.49991 -5.22996,0.75454 -2.11417,0.43484 -4.20555,0.99305 -6.2805,1.58396 -2.29907,0.589 -4.61142,1.09126 -6.93794,1.55691 -2.00885,0.37583 -3.8665,1.19697 -5.83737,1.72307 -2.21972,0.36091 -4.42023,0.92827 -6.52639,1.71745 -2.27448,0.79799 -4.53234,1.62751 -6.80802,2.42048 -2.16183,0.80554 -4.34717,1.59551 -6.6678,1.76698 -2.56591,0.42253 -5.13907,0.90066 -7.59029,1.78948 -2.18384,0.80109 -4.47708,1.34126 -6.50576,2.51568 -1.75801,0.85987 -3.63835,1.41062 -5.41533,2.22942 -2.76567,1.16971 -5.62806,2.06866 -8.4514,3.08576 -3.34566,1.20108 -6.60936,2.61038 -9.8618,4.04287 -3.02817,1.34621 -6.00016,2.82059 -9.05368,4.1043 0,0 26.08031,-20.41697 26.08031,-20.41697 z"
         id="path362"
         style="fill:#000000;stroke-width:0.26458332" />
      <path
         inkscape:connector-curvature="0"
         d="m 169.49019,77.470416 c 1.56654,-1.427766 3.0611,-2.933565 4.55069,-4.44097 1.40167,-1.401398 2.74115,-2.848883 4.23335,-4.152728 9.60938,-5.561957 19.21877,-11.123914 28.82815,-16.685874 0.28313,-0.07069 0.57762,-0.10581 0.84941,-0.212079 0.60668,-0.237207 1.15677,-0.603504 1.76007,-0.849173 1.78695,-0.727651 0.30535,-0.04042 1.99305,-0.862557 0.94666,-0.285179 1.87,-0.593291 2.79632,-0.931384 0.26244,-0.09579 0.54617,-0.135101 0.79815,-0.255741 0.23965,-0.114734 0.4318,-0.311375 0.66233,-0.443473 0.23576,-0.135094 0.48883,-0.237466 0.73324,-0.356201 1.35511,-0.880599 2.97518,-0.889714 4.47147,-1.310026 0.44871,-0.179565 0.94628,-0.119012 1.40422,-0.245909 1.31799,-0.365223 -0.15497,-0.169728 1.20872,-0.437639 0.19131,-0.03759 1.22311,-0.12224 1.4118,-0.13869 0.95474,0.137338 1.53899,-0.566298 2.36164,-0.853889 0.48045,-0.167961 0.73058,-0.187272 1.2294,-0.26977 1.62888,-0.736404 3.55627,-0.773049 5.32571,-0.893008 1.00861,-0.272338 2.0707,-0.283641 3.08979,-0.478404 0.93026,-0.177784 1.84926,-0.550058 2.76368,-0.79771 1.75285,-0.472665 3.58645,-0.520079 5.39269,-0.491162 1.90645,0.02871 3.74781,-0.522963 5.61688,-0.828062 0.85099,-0.16887 1.73071,-0.13703 2.5669,-0.389397 0.99627,-0.300676 1.39835,-0.536448 2.48766,-0.680062 1.80359,-0.16121 3.56251,-0.586906 5.36831,-0.725736 0.88893,-0.113077 1.80995,0.02236 2.69725,-0.07731 0.8224,-0.09238 1.58767,-0.331915 2.42416,-0.39087 1.67393,-0.01373 3.29935,-0.335419 4.94986,-0.558999 0.88665,0.104806 1.60429,-0.324335 2.40663,-0.566741 0.88336,-0.266886 1.86476,-0.36011 2.77443,-0.500993 1.3786,-0.541028 2.82863,-0.779878 4.30322,-0.765425 0.65273,-0.09141 1.35702,0.112258 2.00592,2.49e-4 0.18346,-0.03167 0.34321,-0.14569 0.52041,-0.202774 0.44181,-0.142322 0.68147,-0.165697 1.13842,-0.242906 1.24226,-0.143226 2.49711,-0.08254 3.74578,-0.08568 0.942,0.0074 1.83512,-0.03186 2.74544,0.217663 0,0 -26.9853,19.160832 -26.9853,19.160832 v 0 c -0.81526,0.126587 -1.64014,0.0499 -2.46156,0.127442 -1.18287,0.06003 -2.35031,0.19871 -3.50745,0.459144 -1.24436,0.190193 -2.49285,-0.0021 -3.73363,0.265023 -1.32709,0.3073 -2.63653,0.714057 -3.99343,0.869003 -0.89038,0.198138 -1.78128,0.492641 -2.6756,0.658508 -0.8757,0.162417 -1.78649,0.0924 -2.65666,0.302347 -1.64668,0.211757 -3.30358,0.26955 -4.94887,0.495136 -1.69417,0.274278 -3.41386,0.162907 -5.10453,0.490741 -1.72274,0.304742 -3.4636,0.523015 -5.16241,0.945132 -1.67462,0.520218 -3.40074,0.630774 -5.12608,0.90933 -1.94882,0.324985 -3.89992,0.530574 -5.87846,0.5573 -1.68044,0.196485 -3.32738,0.484272 -4.95365,0.965301 -1.98883,0.458517 -4.02155,0.645178 -6.04169,0.92406 -1.00248,0.188404 -2.01481,0.377883 -2.98329,0.707871 -0.36678,0.124968 -1.32915,0.551548 -1.73641,0.672282 -0.19885,0.05895 -0.40731,0.07855 -0.61096,0.117819 -0.54059,0.223343 -1.10167,0.50082 -1.68352,0.598715 -0.44363,0.07464 -0.97922,0.03405 -1.42487,0.09602 -0.20778,0.02889 -0.40911,0.09303 -0.61366,0.139544 -1.28635,0.364779 -2.55699,0.701845 -3.85858,1.008597 -1.44465,0.342218 -2.69982,1.120942 -4.04952,1.717784 -1.59125,0.682633 -3.33724,0.979524 -4.85438,1.857219 -11.08345,4.599352 -25.27788,16.177037 22.83422,-13.700371 -0.75033,0.363429 -1.77576,0.895688 -2.42678,1.406443 -0.80933,0.63496 -1.39715,1.544026 -2.19898,2.190223 -1.41818,1.401887 -2.84311,2.802199 -4.17607,4.285792 0,0 -30.60303,12.676193 -30.60303,12.676193 z"
         id="path364"
         style="fill:#000000;stroke-width:0.26458332" />
      <path
         inkscape:connector-curvature="0"
         d="m 294.41423,40.162023 c -0.274,2.819874 -0.3647,5.635988 -0.78211,8.44491 -0.44711,3.176233 -1.07875,6.321094 -1.62922,9.479963 -0.35515,2.641946 -0.95929,5.23771 -1.41556,7.861596 -0.49087,2.280237 -1.12465,4.533278 -1.83386,6.755318 -0.39758,1.261731 -0.61733,2.579645 -1.01578,3.840255 -0.25605,0.810075 -0.59392,1.591974 -0.89025,2.388198 -1.02274,2.911787 -1.63392,5.936252 -2.13473,8.973835 -0.42549,2.430418 -0.72274,4.889389 -1.26129,7.298465 -0.37472,2.01153 -0.80134,4.014251 -1.14534,6.030677 -0.35741,2.45851 -0.83404,4.8954 -1.27675,7.33928 -0.49897,2.54993 -0.85655,5.12061 -1.17196,7.69802 -0.24806,2.77965 -0.78695,5.51872 -1.23494,8.26948 -0.469,2.71717 -0.59108,5.47305 -0.65984,8.22409 0.0369,2.09072 0.0419,4.17921 0.0193,6.26986 -0.0513,2.506 -0.0826,5.01278 -0.0792,7.51938 -0.0859,3.05198 -0.0646,6.10503 -0.10045,9.15748 0.0537,2.82094 0.0644,5.64062 0.1669,8.4603 0.03,2.95739 0.34912,5.89624 0.7191,8.82674 0.41003,2.08646 0.68567,4.18709 0.87416,6.30333 0.14996,1.50131 0.16052,3.01086 0.19615,4.51798 -0.007,1.36522 -0.009,2.73022 -0.0125,4.09538 -0.0605,1.71691 -0.0706,3.43417 -0.0697,5.15197 -0.30852,2.31003 -0.45405,4.64068 -0.83733,6.93995 -0.22072,1.63249 -0.55856,3.24234 -0.95197,4.84085 -0.12696,0.60028 -0.17238,1.21169 -0.21844,1.8219 0,0 -29.53438,14.84635 -29.53438,14.84635 v 0 c 0.026,-0.71702 0.0537,-1.43414 0.11649,-2.14915 0.15617,-1.76492 0.84062,-3.37178 1.22182,-5.08881 0.15975,-0.73873 0.37719,-1.46521 0.51132,-2.20903 0.25622,-1.42081 0.0888,-2.86759 0.28073,-4.29475 0.27843,-1.60609 0.0533,-3.2504 0.0627,-4.87356 -5.3e-4,-1.36094 0.003,-2.72165 -7.9e-4,-4.08264 0.0332,-1.4842 0.0409,-2.96822 0.0531,-4.45267 -0.0317,-2.09183 -0.19428,-4.17883 -0.45061,-6.25509 -0.37947,-2.99966 -0.51247,-6.02339 -0.76638,-9.03466 -0.25477,-2.89742 -0.24516,-5.79313 -0.14117,-8.69974 -0.0359,-3.01739 -0.0139,-6.03537 -0.10263,-9.05223 7.9e-4,-2.47605 -0.0338,-4.9523 -0.0947,-7.42754 -0.0294,-2.14645 -0.0335,-4.29128 0.0961,-6.43567 0.0892,-2.90199 0.26065,-5.80184 0.64476,-8.68188 0.21964,-1.44174 0.51239,-2.89255 0.68529,-4.33974 0.14477,-1.2118 0.1079,-2.45002 0.38746,-3.64731 0.21677,-2.68162 0.82659,-5.2999 1.18488,-7.96176 0.0714,-0.43378 0.14271,-0.86756 0.21407,-1.30135 0.0558,-0.43147 0.0995,-0.86468 0.1674,-1.29441 0.24191,-1.53005 0.6987,-3.0277 0.689,-4.59261 0.30349,-2.05135 0.679,-4.08694 1.11123,-6.11583 0.17412,-1.1204 0.51551,-2.13602 0.77385,-3.23547 0.32723,-1.39266 0.52057,-2.82028 0.93908,-4.19302 0.49235,-3.099067 0.89906,-6.216795 1.7259,-9.25165 0.24137,-1.02923 0.29406,-1.407917 0.64625,-2.367135 0.10503,-0.286065 0.26883,-0.549651 0.35927,-0.840658 0.29557,-0.951143 0.41513,-1.972937 0.72999,-2.922058 0.60498,-2.206943 1.45449,-4.344064 2.08139,-6.54603 0.58093,-2.596949 1.13166,-5.196771 1.57411,-7.819956 0.50552,-3.206456 1.51911,-6.302282 1.89866,-9.532321 0.34453,-2.522 0.6282,-5.080704 0.14566,-7.607543 0,0 29.53591,-15.049286 29.53591,-15.049286 z"
         id="path366"
         style="fill:#000000;stroke-width:0.26458332" />
      <path
         inkscape:connector-curvature="0"
         d="m 124.37015,261.3494 c -0.86565,-1.82894 -2.28516,-3.30484 -3.66826,-4.75071 -1.19161,-1.2684 -2.28402,-2.65562 -3.56339,-3.84021 -0.45525,-0.42153 -1.49592,-1.18698 -1.99473,-1.56305 -1.21058,-0.76454 -2.23496,-1.79621 -3.39903,-2.61871 -0.55732,-0.39378 -1.16051,-0.71902 -1.72488,-1.10263 -1.84247,-1.29375 -3.65126,-2.63098 -5.48208,-3.94388 -1.12444,-0.69902 -2.03989,-1.68305 -3.09761,-2.46432 -0.42607,-0.31471 -0.89947,-0.56008 -1.33942,-0.85508 -1.987009,-1.35945 -3.720459,-3.03078 -5.581781,-4.54747 -2.27874,-1.97316 -4.195165,-4.30943 -6.345309,-6.42257 -1.723493,-1.70013 -3.588232,-3.23645 -5.549376,-4.64908 -1.609791,-1.1453 -3.29602,-2.12592 -5.067411,-2.99442 -2.047637,-0.79874 -4.060505,-1.73649 -6.148091,-2.43035 -1.896163,-0.41606 -3.779081,-0.91226 -5.561664,-1.68647 -2.959163,-0.8311 -5.847659,-1.88952 -8.79794,-2.74315 -0.555649,-0.12989 -1.111859,-0.2574 -1.666948,-0.38966 -1.602506,-0.38182 -1.667693,-0.44162 -3.274691,-0.70932 -1.435484,-0.23912 -2.882956,-0.3481 -4.320757,-0.57276 -1.345872,-0.30912 -2.748528,-0.19813 -4.105366,-0.37398 -0.555002,-0.0719 -1.096114,-0.22716 -1.646785,-0.32697 -1.345086,-0.31584 -2.766345,-0.0582 -4.116771,-0.26209 -0.415189,-0.0627 -0.814215,-0.20567 -1.221322,-0.3085 -2.112661,-0.48482 -4.273972,-0.66125 -6.434813,-0.73256 -1.454259,-0.0106 -2.908847,0.007 -4.363009,0.0292 -0.167404,0.0788 -0.334807,0.15752 -0.50221,0.23628 0,0 26.558259,-19.74545 26.558259,-19.74545 v 0 c 0.222407,0.0357 0.444814,0.0715 0.667221,0.10719 1.467127,0.0322 2.935182,0.0682 4.390438,0.27848 2.120313,0.28371 4.20828,0.77224 6.337861,0.99296 1.905812,0.001 3.824584,0.06 5.68914,0.49413 1.783088,0.30335 3.588043,0.4871 5.348422,0.93495 3.110394,0.53138 6.182924,1.27791 9.19652,2.2142 3.087941,0.9377 6.241219,1.62694 9.336418,2.54062 1.897642,0.47421 3.786478,1.0217 5.595318,1.77208 2.140677,0.88256 4.316487,1.68596 6.378477,2.74743 1.91453,1.03943 3.84408,2.1121 5.54875,3.47459 1.85401,1.67163 3.54945,3.51009 5.35813,5.22991 1.98635,2.14841 4.01877,4.25282 6.37125,6.0079 1.75069,1.49902 3.51624,2.99181 5.53613,4.12519 1.59611,1.02422 2.91176,2.39197 4.44326,3.50884 1.76826,1.30806 3.54662,2.6046 5.37447,3.82786 1.86915,1.19047 3.57071,2.58742 5.20463,4.0828 2.0515,1.83116 3.98698,3.78383 5.93117,5.72756 1.43075,1.65563 2.85612,3.31579 4.34251,4.92219 0,0 -28.63473,16.77907 -28.63473,16.77907 z"
         id="path368"
         style="fill:#000000;stroke-width:0.26458332" />
      <path
         inkscape:connector-curvature="0"
         d="m 126.05987,94.938356 c -1.31309,-2.264535 -3.54088,-3.667443 -5.52287,-5.274242 -2.36567,-1.820912 -4.42426,-3.987744 -6.63821,-5.981059 -1.89731,-1.64674 -3.98417,-3.046796 -5.94004,-4.619517 -1.78127,-1.322427 -3.49603,-2.750521 -5.33111,-3.997944 -2.45335,-1.703358 -5.078689,-3.141935 -7.713021,-4.544869 -2.527655,-1.30696 -5.008356,-2.694104 -7.614028,-3.8436 -1.478069,-0.325707 -2.779769,-1.083807 -4.151937,-1.679302 -0.712753,-0.309319 -1.442662,-0.577689 -2.159148,-0.878263 -2.249207,-0.586529 -4.175162,-1.898587 -6.40283,-2.535815 -0.373562,-0.116858 -0.748829,-0.228406 -1.12069,-0.350575 -1.218954,-0.400466 -1.03573,-0.397661 -2.247241,-0.704744 -0.911133,-0.230945 -1.816349,-0.346102 -2.717967,-0.614418 -1.703451,-0.74471 -3.412029,-1.497031 -5.193451,-2.047053 -0.333851,-0.124587 -0.677939,-0.224586 -1.001551,-0.373761 -2.021006,-0.931619 -0.07591,-0.219598 -1.981832,-1.013729 -0.862618,-0.359421 -1.76667,-0.66094 -2.659758,-0.933808 -0.787313,-0.137982 -1.539412,-0.328131 -2.307757,-0.534349 -0.226522,-0.0608 -0.469047,-0.06299 -0.688173,-0.146606 -0.3541,-0.135125 -1.362146,-0.741503 -1.679471,-0.926634 -1.453894,-0.751576 -2.745587,-1.299086 -4.383678,-1.420511 -1.483902,-0.09117 -2.970184,-0.02217 -4.455046,-0.01225 -1.415983,0.02719 -2.831828,0.05378 -4.247579,0.0091 -0.144232,-0.0033 -1.631909,-0.04325 -1.761823,-0.01929 -0.272573,0.05024 -0.508861,0.222168 -0.77264,0.307263 -0.916849,0.295778 -1.854503,0.437396 -2.807843,0.536525 -1.660221,0.674727 -3.52011,0.460486 -5.191358,1.013629 0,0 26.312463,-19.874279 26.312463,-19.874279 v 0 c 1.722047,-0.104115 3.366776,-0.631692 5.077249,-0.834384 0.939258,-0.213053 1.927225,-0.472606 2.894936,-0.510917 0.954471,-0.03779 1.924664,0.137347 2.88114,0.02133 1.43723,-0.04898 2.875275,-0.04703 4.312907,-0.009 1.606825,0.03858 3.225684,0.163324 4.786334,0.567418 1.673791,0.522698 3.189308,1.381676 4.790384,2.086478 1.469136,0.498233 3.039719,0.696886 4.446593,1.397964 1.841225,0.777254 3.618791,1.695504 5.524254,2.307751 1.742114,0.635654 3.484565,1.288471 5.26252,1.809573 2.023777,0.548984 3.95796,1.384972 5.961472,2.001631 2.18118,0.901708 4.32451,1.877288 6.5438,2.686529 2.13973,0.926185 4.31775,1.740453 6.44297,2.691836 2.4476,1.333739 4.69865,3.014607 7.22475,4.2164 2.82717,1.507247 5.73401,2.869383 8.44109,4.59199 1.78384,1.342181 3.44907,2.838026 5.23425,4.180781 2.08933,1.529737 4.09439,3.15444 5.92759,4.990542 2.11979,2.04139 4.33334,3.96453 6.71596,5.696434 2.07409,1.728079 3.94296,3.708601 6.15368,5.260216 0,0 -28.24329,17.307493 -28.24329,17.307493 z"
         id="path370"
         style="fill:#000000;stroke-width:0.26458332" />
      <path
         inkscape:connector-curvature="0"
         d="m 45.460752,39.877596 c 0.03842,2.371656 0.147342,4.740151 0.184936,7.112648 0.104364,2.904035 0.02193,5.808795 0.04161,8.713391 0.03974,3.052307 0.01083,6.103017 -0.0637,9.15449 -0.08992,4.092755 -0.165029,8.185783 -0.186383,12.279495 -0.06888,4.489421 -0.04335,8.977874 0.04505,13.466964 0.101091,3.409873 0.222103,6.812282 0.121783,10.223166 -0.07435,4.69476 -0.297061,9.38579 -0.377395,14.0806 -0.05335,5.10626 0.01974,10.21361 0.256407,15.31457 0.192038,2.82739 0.303208,5.65175 0.262662,8.48484 -0.111576,3.76259 -0.238502,7.52468 -0.33091,11.28782 -0.131409,3.91082 0.177992,7.81428 0.239662,11.72068 -0.0966,3.42496 -0.07379,6.85218 -0.0083,10.27757 0.149641,2.68129 0.167538,5.34835 0.02474,8.0288 -0.220872,3.10112 0.101784,6.20266 0.05115,9.30154 -0.153844,3.48791 -0.139559,6.979 -0.157254,10.4696 -0.02988,1.58055 -0.138408,3.15771 -0.244121,4.73445 0,0 -29.087817,14.38256 -29.087817,14.38256 v 0 c 0.267008,-1.5249 0.556629,-3.05136 0.586523,-4.60517 0.241905,-3.40825 0.07335,-6.82874 -0.02779,-10.24064 -0.05178,-3.11632 0.271182,-6.23531 0.05115,-9.35367 -0.151451,-2.68858 -0.114523,-5.36402 0.02474,-8.05401 0.06415,-3.42256 0.08975,-6.84698 -0.0083,-10.26908 0.06196,-3.98789 0.36649,-7.97287 0.239661,-11.9649 -0.09195,-3.65076 -0.219213,-7.30042 -0.330909,-10.95061 -0.04244,-2.92201 0.07999,-5.83564 0.262662,-8.7525 0.229857,-5.18834 0.311764,-10.3825 0.256407,-15.57586 -0.07953,-4.56666 -0.304151,-9.12933 -0.377399,-13.69593 -0.104672,-3.45205 0.02766,-6.89608 0.121752,-10.3473 0.08694,-4.50447 0.114803,-9.008293 0.04512,-13.51303 -0.02095,-4.031126 -0.09531,-8.061553 -0.184063,-12.091728 -0.07402,-3.02927 -0.09685,-6.05767 -0.05887,-9.087726 0.01425,-2.865244 -0.0658,-5.729872 -0.08734,-8.595016 -0.08309,-2.152787 -0.102378,-4.351755 -0.646141,-6.447337 0,0 29.360736,-15.488677 29.360736,-15.488677 z"
         id="path372"
         style="fill:#000000;stroke-width:0.26458332" />
    </g>
    <g
       id="g391"
       transform="matrix(1.0044521,0,0,-0.68156444,174.3842,224.8396)">
      <path
         inkscape:connector-curvature="0"
         d="m -72.876446,51.268515 c -0.355994,2.816757 -0.396843,5.668835 -0.506,8.504269 -0.09992,4.352348 -0.08677,8.705752 -0.128315,13.058727 -0.151458,4.674251 -0.04806,9.350095 0.07605,14.02348 0.02442,4.017738 -0.01111,8.034195 0.05113,12.051464 0.03197,3.031415 0.09991,6.066015 0.257913,9.094085 0.09616,1.83242 0.109183,3.66368 0.09947,5.49794 -0.02355,2.38529 -0.127143,4.76883 -0.22043,7.15246 -0.06372,3.22631 -0.06061,6.45214 -0.004,9.67851 0.246922,1.63739 -0.319381,3.71866 0.693782,5.16922 1.845385,0.46348 2.653057,0.90461 4.045107,2.26925 1.840798,2.22197 2.64818,5.04716 3.62073,7.71485 0.68422,2.46078 1.82695,4.7182 2.914848,7.01333 0.917258,1.79142 1.300123,3.67011 1.253347,5.66721 -0.01519,0.31332 -0.03038,0.62664 -0.04558,0.93995 0,0 -29.37533,14.69565 -29.37533,14.69565 v 0 c 0.02937,-0.28986 0.05873,-0.57972 0.0881,-0.86958 0.03865,-0.47957 0.130157,-0.95578 0.136996,-1.43685 0.01455,-1.02449 -0.300347,-2.04212 -0.571629,-3.01524 -0.882804,-2.45329 -2.155542,-4.75226 -2.844319,-7.27952 -0.419515,-1.26789 -0.91299,-2.48226 -1.427247,-3.7141 -0.309771,-0.74201 -0.384754,-1.11319 -0.895207,-1.73273 -0.180247,-0.21877 -0.412438,-0.38896 -0.618654,-0.58344 -1.721453,-1.00501 -3.771896,-1.43535 -4.921296,-3.23557 -1.17265,-2.40232 -1.04164,-4.29326 -0.88591,-6.91166 0.0555,-3.225 0.0608,-6.44947 -0.004,-9.67439 -0.0941,-2.30873 -0.19826,-4.61733 -0.22043,-6.92783 -0.01,-1.868 0.006,-3.73302 0.0995,-5.5993 0.15438,-3.11597 0.2259,-6.23783 0.25791,-9.35692 0.0615,-4.03464 0.0273,-8.06845 0.0511,-12.10356 0.12151,-4.699218 0.22881,-9.400991 0.076,-14.100975 -0.0415,-4.309393 -0.0278,-8.61922 -0.12832,-12.927967 -0.1067,-2.66287 -0.13554,-5.34792 -0.506,-7.988631 0,0 29.580733,-15.072132 29.580733,-15.072132 z"
         id="path383"
         style="fill:#000000;stroke-width:0.26458332" />
      <path
         inkscape:connector-curvature="0"
         d="m -122.25986,107.28254 c 0.29729,0.0525 0.59297,0.11508 0.89187,0.15743 4.21784,0.59752 -2.31165,-0.39499 2.94471,0.29676 2.746,0.36137 5.46527,1.00933 8.17254,1.57631 9.56496,1.90545 19.219782,3.33932 28.866633,4.76064 2.145945,0.3388 4.295351,0.65636 6.437833,1.0164 2.323854,0.39051 4.635278,0.85331 6.960574,1.23515 3.601016,0.59132 11.007804,1.65932 14.609241,2.09509 6.506903,0.78733 7.894836,0.82329 14.347753,1.31614 7.063187,0.49958 14.143319,0.55878 21.219,0.42886 0,0 -24.856981,17.90927 -24.856981,17.90927 v 0 c -6.432761,-0.69049 -12.873011,-1.30854 -19.305971,-1.9976 -5.65132,-0.64407 -8.33683,-0.93363 -14.053187,-1.65483 -9.625605,-1.21441 -19.209512,-2.75468 -28.865165,-3.72711 -10.22536,-1.14541 -20.45298,-2.28871 -30.65827,-3.60003 -1.15322,-0.12674 -2.30379,-0.28062 -3.45968,-0.3802 -3.3869,-0.29179 -6.7842,-0.16912 -10.17774,-0.2759 0,0 26.92684,-19.15638 26.92684,-19.15638 z"
         id="path385"
         style="fill:#000000;stroke-width:0.26458332" />
    </g>
  </g>
</svg>
