<?xml version="1.0" encoding="UTF-8" standalone="no"?>
<!-- Created with Inkscape (http://www.inkscape.org/) -->

<svg
   xmlns:dc="http://purl.org/dc/elements/1.1/"
   xmlns:cc="http://creativecommons.org/ns#"
   xmlns:rdf="http://www.w3.org/1999/02/22-rdf-syntax-ns#"
   xmlns:svg="http://www.w3.org/2000/svg"
   xmlns="http://www.w3.org/2000/svg"
   xmlns:sodipodi="http://sodipodi.sourceforge.net/DTD/sodipodi-0.dtd"
   xmlns:inkscape="http://www.inkscape.org/namespaces/inkscape"
   width="300mm"
   height="300mm"
   viewBox="0 0 300 300"
   version="1.1"
   id="svg8"
   inkscape:version="0.92.3 (2405546, 2018-03-11)"
   sodipodi:docname="bookshelfHere.svg">
  <defs
     id="defs2" />
  <sodipodi:namedview
     id="base"
     pagecolor="#ffffff"
     bordercolor="#666666"
     borderopacity="1.0"
     inkscape:pageopacity="0.0"
     inkscape:pageshadow="2"
     inkscape:zoom="0.48892506"
     inkscape:cx="566.92913"
     inkscape:cy="566.92913"
     inkscape:document-units="mm"
     inkscape:current-layer="layer1"
     showgrid="false"
     inkscape:window-width="1678"
     inkscape:window-height="1010"
     inkscape:window-x="0"
     inkscape:window-y="0"
     inkscape:window-maximized="1" />
  <metadata
     id="metadata5">
    <rdf:RDF>
      <cc:Work
         rdf:about="">
        <dc:format>image/svg+xml</dc:format>
        <dc:type
           rdf:resource="http://purl.org/dc/dcmitype/StillImage" />
        <dc:title></dc:title>
      </cc:Work>
    </rdf:RDF>
  </metadata>
  <g
     inkscape:label="Layer 1"
     inkscape:groupmode="layer"
     id="layer1"
     transform="translate(0,3)">
    <g
       id="g68">
      <path
         inkscape:connector-curvature="0"
         d="m 60.492078,30.895696 c -1.805458,4.078907 -2.900397,8.409742 -4.073493,12.699153 -1.653971,6.055604 -2.123636,12.326784 -2.586011,18.559735 -0.551937,8.382725 -0.464788,16.779515 -0.413874,25.173408 0.084,3.946655 0.125034,7.890071 0.09139,11.837228 -0.01947,2.28273 -0.01304,4.92149 -0.136136,7.20543 -0.06444,1.19568 -0.185499,2.38763 -0.278249,3.58145 -0.362101,4.74028 -1.095205,9.44017 -1.519798,14.17399 -0.29496,3.28853 -0.290206,3.76058 -0.463386,7.03481 -0.357235,6.20152 -0.206248,12.41626 -0.178472,18.62393 -0.01111,4.79657 -0.102621,9.59123 0.0013,14.3874 0.02746,3.78019 0.150093,7.55596 0.280728,11.33304 0.225856,2.54577 0.205388,5.07763 -0.09668,7.61308 -0.478475,2.51475 -0.735195,5.05403 -0.974289,7.60006 -0.294883,2.59552 -0.46996,5.20087 -0.710014,7.80191 -0.336598,2.56737 -0.916805,5.0983 -1.449274,7.63134 -0.587401,2.81241 -1.382056,5.57332 -1.882862,8.40323 -0.608632,3.42562 -1.038249,6.87476 -1.209172,10.34985 -0.117163,2.86559 -0.152485,5.74564 0.0096,8.61074 0.105439,1.88175 0.120364,3.76517 0.191479,5.64765 0.05822,1.88808 0.694608,3.67216 1.173543,5.47686 0.457513,1.50966 1.055945,2.97277 1.612752,4.44968 0.62448,1.67431 1.170072,3.37701 1.685248,5.08776 0.496387,1.41618 0.802182,2.87404 0.913836,4.36796 0.11089,1.456 -0.0061,2.91301 0.0047,4.36996 -0.03701,1.52768 -0.02074,3.058 0.02909,4.58536 0.05714,0.90308 0.135699,1.80197 0.150871,2.70745 7.93e-4,0.12211 0.0016,0.24424 0.0026,0.36637 0,0 -28.631186,14.58836 -28.631186,14.58836 v 0 c 8.46e-4,-0.12306 0.0017,-0.24609 0.0026,-0.36915 0.01583,-0.95779 0.096,-1.9096 0.152831,-2.86525 0.05126,-1.54154 0.07428,-3.08581 0.04483,-4.6279 0.01654,-1.38462 -0.07276,-2.76823 -0.05706,-4.15306 -0.03028,-1.2894 -0.04507,-2.58676 -0.343451,-3.84964 -0.44096,-1.62435 -1.060458,-3.19315 -1.532669,-4.80716 -0.674295,-1.59234 -1.433638,-3.17415 -1.805635,-4.86996 -0.419161,-1.99584 -1.007429,-3.9494 -1.391645,-5.9536 -0.01125,-0.11366 -0.181058,-1.81454 -0.185409,-1.91958 -0.05604,-1.35276 0.183687,-2.70933 0.148352,-4.0628 0.17974,-2.9999 0.19737,-6.00836 0.383786,-9.00831 0.25426,-3.51346 0.55316,-7.02085 0.985798,-10.51797 0.170783,-1.53718 0.348359,-3.05819 0.644281,-4.5772 0.08681,-0.44557 0.183546,-0.88916 0.27532,-1.33374 0.105941,-0.40558 0.232072,-0.80643 0.317824,-1.21676 0.08693,-0.41595 0.133058,-0.8394 0.199587,-1.25909 0.483384,-2.45819 1.14407,-4.87527 1.636718,-7.33099 0.221985,-2.65411 0.604951,-5.28859 0.846266,-7.94149 0.171025,-1.37308 0.1973,-1.35297 0.25454,-2.73641 0.06748,-1.63099 -0.0047,-3.27804 0.369998,-4.88174 0.03602,-0.16939 0.421172,-1.9635 0.445836,-2.14659 0.05244,-0.38926 0.05002,-0.78406 0.08606,-1.17518 0.125003,-1.3564 0.229577,-2.70895 0.263379,-4.07265 0.126979,-3.88078 0.245545,-7.76048 0.298033,-11.64361 0.144115,-4.88707 0.122488,-9.77891 0.38216,-14.66203 0.379664,-6.36696 0.780789,-12.7311 0.943971,-19.10901 0.306187,-4.78299 0.638741,-9.56429 1.173663,-14.3284 0.129947,-1.15733 0.299556,-2.30996 0.43144,-3.46707 0.132887,-1.16593 0.241885,-2.33446 0.362829,-3.50169 0.752115,-7.54639 1.065717,-15.12359 1.04957,-22.70765 0.02082,-4.266934 0.09249,-8.534055 0.05751,-12.801083 -0.02838,-3.462149 -0.09055,-4.918178 -0.138489,-8.350673 -0.01797,-1.28565 -0.024,-2.571438 -0.03599,-3.857157 -0.06417,-6.228315 -0.03355,-12.503173 1.300819,-18.620229 0.879813,-3.866213 1.904584,-7.732032 2.231345,-11.695004 0,0 28.656747,-13.847368 28.656747,-13.847368 z"
         id="path42"
         style="fill:#000000;stroke-width:0.26458332" />
      <path
         inkscape:connector-curvature="0"
         d="m 59.65763,25.701976 c 3.322579,-0.698733 6.665918,-1.309939 10.019067,-1.852822 0.792668,-0.139649 1.58324,-0.291764 2.378004,-0.418945 0.759153,-0.121482 1.52451,-0.202255 2.283139,-0.326948 2.468378,-0.405718 4.911368,-0.933228 7.385161,-1.313878 2.609768,-0.412494 5.261126,-0.296258 7.891256,-0.231753 2.029918,0.05358 4.073864,-0.02735 6.098498,0.171446 0.960398,0.0943 1.908953,0.284647 2.86466,0.418375 2.029505,0.247786 4.070775,0.454861 6.079205,0.843899 0.37144,0.08181 0.74646,0.148825 1.11433,0.245437 1.86636,0.490146 0.72795,0.301246 2.70865,0.788384 1.77485,0.436512 3.58727,0.739254 5.36999,1.145514 4.9128,0.965356 9.844,1.785773 14.82645,2.288537 0.865,0.08747 1.73313,0.148095 2.59499,0.262419 1.71974,0.228126 3.42208,0.575739 5.14096,0.810268 2.42867,0.331375 4.85958,0.51045 7.30377,0.673616 3.01615,0.229446 6.05163,0.104251 9.06586,0.366556 1.75728,0.152921 3.50352,0.413539 5.25539,0.619432 3.98574,0.678423 7.98122,1.355709 12.00755,1.75052 2.39637,0.234982 3.33808,0.249045 5.69927,0.35749 3.90306,0.317571 7.81874,0.34798 11.73168,0.351263 2.21629,-0.06267 4.43009,-0.123312 6.64736,-0.107741 1.61587,-0.0921 3.3007,0.182404 4.89801,-0.165296 0.26067,-0.05674 0.51053,-0.155022 0.76579,-0.232531 0.24193,-0.06844 0.48771,-0.124466 0.72577,-0.205314 0.21815,-0.07409 0.42196,-0.187024 0.64088,-0.258826 0.91742,-0.300898 1.87176,-0.472094 2.78798,-0.782106 1.16535,-0.734719 0.0326,-0.0739 1.33329,-0.669872 0.22827,-0.10459 0.43948,-0.243621 0.66602,-0.351885 0.69177,-0.330584 1.41032,-0.554453 2.09653,-0.899012 0.42268,-0.230418 0.92707,-0.189397 1.36533,-0.361321 0.19376,-0.07601 0.34684,-0.233981 0.53694,-0.31873 0.59641,-0.265885 1.28311,-0.371615 1.90106,-0.58566 0.22462,-0.04293 0.45408,-0.06557 0.67386,-0.128781 0.20662,-0.05943 0.39395,-0.175025 0.59967,-0.237535 0.9476,-0.287954 1.9485,-0.238834 2.92455,-0.228282 2.05351,-0.02551 4.10702,-0.189482 6.161,-0.277588 2.16046,-0.06978 4.3225,-0.04369 6.48343,-0.0067 2.28926,-0.0089 4.58025,0.02151 6.86897,-0.03767 1.95247,-0.02275 3.90437,-0.01807 5.85697,-0.03352 1.15886,-0.03166 0.58957,-0.01868 1.70784,-0.03947 0,0 -25.62191,18.615266 -25.62191,18.615266 v 0 c -1.05403,-0.02074 -0.52094,-0.0076 -1.59928,-0.03963 -1.92121,-0.0159 -3.84173,-0.0114 -5.76279,-0.03671 -2.24758,-0.06529 -4.49811,-0.03385 -6.74632,-0.03853 -2.16727,0.04746 -4.33514,0.08237 -6.50032,0.193389 -2.09309,0.11067 -4.18769,0.286793 -6.2619,0.587484 -1.33491,0.310269 -2.61468,0.815268 -3.90658,1.25663 -0.61281,0.206703 -1.18383,0.511898 -1.79244,0.719519 -0.61592,0.210111 -1.24763,0.328948 -1.80259,0.705551 -1.4415,0.527219 -2.8042,1.310561 -4.33263,1.568061 -1.44258,0.333804 -2.86012,0.824958 -4.35653,0.835157 -1.91156,-0.02868 -3.8225,-0.118345 -5.73477,-0.07258 -2.12142,0.0164 -4.23776,-0.03563 -6.35095,-0.244438 -3.62247,-0.258363 -7.21508,-0.785947 -10.82001,-1.213151 -5.84368,-0.823847 -11.6939,-1.633326 -17.56831,-2.203151 -0.93518,-0.05971 -1.86934,-0.138589 -2.80555,-0.179129 -3.9682,-0.171831 -7.95359,-0.0398 -11.90522,-0.531913 -4.94625,-0.571873 -9.85022,-1.452308 -14.79942,-2.00488 -5.136723,-0.665649 -10.264806,-1.38194 -15.391634,-2.120495 -3.363473,-0.454115 -6.701875,-1.076537 -10.078096,-1.425152 -1.970685,-0.194162 -3.892113,-0.667506 -5.840584,-1.010816 -2.83128,-0.41406 -5.696966,-0.37799 -8.552153,-0.30869 -2.562188,0.103201 -5.120148,0.257807 -7.669242,0.54419 -3.711612,0.406866 -7.414948,0.916667 -11.093558,1.55643 -1.675953,0.365575 -3.115162,0.664607 -4.773163,1.082738 -1.924767,0.485408 -3.819229,1.116984 -5.759061,1.541704 -0.443233,0.09705 -0.893572,0.158162 -1.340358,0.237241 0,0 25.706239,-19.03512 25.706239,-19.03512 z"
         id="path44"
         style="fill:#000000;stroke-width:0.26458332" />
      <path
         inkscape:connector-curvature="0"
         d="m 249.24677,32.802969 c -1.50025,4.79879 -1.80842,9.879965 -2.29605,14.855716 -0.88226,9.810081 -1.48039,19.674708 -1.24524,29.529474 0.0512,2.146305 0.18844,4.289697 0.28267,6.434545 0.38106,9.877126 2.30759,19.580166 3.54072,29.360996 0.62554,7.01777 1.34916,14.02578 1.81721,21.05639 0.35884,6.59089 0.37045,13.19293 0.32016,19.7912 -0.13905,7.38825 -0.17238,14.7767 -0.18058,22.166 0.0348,6.91426 0.25341,13.82979 0.14235,20.74358 -0.11633,4.37547 -0.37196,8.75096 -0.92586,13.0946 -0.0317,0.24859 -0.9862,6.88498 -1.01742,7.10231 -0.42675,3.28784 -0.79811,6.58561 -1.02117,9.89432 -0.16226,2.40684 -0.20958,4.81507 -0.38484,7.22134 -0.19971,2.62226 -0.49854,5.2364 -0.84567,7.84308 -0.23037,1.47193 -0.5756,2.90187 -1.05241,4.31349 -0.1263,0.80016 -0.47111,1.54672 -0.67966,2.32102 -0.0559,0.20745 -0.079,0.42237 -0.11846,0.63355 -0.0595,0.20947 -0.11897,0.41894 -0.17845,0.62841 -0.45352,1.75093 -0.7505,3.53318 -1.10614,5.30477 -0.58074,2.17882 -0.43151,4.43474 -0.17618,6.64794 -0.0107,2.69926 0.13292,5.39433 0.19598,8.09186 0.0358,3.22977 0.48449,6.42419 1.04701,9.5979 0,0 -27.44965,14.43479 -27.44965,14.43479 v 0 c -0.28414,-3.30105 -0.53018,-6.60226 -1.07834,-9.87462 -0.17636,-2.61033 -0.42291,-5.21274 -0.62493,-7.82077 -0.0167,-2.4389 -0.24743,-4.87106 -0.18948,-7.31139 0.10701,-0.64092 0.27588,-1.27084 0.37319,-1.91331 0.16317,-1.07735 0.0906,-2.19691 0.40321,-3.25297 0.27734,-2.61867 -0.13989,0.97195 0.22706,-1.26719 0.0381,-0.23255 0.016,-0.47244 0.0556,-0.70475 0.11167,-0.65545 0.4156,-1.27276 0.62935,-1.89599 0.34495,-1.44398 0.98696,-2.79833 1.24382,-4.26549 0.0457,-0.13191 0.64499,-1.86127 0.65843,-1.9063 0.61781,-2.07048 0.98743,-4.21317 1.58097,-6.29046 1.26667,-5.8474 1.89543,-11.81619 2.75065,-17.73273 0.27205,-2.31202 0.58307,-4.61945 0.84135,-6.93304 0.47725,-4.27508 0.58956,-8.57608 0.95438,-12.86069 0.27762,-6.96248 0.20175,-13.93208 0.33593,-20.89822 -5.3e-4,-7.32529 -0.0151,-14.65 -0.17423,-21.97402 -0.0891,-6.54474 -0.11553,-13.09128 -0.32596,-19.63366 -0.11735,-3.41131 -0.25589,-6.81802 -0.49358,-10.22357 -0.16995,-2.43515 -0.42639,-4.86419 -0.568,-7.30115 -0.0726,-1.24898 -0.0954,-2.50035 -0.14308,-3.75053 -0.38449,-10.23581 -0.89971,-20.46605 -1.16368,-30.706069 -0.17931,-4.27192 -0.37883,-8.722765 -0.50757,-12.996799 -0.2196,-7.290604 -0.36733,-14.586077 -1.05876,-21.853162 -0.32568,-4.481621 -0.53964,-8.981027 -1.08177,-13.441921 0,0 28.68713,-14.25848 28.68713,-14.25848 z"
         id="path46"
         style="fill:#000000;stroke-width:0.26458332" />
      <path
         inkscape:connector-curvature="0"
         d="m 145.68322,46.469603 c -0.68623,4.87622 -0.72032,9.825765 -0.86882,14.740982 -0.1818,8.058642 -0.22628,16.123454 -0.0139,24.181763 0.21355,5.73768 0.25148,11.478099 0.25865,17.218892 0.0114,5.32206 0.037,10.64419 -0.007,15.96612 -0.0175,5.96302 -0.0599,11.92599 -0.14195,17.88846 -0.11811,6.88417 -0.0468,13.76851 -0.0168,20.6529 -0.0574,4.05401 0.19427,8.11369 0.11167,12.16721 -0.0393,1.92576 -0.20692,3.6875 -0.35934,5.60367 -0.50323,4.93064 -1.60865,9.77231 -2.98211,14.52614 -1.13618,3.61191 -2.67811,7.07338 -3.88933,10.65958 -0.74578,2.48779 -1.50648,4.96759 -2.34841,7.42505 -0.56663,1.89258 -1.1758,3.77149 -1.79381,5.64787 -0.53196,1.82422 -0.98028,3.66868 -1.5161,5.49185 -0.38277,1.14781 -0.7003,2.31375 -1.00088,3.48515 -0.50446,2.06536 -0.71708,4.18462 -0.8361,6.30261 -0.1076,2.0165 -0.0506,4.03617 -0.0497,6.05403 -0.0135,1.91626 -0.0418,3.83218 -0.0309,5.74875 -0.013,1.69713 0.0282,3.39418 0.0868,5.09018 -0.0421,1.39448 0.0731,2.78441 0.17435,4.17355 0.20321,1.61345 0.67456,3.18661 1.16813,4.73249 0.58126,1.68631 0.93378,3.44011 1.36871,5.16716 0.47499,1.82069 0.77021,3.67681 1.0126,5.54 0.26799,1.85656 0.59367,3.70298 0.86608,5.55927 0.0698,0.41592 0.13959,0.83182 0.20939,1.24775 0,0 -15.22335,8.08328 -15.22335,8.08328 v 0 c -0.0725,-0.41865 -0.14493,-0.8373 -0.2174,-1.25595 -0.19325,-1.0596 -0.20963,-1.26902 -0.47668,-2.28642 -0.0327,-0.12467 -0.47437,-1.60843 -0.51374,-1.80663 -0.0907,-0.45659 -0.0364,-0.93456 -0.14903,-1.38856 -0.23188,-1.80544 -0.25448,-3.64527 -0.78866,-5.40353 -0.46557,-1.68889 -0.93152,-3.37497 -1.4448,-5.04952 -0.49066,-1.678 -0.97153,-3.36344 -1.37192,-5.06441 -0.10839,-1.4219 -0.35106,-2.83275 -0.28684,-4.2623 0.057,-1.72439 0.098,-3.44981 0.0827,-5.17525 0.008,-1.90868 -0.0273,-3.8167 -0.0346,-5.72504 0.0179,-2.07613 0.11546,-4.15068 0.19856,-6.22494 0.10738,-2.12885 0.21132,-4.25713 0.40261,-6.38025 0.20092,-1.26387 0.50475,-2.50761 0.99637,-3.69321 0.28713,-0.82544 0.63728,-1.64232 0.88981,-2.47841 0.30508,-1.01006 0.45626,-2.0648 0.79978,-3.06489 0.53609,-1.92059 1.20343,-3.79678 1.7486,-5.71417 0.9273,-2.53005 1.94832,-5.02575 2.75154,-7.60155 1.28297,-3.59046 2.64885,-7.14543 4.06323,-10.68548 1.59043,-4.67712 2.99645,-9.43981 3.4816,-14.37755 0.15937,-1.50686 0.44653,-4.00411 0.51229,-5.51193 0.0423,-0.97064 0.0156,-1.94306 0.0243,-2.91459 0.028,-3.12215 0.0645,-6.24422 0.0873,-9.36641 0.0298,-6.87868 0.10167,-13.75733 -0.0168,-20.63578 -0.0825,-5.91424 -0.12443,-11.829 -0.14194,-17.74381 -0.044,-5.31967 -0.0178,-10.63954 -0.007,-15.95933 0.007,-5.82864 0.0482,-11.656831 0.25865,-17.482472 0.20667,-8.053671 0.17363,-16.11367 -0.0139,-24.167557 -0.14396,-4.618017 -0.14854,-9.28396 -0.86882,-13.855613 0,0 15.85623,-8.079155 15.85623,-8.079155 z"
         id="path50"
         style="fill:#000000;stroke-width:0.26458332" />
      <path
         inkscape:connector-curvature="0"
         d="m 151.0836,121.88782 c 2.27713,0.25446 4.55284,0.59026 6.80154,1.0372 4.32753,0.72287 8.60112,1.70547 12.94449,2.33517 4.43648,0.82264 8.92952,1.22302 13.43445,1.37263 3.23721,0.0583 6.45252,0.47403 9.68624,0.6255 2.27404,0.0999 4.5504,0.0974 6.82596,0.11526 2.11959,0.007 4.23852,-0.009 6.35792,-0.035 1.48458,-0.005 2.96892,-0.065 4.45348,-0.0535 1.19299,-0.31158 2.44269,-0.12498 3.64736,-0.27362 0.2854,-0.0352 0.56162,-0.12396 0.84243,-0.18593 1.39965,-0.36383 2.85514,-0.52412 4.21926,-1.01162 1.58901,-0.61247 -0.59064,0.18806 1.08047,-0.29365 1.39348,-0.40167 -0.42918,-0.0206 0.92572,-0.35857 0.21666,-0.054 0.77356,-0.11702 0.99445,-0.14467 1.0055,-0.12015 1.76282,0.0875 2.69292,-0.39281 0.43245,-0.15374 0.84898,-0.26249 1.2592,-0.46953 0,0 -13.97351,10.89773 -13.97351,10.89773 v 0 c -0.4527,0.10247 -0.89223,0.24046 -1.34625,0.33721 -0.91966,0.0588 -1.84715,0.0443 -2.73854,0.32312 -0.95369,0.28617 -1.89164,0.61128 -2.86473,0.82676 -1.40376,0.26622 -2.80108,0.57565 -4.22169,0.74362 -1.58734,0.11621 -3.16815,0.33625 -4.75991,0.35057 -1.43738,0.0116 -2.87456,-0.045 -4.312,-0.0475 -2.09366,-0.0223 -4.18692,-0.0282 -6.28064,-0.0371 -2.26664,-0.0111 -4.53537,-0.0624 -6.79306,-0.27853 -3.11497,-0.30657 -6.22463,-0.69003 -9.35308,-0.83352 -4.46838,-0.36818 -8.92489,-0.82428 -13.33859,-1.63646 -4.42088,-0.72047 -8.82023,-1.5797 -13.27122,-2.10488 -2.40849,-0.26705 -4.84056,-0.57071 -7.26618,-0.37939 0,0 14.35351,-10.42844 14.35351,-10.42844 z"
         id="path52"
         style="fill:#000000;stroke-width:0.26458332" />
      <path
         inkscape:connector-curvature="0"
         d="m 142.43197,209.8092 c 3.39183,-0.78857 6.87298,-1.12403 10.31096,-1.66945 5.64503,-0.81371 11.33462,-1.28784 17.02595,-1.62811 2.68778,-0.0271 5.40657,0.16516 8.04783,0.69156 1.27992,0.25509 2.53795,0.60988 3.80944,0.90409 3.97678,0.93331 8.03574,1.46833 12.0923,1.91335 2.74537,0.30551 5.4231,0.99569 8.12057,1.55919 2.29062,0.55859 4.53243,1.2956 6.86724,1.64885 2.22476,0.18136 4.45188,0.35621 6.6816,0.4757 2.08036,0.12704 4.16491,0.10577 6.24783,0.0952 1.01038,-0.0153 0.51431,-0.0403 1.48849,0.0693 0,0 -14.30689,10.23557 -14.30689,10.23557 v 0 c -0.85668,-0.0232 -0.40807,-0.0101 -1.34582,-0.0397 -2.04408,-0.06 -4.08554,-0.18258 -6.12748,-0.29123 -2.31113,-0.16763 -4.64192,-0.18772 -6.92964,-0.57716 -2.22823,-0.53276 -4.36783,-1.36535 -6.61021,-1.84576 -2.64398,-0.529 -5.30497,-0.95835 -7.93433,-1.55743 -4.02632,-0.68475 -8.07987,-1.22343 -12.07213,-2.09805 -3.79681,-0.8262 -7.50431,-1.46327 -11.41367,-1.36091 -5.6012,0.19557 -11.20294,0.57301 -16.71467,1.6524 -3.74486,0.70501 -7.65836,1.15522 -11.12436,2.82788 0,0 13.88699,-11.00522 13.88699,-11.00522 z"
         id="path54"
         style="fill:#000000;stroke-width:0.26458332" />
      <path
         inkscape:connector-curvature="0"
         d="m 64.221357,93.188844 c 4.371326,0.462158 8.78505,0.439951 13.17667,0.464756 4.887127,-0.01238 9.77306,-0.107781 14.65829,-0.23699 2.80761,-0.231804 5.591759,0.23621 8.383953,0.466651 3.04524,0.195278 6.05725,0.726795 9.0918,1.044133 2.0526,0.321339 4.11887,0.518512 6.19416,0.596427 1.62809,0.123745 3.20956,0.486396 4.80987,0.781155 1.84224,0.448035 3.7306,0.644975 5.62048,0.735248 1.22418,0.05179 2.44886,0.0098 3.67327,0.0049 0,0 -14.30324,10.384726 -14.30324,10.384726 v 0 c -1.20932,-0.0126 -2.4192,-0.0825 -3.62111,-0.2178 -1.8908,-0.22955 -3.75731,-0.59324 -5.63449,-0.91265 -1.58496,-0.2586 -3.18149,-0.41969 -4.77853,-0.58381 -2.005499,-0.20259 -3.98608,-0.56713 -5.977644,-0.87083 -2.99257,-0.44558 -5.989793,-0.87932 -9.017301,-0.99998 -2.721441,-0.20933 -5.434494,-0.46955 -8.167746,-0.45532 -4.667655,-0.13315 -9.336159,-0.22603 -14.005912,-0.23699 -4.819695,0.0268 -9.651648,0.0433 -14.456034,0.46476 0,0 14.353514,-10.42844 14.353514,-10.42844 z"
         id="path56"
         style="fill:#000000;stroke-width:0.26458332" />
      <path
         inkscape:connector-curvature="0"
         d="m 58.098906,169.71946 c 3.373139,0.44776 6.588559,1.69578 9.816132,2.71338 6.961423,2.1948 1.779098,0.44374 8.906901,2.93925 1.489663,0.52266 2.976139,1.05448 4.468985,1.56798 7.256785,2.49611 1.081349,0.30053 7.895857,2.69665 2.89007,1.0162 5.757428,2.05378 8.682815,2.96421 4.195614,1.42768 8.581424,2.16846 12.973084,2.66439 4.49815,0.43012 9.02051,0.44174 13.53471,0.44838 3.33423,0.0484 6.66745,-0.24684 9.90681,-1.04384 1.6933,-0.62663 3.46901,-1.04851 5.10218,-1.82743 0.56982,-0.12281 1.06009,-0.40076 1.54999,-0.70021 0,0 -13.81779,11.00327 -13.81779,11.00327 v 0 c -0.53331,0.18723 -1.07505,0.35155 -1.59463,0.57566 -1.6342,0.49431 -3.26509,1.01864 -4.94766,1.32698 -3.22821,0.49865 -6.49491,0.63714 -9.75885,0.49777 -4.51222,-0.0796 -9.02996,-0.20389 -13.520828,-0.68039 -4.458428,-0.55057 -8.925118,-1.23224 -13.074753,-3.04952 -6.616904,-2.71026 -13.128464,-5.68888 -19.923998,-7.94686 -5.449623,-1.72912 -11.016155,-3.46935 -16.759587,-3.86987 -1.647769,-0.11491 -2.298679,-0.001 -3.792878,0.14863 0,0 14.35351,-10.42843 14.35351,-10.42843 z"
         id="path58"
         style="fill:#000000;stroke-width:0.26458332" />
    </g>
    <path
       style="fill:#000000;stroke-width:0.26458332"
       id="path108"
       d="m 42.327448,259.21874 c 0.428774,0.11088 0.851673,0.24767 1.286325,0.33265 1.787065,0.3494 3.599749,0.55414 5.392248,0.87449 1.340514,0.23958 2.672027,0.52819 4.013467,0.76252 3.227689,0.56384 6.468502,1.0498 9.701602,1.58172 11.732487,1.71079 23.489472,3.25302 35.217554,4.99586 10.004886,1.67185 2.424356,0.47202 12.381746,1.87129 5.89588,0.82855 6.11986,0.97962 12.01078,1.60057 3.03361,0.31975 8.41044,0.73385 11.47465,0.98036 8.95277,0.60733 17.85438,1.72204 26.7806,2.61454 4.13063,0.3539 8.27271,0.46738 12.41557,0.36631 3.11359,-0.12996 6.22494,0.0635 9.33717,0.14129 3.95763,0.0389 7.91456,-0.0328 11.87218,-0.0148 3.55945,-0.0445 7.11964,-0.12379 10.67946,-0.0976 3.2327,-0.15746 6.35552,-1.03921 9.45789,-1.89021 0.41415,-0.10322 0.84459,-0.15513 1.24246,-0.30965 0.65779,-0.25545 1.22754,-0.70437 1.8799,-0.9734 0.80729,-0.33292 1.6515,-0.49826 2.46762,-0.80436 3.49922,-0.49236 -2.12308,0.25387 1.81099,-0.10057 0.65133,-0.0587 1.27743,-0.294 1.92737,-0.36642 0.83256,-0.0928 1.44235,-0.0425 2.28491,-0.0172 2.74574,0.004 5.49156,-0.0156 8.23729,0.004 2.95735,-0.0473 5.91213,0.0605 8.86696,0.15737 4.04169,0.10422 8.08524,0.14817 12.12814,0.11576 2.00069,-0.10962 3.99689,-0.28514 5.99533,-0.42566 0.60856,-0.0428 1.22329,-0.0228 1.82674,-0.11232 0.5393,-0.08 1.05524,-0.27567 1.58736,-0.39444 0.51763,-0.11554 1.0406,-0.20553 1.56091,-0.30832 2.56537,-0.29554 5.03637,-1.14935 7.61568,-1.29847 2.3907,0.0685 4.78544,0.0393 7.17601,-0.0378 0.29223,-0.083 0.58311,-0.17092 0.87667,-0.24919 0.38676,-0.1031 1.16813,-0.29718 1.57723,-0.3503 2.49034,-0.32332 -1.09096,0.21992 1.59999,-0.009 0.27474,-0.0233 0.53819,-0.12039 0.80727,-0.18058 2.3749,-0.20973 4.76067,-0.13123 7.14078,-0.20296 1.48334,-0.0249 2.65634,-0.97618 4.02014,-1.38851 1.98143,-0.59904 0.0193,0.21212 1.79676,-0.58322 0.82433,-0.17936 1.46743,-0.59089 2.05636,-1.17898 0.17487,-0.17463 0.70993,-0.67442 0.49554,-0.55147 -44.11957,25.30731 -58.27758,37.20018 -44.5595,25.71625 46.44032,-26.65685 28.49765,-27.44877 46.90472,-26.51511 0,0 -42.11675,32.96999 -42.11675,32.96999 v 0 c -10.65638,14.39 -0.42349,0.46464 45.0269,-25.69482 -16.88735,7.2544 1.45465,-0.65125 -46.60452,26.99684 -0.51786,0.29792 -1.75555,0.30237 -2.36318,0.43709 -0.25793,0.0572 -0.50873,0.14274 -0.7631,0.2141 -2.46313,0.42897 0.63959,-0.14951 -1.78522,0.42508 -1.48985,0.35306 -3.01457,0.19045 -4.52762,0.18225 -2.41007,0.0836 -4.79822,0.39497 -7.17127,0.82018 -1.70988,0.0786 -3.38638,0.61664 -5.10955,0.23132 -2.2682,-0.0333 -4.56597,0.0233 -6.7852,0.53248 -2.31781,0.48834 -4.68425,0.64722 -7.02912,0.96242 -3.61791,0.34576 -7.27991,0.16354 -10.91079,0.2612 -4.14729,-0.035 -8.29512,0.0143 -12.44145,0.1076 -3.07798,0.0881 -6.15551,0.18301 -9.23545,0.16148 -2.7077,0.0576 -5.42971,0.0774 -8.10629,0.54276 -0.40637,0.098 -0.81274,0.19603 -1.21911,0.29404 -0.33769,0.0909 -0.67336,0.18965 -1.01306,0.2727 -0.65899,0.16111 -1.34348,0.22143 -1.98969,0.42791 -0.54533,0.17426 -1.02096,0.5293 -1.56867,0.69932 -0.74795,0.20857 -1.45271,0.51777 -2.20106,0.72112 -1.24119,0.33732 -0.71407,0.14333 -2.09638,0.32549 -0.35209,0.0464 -0.69996,0.1206 -1.04994,0.1809 -3.23444,0.49617 -6.50059,0.83926 -9.77807,0.74009 -3.4702,0.0251 -6.9407,-0.0504 -10.41055,-0.094 -3.95441,0.0225 -7.9084,-0.0401 -11.8627,0.0172 -3.32078,0.0901 -6.65066,0.34129 -9.96734,0.0408 -3.72382,-0.41035 -7.41472,-1.0422 -11.01693,-2.09572 -3.34416,-0.75789 -6.67915,-1.55159 -10.05998,-2.13513 -3.59636,-0.62077 -5.43663,-0.81052 -9.1045,-1.30463 -1.66249,-0.22397 -3.323951,-0.45554 -4.985931,-0.68332 -5.700443,-0.67156 -11.383328,-1.40364 -17.06072,-2.25115 -17.926955,-2.67613 5.894007,0.86249 -11.978666,-1.91043 -2.092315,-0.32461 -4.191008,-0.60668 -6.286513,-0.91003 -6.135394,-0.81484 -12.260466,-1.72622 -18.409449,-2.43501 -7.759253,-0.8944 -4.427262,-0.42146 -12.142891,-1.20581 -1.860126,-0.18913 -3.716498,-0.41347 -5.574746,-0.62021 -3.643853,-0.31621 -6.897524,-0.65564 -10.54857,-0.75489 -4.6928854,-0.12755 -9.392328,0.20183 -14.02334678,0.96494 0,0 42.92655078,-31.18796 42.92655078,-31.18796 z"
       inkscape:connector-curvature="0" />
    <path
       style="fill:#000000;stroke-width:0.26458332"
       id="path110"
       d="m 30.899436,240.23067 c 0.356266,0.0889 0.707723,0.20002 1.0688,0.26679 2.333363,0.4315 4.731811,0.50677 7.095249,0.61353 2.308204,0.10427 4.617432,0.18452 6.926016,0.2799 9.035608,0.37617 18.075468,0.28958 27.115791,0.34721 8.598681,0.42957 17.2016,0.51203 25.808167,0.40186 4.606931,-0.0521 9.204111,-0.37154 13.808881,-0.48201 1.89556,0.0282 3.80965,-0.22477 5.70485,-0.11862 0.91839,0.0514 1.82766,0.21146 2.74372,0.29463 1.35676,0.3489 2.76726,0.36284 4.11213,0.76963 0.50416,0.1525 0.97971,0.38867 1.47936,0.55537 0.9284,0.30972 1.87558,0.56079 2.80581,0.86498 0.43703,0.10625 0.87626,0.20386 1.3111,0.31874 1.47939,0.39085 1.16377,0.39707 2.63902,0.6464 1.31971,0.22305 2.65902,0.29473 3.99219,0.38388 3.76205,0.20002 7.5309,0.25618 11.29757,0.29488 4.10887,0.0229 8.21651,-0.14687 12.32488,-0.10835 3.76527,-0.0405 7.5308,-0.007 11.29553,-0.055 1.21413,-0.11368 2.43969,0.11913 3.65366,0.0212 0.57954,-0.0467 1.14286,-0.21595 1.71754,-0.30425 1.79469,-0.27576 3.59893,-0.39405 5.39473,-0.6677 2.3672,-0.1512 4.66559,-0.78033 7.00876,-1.10763 0.84759,-0.11839 2.01814,-0.19374 2.87652,-0.25855 1.17553,-0.35889 2.39315,-0.43428 3.61097,-0.49686 0.41912,-0.0215 0.84549,0.0206 1.25768,-0.0583 0.37547,-0.0719 0.71073,-0.28598 1.07889,-0.38895 0.39596,-0.11075 0.80515,-0.16707 1.20773,-0.25061 2.59369,-0.40654 5.16443,-0.81361 7.79146,-0.90614 3.08173,0.075 6.14727,-0.28995 9.22031,-0.47564 1.42103,-0.25634 2.87705,-0.28541 4.27975,-0.65057 0.43303,-0.11272 0.84241,-0.30506 1.27421,-0.42244 0.29953,-0.0814 2.24928,-0.46852 2.57015,-0.53307 0.78257,-0.20509 1.59576,-0.13802 2.38785,-0.25316 2.1334,-0.3101 -0.0376,-0.16033 2.07926,-0.43064 0.42186,-0.0539 1.75024,-0.0946 2.16537,-0.1104 2.24473,-0.43164 4.53615,-0.507 6.81574,-0.57831 1.88537,-0.53773 3.87641,-0.60465 5.82597,-0.56817 2.3218,0.0879 4.64639,0.0534 6.96787,0.12312 1.86962,0.10442 3.75924,-0.0255 5.62694,0.0822 1.05154,0.0606 2.09626,0.213 3.1474,0.28016 1.47212,-0.0264 2.88639,0.28817 4.30632,0.62032 0.38481,0.09 0.78282,0.13156 1.15705,0.25862 0.83365,0.28305 1.60941,0.71457 2.42213,1.05299 1.84848,0.65569 3.60759,1.56179 5.50415,2.07911 3.16188,0.86247 -0.70241,-0.3245 2.34871,0.63885 1.17263,0.17046 2.28327,0.59437 3.44567,0.80235 0.22405,0.0401 0.46566,0.003 0.67736,0.0863 0.30705,0.12134 0.5638,0.34369 0.84569,0.51553 0.62584,0.32179 1.28875,0.53336 1.98945,0.60287 0.1841,0.0183 0.37354,-0.0157 0.55457,0.0224 0.44643,0.0941 0.86664,0.28761 1.30804,0.40301 0.53555,0.16442 1.14374,-0.0644 1.67685,0.0425 0.25011,0.0502 0.47326,0.19205 0.7165,0.26899 0.50583,0.16001 0.67646,0.16168 1.18554,0.22966 1.5625,0.0763 2.15704,1.35509 3.77172,1.65127 0.72736,0.006 1.74034,0.24561 2.4494,0.037 0.18786,-0.0552 0.33025,-0.2131 0.50869,-0.29368 0.19021,-0.0859 0.39478,-0.13566 0.59219,-0.20349 0.65074,-0.77305 1.4219,-1.00959 2.33468,-1.31676 1.79097,-0.60269 -0.53147,0.0399 1.41187,-0.46792 0.98809,-0.16638 0.56666,0.032 1.28876,-0.5403 0,0 -41.99741,32.84165 -41.99741,32.84165 v 0 c -0.90504,0.0426 -0.47286,-0.0583 -1.29747,0.29871 -1.46949,0.58905 -2.96005,1.22174 -4.56544,0.83633 -1.66655,-0.19498 -3.28505,-0.77796 -4.81642,-1.45196 -0.63007,-0.30586 -1.31844,-0.76747 -2.04333,-0.79983 -0.52731,-0.0236 -0.25953,0.15811 -0.82812,0.0799 -0.20867,-0.0287 -0.40558,-0.11395 -0.60836,-0.17092 -0.31238,-0.084 -0.83486,-0.24029 -1.16508,-0.2686 -0.16767,-0.0143 -0.33799,0.0398 -0.50461,0.0161 -0.72467,-0.10281 -1.40853,-0.4622 -2.10794,-0.65468 -0.40131,-0.1256 -0.82293,-0.17957 -1.22334,-0.30803 -0.94467,-0.30308 -1.76853,-0.93469 -2.73892,-1.17636 -0.75377,-0.0265 -1.30212,-0.32877 -2.01239,-0.56499 -0.86135,-0.28644 -1.71991,-0.56693 -2.5298,-0.99026 -2.46139,-0.9779 -4.85164,-2.16437 -7.44913,-2.76315 -2.32756,-0.51342 -4.67713,-0.88268 -7.06568,-0.95755 -2.92402,-0.16717 -5.85738,0.0537 -8.78523,0.0493 -2.37015,0.0751 -4.7467,0.04 -7.10724,0.31557 -1.90386,0.2412 -3.8193,0.5932 -5.7413,0.52385 -2.23283,0.18674 -4.43496,0.54766 -6.66271,0.77978 -0.68162,0.11983 -1.35677,0.27506 -2.0391,0.39076 -1.38551,0.23498 -2.80452,0.25226 -4.16405,0.65175 -0.81286,0.14962 -1.61762,0.34997 -2.43739,0.4554 -1.91916,0.24691 -3.87813,0.24151 -5.80539,0.38717 -3.08419,0.18677 -6.18099,0.34205 -9.24479,0.73869 -2.5424,0.41598 -5.08103,0.85966 -7.61062,1.34588 -2.61803,0.445 0.0277,0.0607 -2.64952,0.25024 -1.58798,0.11245 -3.14033,0.60561 -4.74484,0.5229 -3.08682,0.35809 -6.17295,0.72252 -9.25963,1.08114 -1.8614,0.17489 -3.74111,0.46508 -5.61199,0.50662 -1.85727,0.0412 -3.72464,-0.10985 -5.58339,-0.0238 -3.71583,-0.0487 -7.43252,-0.0114 -11.14893,-0.0456 -4.02827,0.0451 -8.05626,-0.10427 -12.08497,-0.088 -4.0776,0.0212 -8.164785,0.11353 -12.232931,-0.22863 -2.976015,-0.36819 -5.844363,-1.1507 -8.695756,-2.07319 -0.488694,-0.1346 -2.1453,-0.60169 -2.625704,-0.68903 -1.697855,-0.30866 -3.466073,-0.34708 -5.181407,-0.46651 -2.644735,-0.11285 -5.300133,0.0643 -7.945969,-0.12984 -4.062069,-0.1371 -8.103616,-0.57414 -12.154998,-0.88333 -8.059711,-0.63834 -16.120761,-1.37949 -24.214285,-1.37047 -9.358813,0.0586 -18.717011,-0.0185 -28.0715844,0.34722 -6.09867437,0.22624 -12.238203,0.24884 -18.2838826,1.16022 0,0 43.057883,-31.28337 43.057883,-31.28337 z"
       inkscape:connector-curvature="0" />
    <path
       style="fill:#000000;stroke-width:0.26458332"
       id="path112"
       d="m 161.8266,251.57103 c 2.04146,1.53675 4.52937,2.04869 6.9615,2.62859 3.01519,0.71892 2.33539,0.549 5.51908,1.12384 1.08565,0.16562 2.1755,0.30575 3.25695,0.49684 6.12966,1.08311 0.79697,0.34096 6.885,1.23917 3.11295,0.45928 6.20755,0.71366 9.34658,0.89157 4.67069,0.17497 9.3451,0.1962 14.01849,0.20223 3.97299,0.0126 7.94417,-0.14127 11.91377,-0.28921 2.13651,-0.13857 4.27396,-0.22698 6.41332,-0.30172 1.8673,0.61813 3.85676,0.59207 5.8006,0.66595 2.60812,0.0615 5.21407,0.16308 7.82327,0.16472 3.1932,0.0643 6.39869,-0.1101 9.57936,0.19745 0.56783,0.0421 1.13707,0.0683 1.7035,0.12623 6.8853,0.7041 -3.27342,-0.23567 3.37834,0.42104 1.07499,0.10613 2.16268,0.0831 3.2321,0.23555 0.58703,0.0837 1.16022,0.24554 1.74034,0.36832 2.76703,0.55062 5.58543,0.70473 8.40004,0.69869 0,0 -42.87387,30.67115 -42.87387,30.67115 v 0 c -2.68451,-0.4087 -5.33038,-1.0115 -8.02074,-1.38827 -3.25719,-0.19902 -6.48957,-0.70337 -9.75835,-0.71998 -3.2077,0.0716 -6.41741,0.0507 -9.626,0.0691 -2.80089,-0.0101 -5.60414,0.10343 -8.40297,-0.0362 -1.98811,-0.1093 -4.01058,-0.53158 -5.98762,-0.21916 -1.86676,-0.0695 -3.73138,-0.14774 -5.59504,-0.28191 -3.74114,-0.13539 -7.48341,-0.2604 -11.22727,-0.27734 -4.61398,-0.0698 -9.24995,-0.1674 -13.8008,-1.01647 -6.36763,-1.12057 -12.70804,-2.45126 -19.15162,-3.06615 -3.01291,-0.35531 -5.9974,-0.80283 -8.99844,-1.24008 -1.16116,-0.16918 -3.13145,-0.51086 -4.38077,-0.39275 -0.43878,0.0415 -0.8482,0.2399 -1.2723,0.35986 0,0 43.12355,-31.3311 43.12355,-31.3311 z"
       inkscape:connector-curvature="0" />
  </g>
</svg>
