<?xml version="1.0" encoding="UTF-8" standalone="no"?>
<!-- Created with Inkscape (http://www.inkscape.org/) -->

<svg
   xmlns:dc="http://purl.org/dc/elements/1.1/"
   xmlns:cc="http://creativecommons.org/ns#"
   xmlns:rdf="http://www.w3.org/1999/02/22-rdf-syntax-ns#"
   xmlns:svg="http://www.w3.org/2000/svg"
   xmlns="http://www.w3.org/2000/svg"
   xmlns:sodipodi="http://sodipodi.sourceforge.net/DTD/sodipodi-0.dtd"
   xmlns:inkscape="http://www.inkscape.org/namespaces/inkscape"
   width="210mm"
   height="297mm"
   viewBox="0 0 210 297"
   version="1.1"
   id="svg8"
   inkscape:version="0.92.3 (2405546, 2018-03-11)"
   sodipodi:docname="drawing.svg">
  <defs
     id="defs2" />
  <sodipodi:namedview
     id="base"
     pagecolor="#ffffff"
     bordercolor="#666666"
     borderopacity="1.0"
     inkscape:pageopacity="0.0"
     inkscape:pageshadow="2"
     inkscape:zoom="0.35"
     inkscape:cx="-124.28571"
     inkscape:cy="560"
     inkscape:document-units="mm"
     inkscape:current-layer="layer1"
     showgrid="false"
     inkscape:window-width="1678"
     inkscape:window-height="1010"
     inkscape:window-x="0"
     inkscape:window-y="0"
     inkscape:window-maximized="1" />
  <metadata
     id="metadata5">
    <rdf:RDF>
      <cc:Work
         rdf:about="">
        <dc:format>image/svg+xml</dc:format>
        <dc:type
           rdf:resource="http://purl.org/dc/dcmitype/StillImage" />
        <dc:title></dc:title>
      </cc:Work>
    </rdf:RDF>
  </metadata>
  <g
     inkscape:label="Layer 1"
     inkscape:groupmode="layer"
     id="layer1">
    <path
       style="fill:#00ff00;stroke-width:0.26458332"
       id="path10"
       d="m 43.742022,180.52233 c 0.196104,-0.0824 0.379431,-0.207 0.588309,-0.24721 0.31269,-0.0602 2.138685,-0.10361 2.348444,-0.10903 1.4439,-0.0374 2.885641,-0.0988 4.329758,-0.12804 3.206991,0.0216 6.414572,0.0871 9.621473,0.14808 3.728436,-0.16198 7.428775,0.30515 11.011021,1.31582 2.263934,1.28383 4.788585,1.66233 7.280587,2.1961 6.583283,1.41008 -2.709658,-0.40466 3.134712,0.71589 0.489429,0.14616 0.972407,0.31596 1.468284,0.43847 0.454819,0.11235 0.925322,0.1532 1.38022,0.26523 2.119916,0.5221 4.064069,1.43503 5.973443,2.46885 1.879393,1.2099 3.923305,2.26362 5.596294,3.76808 0.627467,0.56426 2.323283,2.41788 2.906628,3.04612 2.492815,2.57861 4.824915,5.31423 7.168455,8.03038 1.58059,1.73084 3.10123,3.49068 4.55879,5.32343 1.4926,2.58405 3.23828,4.99896 4.70922,7.59517 1.6055,2.30482 3.03506,4.63829 4.08602,7.24915 1.01094,2.87182 2.05941,5.72498 3.08389,8.59362 1.21402,1.95742 1.00793,5.01271 2.61336,6.68001 0.22156,0.2301 0.5049,0.39143 0.75736,0.58714 0.67157,0.32233 2.40183,0.65255 3.10266,0.26874 0.54446,-0.29817 0.67457,-1.10979 0.83721,-1.59103 10.88429,-22.56653 0.88224,-1.30515 -61.442838,34.62812 -0.558387,0.32194 1.155142,-0.5837 1.678757,-0.95954 1.815428,-1.30313 3.175185,-3.15193 4.506307,-4.90601 2.916248,-4.01466 5.159086,-8.41864 7.011,-13.00648 1.806541,-5.62116 3.556315,-11.26608 4.754362,-17.0519 1.147693,-5.19458 1.476084,-10.51367 2.107009,-15.78321 0.967142,-4.6878 2.086195,-9.33871 2.957642,-14.04665 0.593487,-4.00001 0.847773,-8.0361 1.207434,-12.06072 0.421606,-3.95062 1.268055,-7.83351 1.986357,-11.73792 0.278453,-3.90339 0.841102,-7.76283 1.972164,-11.51165 1.216602,-4.32987 2.402512,-8.62937 4.216666,-12.75278 2.49724,-5.28154 5.46729,-10.3253 8.47005,-15.33125 2.18802,-3.74689 4.16108,-7.63714 6.52664,-11.2794 0.36347,-0.55965 3.79563,-5.45485 4.17159,-5.99218 3.9904,-5.61097 8.35961,-10.93088 12.72724,-16.24779 3.50878,-4.39577 7.34107,-8.49031 11.23699,-12.538727 4.33939,-4.128958 9.00154,-7.850241 13.84506,-11.364778 4.90907,-3.740795 10.11414,-7.038998 15.2341,-10.474581 22.83235,-14.646159 6.10384,-3.970219 66.58126,-38.079807 0.8107,-0.457239 1.70771,-0.741283 2.56942,-1.093086 2.33108,-0.951698 4.69819,-1.674612 7.10778,-2.393667 1.97499,-0.738555 4.1149,-0.883886 6.12478,-1.477155 1.58142,-0.4668 3.5057,-1.267574 5.05494,-1.887689 2.55252,-0.631296 4.9221,-1.746787 7.46099,-2.425589 0,0 -58.47072,45.225261 -58.47072,45.225261 v 0 c -2.31819,0.838287 -4.6935,1.466895 -7.02378,2.265989 -3.5484,0.933315 -7.15263,1.651709 -10.59327,2.959299 -2.12596,0.807037 -4.20013,1.6842 -6.25857,2.653106 -0.76415,0.359686 -3.01072,1.528504 -2.2803,1.104488 53.99777,-31.346346 79.5514,-45.221631 56.72042,-32.800266 -2.8833,1.645541 -2.55433,1.394314 -5.36746,3.262336 -0.87928,0.583867 -1.71862,1.228003 -2.61321,1.788112 -0.85712,0.536642 -1.78356,0.95744 -2.63739,1.499296 -1.08018,0.685504 -3.77355,2.71762 -4.79481,3.476945 -2.44719,1.725496 -4.87943,3.468939 -7.32177,5.199351 -0.77177,0.546804 -1.59909,1.014841 -2.3522,1.587074 -1.28051,0.97296 -2.97181,2.6029 -4.1479,3.69851 -4.47532,3.475598 -8.35382,7.684246 -12.06199,11.954647 -4.71271,5.079675 -9.29003,10.311752 -13.46358,15.845364 -3.8804,5.179787 -7.52774,10.554647 -10.56102,16.281667 -2.4769,4.83984 -5.32586,9.4808 -7.75724,14.34691 -0.87398,1.8897 -1.90255,3.73164 -2.64122,5.68064 -0.54819,1.44643 -0.80377,2.49156 -1.19992,3.98737 -0.17946,0.67762 -0.35236,1.35697 -0.52853,2.03545 -0.3197,1.13851 -0.74726,2.24534 -1.05516,3.3871 -0.62973,2.33518 -1.02509,4.76662 -1.36077,7.15693 -0.37342,3.80801 -1.02458,7.5751 -1.85833,11.30562 -0.42092,4.33088 -1.34012,8.57844 -1.79443,12.90745 -0.68081,4.78416 -1.38018,9.58933 -2.66551,14.25488 -1.03157,3.2237 -0.42688,0.91541 -0.99102,4.58172 -0.59773,3.88463 -1.36411,7.74494 -1.93786,11.63386 -1.27859,5.86442 -2.4565,11.7461 -3.89483,17.57547 -0.73081,2.61578 -1.44403,5.23354 -2.53172,7.73084 -0.34147,0.78399 -0.76176,1.53142 -1.12433,2.30588 -1.71492,3.66315 -0.33364,1.10423 -2.30491,4.51693 -1.11004,1.97663 -2.19054,3.95812 -3.32022,5.92216 -0.32593,0.56666 -0.37822,1.3849 -0.93823,1.72212 -63.120207,38.0099 -39.619106,38.75938 -66.155277,37.55812 -3.099014,-1.11212 -5.842862,-2.81037 -7.881329,-5.4587 -1.002286,-1.41732 -1.512395,-2.0352 -2.316297,-3.6241 -0.986319,-1.94945 -1.627481,-4.04132 -2.316192,-6.10449 -0.920157,-2.72443 -2.21638,-5.30509 -3.158939,-8.01752 -0.996284,-2.24488 -2.141921,-4.40227 -3.442314,-6.49009 -1.36597,-2.23549 -2.773368,-4.45516 -4.468119,-6.45739 -1.516163,-1.84324 -3.127555,-3.61463 -4.394216,-5.65055 -1.78004,-2.66033 -3.766706,-5.15836 -6.080189,-7.38319 -2.320205,-1.93886 -4.927729,-3.34599 -7.758689,-4.41419 -2.573856,-0.93233 -5.283628,-1.37501 -7.910564,-2.13336 -1.511357,-0.48454 -3.027611,-0.94445 -4.538125,-1.43184 -0.409401,-0.1321 -3.10066,-0.99253 -3.604115,-1.09314 -0.582254,-0.11635 -1.180062,-0.13301 -1.770092,-0.19951 -3.3776395,-0.29422 -6.7413903,-0.26045 -10.1280276,-0.20785 -3.2731806,0.0759 -6.5478315,0.13643 -9.8109756,0.42837 -1.4038323,0.1159 -2.7975638,0.22543 -4.1927038,0.4252 -0.272585,0.039 -2.430361,0.38159 -2.739572,0.39479 -0.44682,0.0191 -0.893358,-0.0442 -1.340037,-0.0664 0,0 60.515715,-43.96724 60.515715,-43.96724 z"
       inkscape:connector-curvature="0"
       inkscape:export-xdpi="96"
       inkscape:export-ydpi="96" />
  </g>
</svg>
