<?xml version="1.0" encoding="UTF-8" standalone="no"?>
<!-- Created with Inkscape (http://www.inkscape.org/) -->

<svg
   xmlns:dc="http://purl.org/dc/elements/1.1/"
   xmlns:cc="http://creativecommons.org/ns#"
   xmlns:rdf="http://www.w3.org/1999/02/22-rdf-syntax-ns#"
   xmlns:svg="http://www.w3.org/2000/svg"
   xmlns="http://www.w3.org/2000/svg"
   xmlns:sodipodi="http://sodipodi.sourceforge.net/DTD/sodipodi-0.dtd"
   xmlns:inkscape="http://www.inkscape.org/namespaces/inkscape"
   width="300mm"
   height="300mm"
   viewBox="0 0 300 300"
   version="1.1"
   id="svg8"
   inkscape:version="0.92.3 (2405546, 2018-03-11)"
   sodipodi:docname="homeHere.svg">
  <defs
     id="defs2" />
  <sodipodi:namedview
     id="base"
     pagecolor="#ffffff"
     bordercolor="#666666"
     borderopacity="1.0"
     inkscape:pageopacity="0.0"
     inkscape:pageshadow="2"
     inkscape:zoom="0.48892506"
     inkscape:cx="566.92913"
     inkscape:cy="477.49405"
     inkscape:document-units="mm"
     inkscape:current-layer="layer1"
     showgrid="false"
     inkscape:window-width="1678"
     inkscape:window-height="1010"
     inkscape:window-x="0"
     inkscape:window-y="0"
     inkscape:window-maximized="1" />
  <metadata
     id="metadata5">
    <rdf:RDF>
      <cc:Work
         rdf:about="">
        <dc:format>image/svg+xml</dc:format>
        <dc:type
           rdf:resource="http://purl.org/dc/dcmitype/StillImage" />
        <dc:title></dc:title>
      </cc:Work>
    </rdf:RDF>
  </metadata>
  <g
     inkscape:label="Layer 1"
     inkscape:groupmode="layer"
     id="layer1"
     transform="translate(0,3)">
    <g
       id="g136"
       transform="translate(0.158447,0.10794129)">
      <path
         inkscape:connector-curvature="0"
         d="m 42.327448,259.21874 c 0.428774,0.11088 0.851673,0.24767 1.286325,0.33265 1.787065,0.3494 3.599749,0.55414 5.392248,0.87449 1.340514,0.23958 2.672027,0.52819 4.013467,0.76252 3.227689,0.56384 6.468502,1.0498 9.701602,1.58172 11.732487,1.71079 23.489472,3.25302 35.217554,4.99586 10.004886,1.67185 2.424356,0.47202 12.381746,1.87129 5.89588,0.82855 6.11986,0.97962 12.01078,1.60057 3.03361,0.31975 8.41044,0.73385 11.47465,0.98036 8.95277,0.60733 17.85438,1.72204 26.7806,2.61454 4.13063,0.3539 8.27271,0.46738 12.41557,0.36631 3.11359,-0.12996 6.22494,0.0635 9.33717,0.14129 3.95763,0.0389 7.91456,-0.0328 11.87218,-0.0148 3.55945,-0.0445 7.11964,-0.12379 10.67946,-0.0976 3.2327,-0.15746 6.35552,-1.03921 9.45789,-1.89021 0.41415,-0.10322 0.84459,-0.15513 1.24246,-0.30965 0.65779,-0.25545 1.22754,-0.70437 1.8799,-0.9734 0.80729,-0.33292 1.6515,-0.49826 2.46762,-0.80436 3.49922,-0.49236 -2.12308,0.25387 1.81099,-0.10057 0.65133,-0.0587 1.27743,-0.294 1.92737,-0.36642 0.83256,-0.0928 1.44235,-0.0425 2.28491,-0.0172 2.74574,0.004 5.49156,-0.0156 8.23729,0.004 2.95735,-0.0473 5.91213,0.0605 8.86696,0.15737 4.04169,0.10422 8.08524,0.14817 12.12814,0.11576 2.00069,-0.10962 3.99689,-0.28514 5.99533,-0.42566 0.60856,-0.0428 1.22329,-0.0228 1.82674,-0.11232 0.5393,-0.08 1.05524,-0.27567 1.58736,-0.39444 0.51763,-0.11554 1.0406,-0.20553 1.56091,-0.30832 2.56537,-0.29554 5.03637,-1.14935 7.61568,-1.29847 2.3907,0.0685 4.78544,0.0393 7.17601,-0.0378 0.29223,-0.083 0.58311,-0.17092 0.87667,-0.24919 0.38676,-0.1031 1.16813,-0.29718 1.57723,-0.3503 2.49034,-0.32332 -1.09096,0.21992 1.59999,-0.009 0.27474,-0.0233 0.53819,-0.12039 0.80727,-0.18058 2.3749,-0.20973 4.76067,-0.13123 7.14078,-0.20296 1.48334,-0.0249 2.65634,-0.97618 4.02014,-1.38851 1.98143,-0.59904 0.0193,0.21212 1.79676,-0.58322 0.82433,-0.17936 1.46743,-0.59089 2.05636,-1.17898 0.17487,-0.17463 0.70993,-0.67442 0.49554,-0.55147 -44.11957,25.30731 -58.27758,37.20018 -44.5595,25.71625 46.44032,-26.65685 28.49765,-27.44877 46.90472,-26.51511 0,0 -42.11675,32.96999 -42.11675,32.96999 v 0 c -10.65638,14.39 -0.42349,0.46464 45.0269,-25.69482 -16.88735,7.2544 1.45465,-0.65125 -46.60452,26.99684 -0.51786,0.29792 -1.75555,0.30237 -2.36318,0.43709 -0.25793,0.0572 -0.50873,0.14274 -0.7631,0.2141 -2.46313,0.42897 0.63959,-0.14951 -1.78522,0.42508 -1.48985,0.35306 -3.01457,0.19045 -4.52762,0.18225 -2.41007,0.0836 -4.79822,0.39497 -7.17127,0.82018 -1.70988,0.0786 -3.38638,0.61664 -5.10955,0.23132 -2.2682,-0.0333 -4.56597,0.0233 -6.7852,0.53248 -2.31781,0.48834 -4.68425,0.64722 -7.02912,0.96242 -3.61791,0.34576 -7.27991,0.16354 -10.91079,0.2612 -4.14729,-0.035 -8.29512,0.0143 -12.44145,0.1076 -3.07798,0.0881 -6.15551,0.18301 -9.23545,0.16148 -2.7077,0.0576 -5.42971,0.0774 -8.10629,0.54276 -0.40637,0.098 -0.81274,0.19603 -1.21911,0.29404 -0.33769,0.0909 -0.67336,0.18965 -1.01306,0.2727 -0.65899,0.16111 -1.34348,0.22143 -1.98969,0.42791 -0.54533,0.17426 -1.02096,0.5293 -1.56867,0.69932 -0.74795,0.20857 -1.45271,0.51777 -2.20106,0.72112 -1.24119,0.33732 -0.71407,0.14333 -2.09638,0.32549 -0.35209,0.0464 -0.69996,0.1206 -1.04994,0.1809 -3.23444,0.49617 -6.50059,0.83926 -9.77807,0.74009 -3.4702,0.0251 -6.9407,-0.0504 -10.41055,-0.094 -3.95441,0.0225 -7.9084,-0.0401 -11.8627,0.0172 -3.32078,0.0901 -6.65066,0.34129 -9.96734,0.0408 -3.72382,-0.41035 -7.41472,-1.0422 -11.01693,-2.09572 -3.34416,-0.75789 -6.67915,-1.55159 -10.05998,-2.13513 -3.59636,-0.62077 -5.43663,-0.81052 -9.1045,-1.30463 -1.66249,-0.22397 -3.323951,-0.45554 -4.985931,-0.68332 -5.700443,-0.67156 -11.383328,-1.40364 -17.06072,-2.25115 -17.926955,-2.67613 5.894007,0.86249 -11.978666,-1.91043 -2.092315,-0.32461 -4.191008,-0.60668 -6.286513,-0.91003 -6.135394,-0.81484 -12.260466,-1.72622 -18.409449,-2.43501 -7.759253,-0.8944 -4.427262,-0.42146 -12.142891,-1.20581 -1.860126,-0.18913 -3.716498,-0.41347 -5.574746,-0.62021 -3.643853,-0.31621 -6.897524,-0.65564 -10.54857,-0.75489 -4.6928854,-0.12755 -9.392328,0.20183 -14.02334678,0.96494 0,0 42.92655078,-31.18796 42.92655078,-31.18796 z"
         id="path108"
         style="fill:#000000;stroke-width:0.26458332" />
      <path
         inkscape:connector-curvature="0"
         d="m 30.899436,240.23067 c 0.356266,0.0889 0.707723,0.20002 1.0688,0.26679 2.333363,0.4315 4.731811,0.50677 7.095249,0.61353 2.308204,0.10427 4.617432,0.18452 6.926016,0.2799 9.035608,0.37617 18.075468,0.28958 27.115791,0.34721 8.598681,0.42957 17.2016,0.51203 25.808167,0.40186 4.606931,-0.0521 9.204111,-0.37154 13.808881,-0.48201 1.89556,0.0282 3.80965,-0.22477 5.70485,-0.11862 0.91839,0.0514 1.82766,0.21146 2.74372,0.29463 1.35676,0.3489 2.76726,0.36284 4.11213,0.76963 0.50416,0.1525 0.97971,0.38867 1.47936,0.55537 0.9284,0.30972 1.87558,0.56079 2.80581,0.86498 0.43703,0.10625 0.87626,0.20386 1.3111,0.31874 1.47939,0.39085 1.16377,0.39707 2.63902,0.6464 1.31971,0.22305 2.65902,0.29473 3.99219,0.38388 3.76205,0.20002 7.5309,0.25618 11.29757,0.29488 4.10887,0.0229 8.21651,-0.14687 12.32488,-0.10835 3.76527,-0.0405 7.5308,-0.007 11.29553,-0.055 1.21413,-0.11368 2.43969,0.11913 3.65366,0.0212 0.57954,-0.0467 1.14286,-0.21595 1.71754,-0.30425 1.79469,-0.27576 3.59893,-0.39405 5.39473,-0.6677 2.3672,-0.1512 4.66559,-0.78033 7.00876,-1.10763 0.84759,-0.11839 2.01814,-0.19374 2.87652,-0.25855 1.17553,-0.35889 2.39315,-0.43428 3.61097,-0.49686 0.41912,-0.0215 0.84549,0.0206 1.25768,-0.0583 0.37547,-0.0719 0.71073,-0.28598 1.07889,-0.38895 0.39596,-0.11075 0.80515,-0.16707 1.20773,-0.25061 2.59369,-0.40654 5.16443,-0.81361 7.79146,-0.90614 3.08173,0.075 6.14727,-0.28995 9.22031,-0.47564 1.42103,-0.25634 2.87705,-0.28541 4.27975,-0.65057 0.43303,-0.11272 0.84241,-0.30506 1.27421,-0.42244 0.29953,-0.0814 2.24928,-0.46852 2.57015,-0.53307 0.78257,-0.20509 1.59576,-0.13802 2.38785,-0.25316 2.1334,-0.3101 -0.0376,-0.16033 2.07926,-0.43064 0.42186,-0.0539 1.75024,-0.0946 2.16537,-0.1104 2.24473,-0.43164 4.53615,-0.507 6.81574,-0.57831 1.88537,-0.53773 3.87641,-0.60465 5.82597,-0.56817 2.3218,0.0879 4.64639,0.0534 6.96787,0.12312 1.86962,0.10442 3.75924,-0.0255 5.62694,0.0822 1.05154,0.0606 2.09626,0.213 3.1474,0.28016 1.47212,-0.0264 2.88639,0.28817 4.30632,0.62032 0.38481,0.09 0.78282,0.13156 1.15705,0.25862 0.83365,0.28305 1.60941,0.71457 2.42213,1.05299 1.84848,0.65569 3.60759,1.56179 5.50415,2.07911 3.16188,0.86247 -0.70241,-0.3245 2.34871,0.63885 1.17263,0.17046 2.28327,0.59437 3.44567,0.80235 0.22405,0.0401 0.46566,0.003 0.67736,0.0863 0.30705,0.12134 0.5638,0.34369 0.84569,0.51553 0.62584,0.32179 1.28875,0.53336 1.98945,0.60287 0.1841,0.0183 0.37354,-0.0157 0.55457,0.0224 0.44643,0.0941 0.86664,0.28761 1.30804,0.40301 0.53555,0.16442 1.14374,-0.0644 1.67685,0.0425 0.25011,0.0502 0.47326,0.19205 0.7165,0.26899 0.50583,0.16001 0.67646,0.16168 1.18554,0.22966 1.5625,0.0763 2.15704,1.35509 3.77172,1.65127 0.72736,0.006 1.74034,0.24561 2.4494,0.037 0.18786,-0.0552 0.33025,-0.2131 0.50869,-0.29368 0.19021,-0.0859 0.39478,-0.13566 0.59219,-0.20349 0.65074,-0.77305 1.4219,-1.00959 2.33468,-1.31676 1.79097,-0.60269 -0.53147,0.0399 1.41187,-0.46792 0.98809,-0.16638 0.56666,0.032 1.28876,-0.5403 0,0 -41.99741,32.84165 -41.99741,32.84165 v 0 c -0.90504,0.0426 -0.47286,-0.0583 -1.29747,0.29871 -1.46949,0.58905 -2.96005,1.22174 -4.56544,0.83633 -1.66655,-0.19498 -3.28505,-0.77796 -4.81642,-1.45196 -0.63007,-0.30586 -1.31844,-0.76747 -2.04333,-0.79983 -0.52731,-0.0236 -0.25953,0.15811 -0.82812,0.0799 -0.20867,-0.0287 -0.40558,-0.11395 -0.60836,-0.17092 -0.31238,-0.084 -0.83486,-0.24029 -1.16508,-0.2686 -0.16767,-0.0143 -0.33799,0.0398 -0.50461,0.0161 -0.72467,-0.10281 -1.40853,-0.4622 -2.10794,-0.65468 -0.40131,-0.1256 -0.82293,-0.17957 -1.22334,-0.30803 -0.94467,-0.30308 -1.76853,-0.93469 -2.73892,-1.17636 -0.75377,-0.0265 -1.30212,-0.32877 -2.01239,-0.56499 -0.86135,-0.28644 -1.71991,-0.56693 -2.5298,-0.99026 -2.46139,-0.9779 -4.85164,-2.16437 -7.44913,-2.76315 -2.32756,-0.51342 -4.67713,-0.88268 -7.06568,-0.95755 -2.92402,-0.16717 -5.85738,0.0537 -8.78523,0.0493 -2.37015,0.0751 -4.7467,0.04 -7.10724,0.31557 -1.90386,0.2412 -3.8193,0.5932 -5.7413,0.52385 -2.23283,0.18674 -4.43496,0.54766 -6.66271,0.77978 -0.68162,0.11983 -1.35677,0.27506 -2.0391,0.39076 -1.38551,0.23498 -2.80452,0.25226 -4.16405,0.65175 -0.81286,0.14962 -1.61762,0.34997 -2.43739,0.4554 -1.91916,0.24691 -3.87813,0.24151 -5.80539,0.38717 -3.08419,0.18677 -6.18099,0.34205 -9.24479,0.73869 -2.5424,0.41598 -5.08103,0.85966 -7.61062,1.34588 -2.61803,0.445 0.0277,0.0607 -2.64952,0.25024 -1.58798,0.11245 -3.14033,0.60561 -4.74484,0.5229 -3.08682,0.35809 -6.17295,0.72252 -9.25963,1.08114 -1.8614,0.17489 -3.74111,0.46508 -5.61199,0.50662 -1.85727,0.0412 -3.72464,-0.10985 -5.58339,-0.0238 -3.71583,-0.0487 -7.43252,-0.0114 -11.14893,-0.0456 -4.02827,0.0451 -8.05626,-0.10427 -12.08497,-0.088 -4.0776,0.0212 -8.164785,0.11353 -12.232931,-0.22863 -2.976015,-0.36819 -5.844363,-1.1507 -8.695756,-2.07319 -0.488694,-0.1346 -2.1453,-0.60169 -2.625704,-0.68903 -1.697855,-0.30866 -3.466073,-0.34708 -5.181407,-0.46651 -2.644735,-0.11285 -5.300133,0.0643 -7.945969,-0.12984 -4.062069,-0.1371 -8.103616,-0.57414 -12.154998,-0.88333 -8.059711,-0.63834 -16.120761,-1.37949 -24.214285,-1.37047 -9.358813,0.0586 -18.717011,-0.0185 -28.0715844,0.34722 -6.09867437,0.22624 -12.238203,0.24884 -18.2838826,1.16022 0,0 43.057883,-31.28337 43.057883,-31.28337 z"
         id="path110"
         style="fill:#000000;stroke-width:0.26458332" />
      <path
         inkscape:connector-curvature="0"
         d="m 161.8266,251.57103 c 2.04146,1.53675 4.52937,2.04869 6.9615,2.62859 3.01519,0.71892 2.33539,0.549 5.51908,1.12384 1.08565,0.16562 2.1755,0.30575 3.25695,0.49684 6.12966,1.08311 0.79697,0.34096 6.885,1.23917 3.11295,0.45928 6.20755,0.71366 9.34658,0.89157 4.67069,0.17497 9.3451,0.1962 14.01849,0.20223 3.97299,0.0126 7.94417,-0.14127 11.91377,-0.28921 2.13651,-0.13857 4.27396,-0.22698 6.41332,-0.30172 1.8673,0.61813 3.85676,0.59207 5.8006,0.66595 2.60812,0.0615 5.21407,0.16308 7.82327,0.16472 3.1932,0.0643 6.39869,-0.1101 9.57936,0.19745 0.56783,0.0421 1.13707,0.0683 1.7035,0.12623 6.8853,0.7041 -3.27342,-0.23567 3.37834,0.42104 1.07499,0.10613 2.16268,0.0831 3.2321,0.23555 0.58703,0.0837 1.16022,0.24554 1.74034,0.36832 2.76703,0.55062 5.58543,0.70473 8.40004,0.69869 0,0 -42.87387,30.67115 -42.87387,30.67115 v 0 c -2.68451,-0.4087 -5.33038,-1.0115 -8.02074,-1.38827 -3.25719,-0.19902 -6.48957,-0.70337 -9.75835,-0.71998 -3.2077,0.0716 -6.41741,0.0507 -9.626,0.0691 -2.80089,-0.0101 -5.60414,0.10343 -8.40297,-0.0362 -1.98811,-0.1093 -4.01058,-0.53158 -5.98762,-0.21916 -1.86676,-0.0695 -3.73138,-0.14774 -5.59504,-0.28191 -3.74114,-0.13539 -7.48341,-0.2604 -11.22727,-0.27734 -4.61398,-0.0698 -9.24995,-0.1674 -13.8008,-1.01647 -6.36763,-1.12057 -12.70804,-2.45126 -19.15162,-3.06615 -3.01291,-0.35531 -5.9974,-0.80283 -8.99844,-1.24008 -1.16116,-0.16918 -3.13145,-0.51086 -4.38077,-0.39275 -0.43878,0.0415 -0.8482,0.2399 -1.2723,0.35986 0,0 43.12355,-31.3311 43.12355,-31.3311 z"
         id="path112"
         style="fill:#000000;stroke-width:0.26458332" />
    </g>
    <g
       id="g272">
      <path
         inkscape:connector-curvature="0"
         d="m 24.379525,286.88938 c 0.731292,-3.12272 0.614459,-6.36863 0.669592,-9.55506 0.0036,-3.04387 -0.255885,-6.07804 -0.192521,-9.12162 -0.150256,-2.39138 0.0703,-4.77514 0.218805,-7.15946 0.06936,-1.48441 -0.01637,-3.00215 0.226748,-4.47471 0.114393,-0.69287 0.295118,-1.37339 0.420387,-2.06438 0.878082,-2.60314 1.067883,-5.33486 1.218019,-8.05488 0.06552,-2.4627 -0.08641,-4.9217 -0.09055,-7.38329 0.08524,-1.88311 0.229153,-3.76757 0.521766,-5.63252 0.298321,-2.66019 1.23181,-5.18555 1.967839,-7.74202 0.125103,-0.41155 0.265329,-0.81881 0.375311,-1.23466 0.475038,-1.79616 0.162695,-1.05003 0.702929,-2.80451 0.417992,-1.35748 0.969828,-2.67691 1.464892,-4.00726 0.807128,-2.73883 2.011246,-5.32577 3.19441,-7.91605 0.938739,-2.02523 1.843847,-4.06479 2.680253,-6.1344 0.349848,-0.87693 0.67672,-1.78629 1.147411,-2.60993 0.366384,-0.64112 0.605761,-0.75886 0.899475,-1.50338 0.150431,-0.38132 0.219696,-0.78986 0.329546,-1.18479 0.469564,-2.91887 0.439161,-5.89825 0.551397,-8.8486 0.262202,-4.1454 0.326316,-8.29469 0.234259,-12.44615 -0.07198,-1.51571 -0.339391,-3.0099 -0.555286,-4.50884 0,0 46.495596,-24.07606 46.495596,-24.07606 v 0 c -0.0078,1.7339 -0.05131,3.46678 -0.05799,5.20075 -0.08017,4.07271 -0.01437,8.14243 0.263906,12.2079 0.108828,3.06208 0.10142,6.119 0.08267,9.18189 0.02903,1.26564 0.269301,2.66521 -0.05268,3.91071 -0.249402,0.96473 -0.872467,1.82681 -1.365412,2.67218 -1.013021,2.12871 -1.791501,4.37052 -2.946088,6.43622 -1.204052,2.45057 -2.43719,4.88082 -3.520045,7.38698 -0.412732,1.34848 -0.859417,2.67253 -1.384073,3.98233 -0.248671,0.62081 -0.761521,1.73878 -0.935931,2.3883 -0.126773,0.47211 -0.180192,0.96091 -0.270286,1.44136 -0.650531,2.24891 -1.254109,4.50847 -1.885516,6.75918 -0.07818,0.913 -0.254129,1.77853 -0.379116,2.6794 -0.154598,1.1143 0.01161,0.79039 -0.114406,1.91468 -0.03451,0.30788 -0.109672,0.60983 -0.164507,0.91474 -0.05251,0.28605 -0.32177,1.72349 -0.350697,2.00113 -0.186849,1.79342 -0.0074,3.60835 -0.200404,5.40192 -0.05068,2.87223 -0.126029,5.74799 -0.323969,8.61407 -0.311785,1.28191 -0.187322,0.62308 -0.365897,1.97787 -0.273931,1.28627 -0.920552,2.47039 -0.75334,3.84256 -0.06877,2.39016 -0.264197,4.76212 -0.667354,7.12169 0.06612,3.10861 -0.199445,6.20882 -0.192521,9.3178 0.05199,2.95185 -0.118094,6.00357 0.669592,8.87273 0,0 -47.56621,24.23618 -47.56621,24.23618 z"
         id="path254"
         style="fill:#000000;stroke-width:0.26458332" />
      <path
         inkscape:connector-curvature="0"
         d="m -12.099716,193.0794 c 0.309144,-0.18801 0.633101,-0.35359 0.927432,-0.56404 0.825123,-0.58996 1.5719938,-1.2826 2.3722274,-1.90591 1.7350991,-1.35147 3.5285579,-2.62889 5.2900648,-3.94548 4.8386518,-3.79624 9.6146515,-7.67345 14.2913668,-11.66754 6.478123,-5.5977 12.749672,-11.42223 18.887579,-17.38878 5.068363,-4.97926 9.635974,-10.43806 13.823307,-16.17033 3.826872,-5.47993 7.407656,-11.12451 11.136653,-16.66971 4.160917,-5.99169 8.524433,-11.8399 13.479018,-17.19881 4.553543,-4.8649 10.223942,-8.381977 15.754668,-11.999778 1.049001,-0.693031 2.102754,-1.378924 3.147007,-2.079093 2.491306,-1.670415 3.893666,-2.685476 6.411404,-4.323593 2.754471,-1.792142 5.579996,-3.475948 8.367939,-5.215091 16.20278,-10.374593 33.23963,-19.493894 49.87465,-29.05824 0.62762,-0.360852 1.29923,-0.639294 1.94321,-0.970063 2.77885,-1.427303 0.49394,-0.341371 3.05076,-1.520772 1.08062,-0.571643 2.27797,-0.649706 3.43739,-0.910185 1.1812,-0.265375 2.36229,-0.729962 3.51586,-1.093272 0.94469,-0.451048 2.00097,-0.512474 2.98294,-0.830265 0.54179,-0.175337 1.05419,-0.431073 1.58307,-0.642165 1.6788,-0.670052 3.18663,-1.293424 4.7726,-2.168993 0.54044,-0.269023 1.08639,-0.527233 1.6213,-0.807067 0.54173,-0.283398 1.08322,-0.568611 1.60799,-0.882293 0.52487,-0.31374 2.06917,-1.303038 1.5388,-0.998693 -14.31384,8.213725 -57.11308,33.100605 -42.8915,24.728156 0.88234,-0.519446 116.97895,-67.5235914 2.81571,-1.632878 2.49515,-1.396363 4.87653,-2.908573 7.02054,-4.806657 0.4912,-0.692875 1.26529,-1.067122 1.86176,-1.640011 0.3008,-0.288915 0.55141,-0.625912 0.82711,-0.938866 0,0 48.17785,-20.784257 48.17785,-20.784257 v 0 c -0.78163,1.23384 -1.35781,2.601066 -2.54983,3.511878 -1.3077,1.31209 -2.77917,3.107225 -4.20499,4.228166 -0.38458,0.302353 -0.82658,0.523653 -1.23411,0.79428 -0.44417,0.294952 -0.88051,0.60153 -1.32077,0.902295 -15.30299,8.851894 -30.6579,17.61463 -45.90897,26.555686 -14.27666,8.369811 57.37298,-33.020148 42.98572,-24.841906 -15.35484,8.728247 -30.57043,17.699379 -45.88852,26.491964 -1.61131,0.924896 -3.40915,1.519669 -5.06187,2.360838 -3.32933,1.244422 -6.71226,2.308902 -10.07086,3.466544 -2.2477,0.752322 -4.53967,1.369208 -6.57823,2.61992 -0.78211,0.403992 -1.57762,0.782267 -2.35247,1.20002 -0.51404,0.277143 -2.02851,1.158418 -1.52306,0.865886 13.89665,-8.042761 27.81027,-16.056213 41.6967,-24.116609 0.77387,-0.449193 -1.58048,0.83996 -2.35817,1.28251 -0.86801,0.493956 -1.71874,1.017698 -2.57811,1.526545 -6.21915,3.768389 -12.6453,7.212174 -18.43858,11.63801 -1.85947,1.243788 -3.70058,2.515407 -5.57723,3.733099 -3.54032,2.297181 -7.15208,4.496906 -10.34522,7.284161 -0.83368,0.754314 -1.69228,1.481974 -2.50104,2.262939 -4.41577,4.263993 -8.17035,9.171019 -11.70466,14.17009 -1.619939,2.40978 -2.314476,3.38407 -3.81656,5.84832 -2.213036,3.6306 -4.227227,7.37828 -6.798416,10.7822 -0.46732,0.65131 -3.537215,4.94422 -4.001894,5.53278 -3.312414,4.19549 -7.136355,7.98272 -10.705979,11.95114 -5.962478,5.74284 -11.910914,11.49968 -17.908952,17.20542 -2.310183,2.15432 -4.59336,4.36416 -6.993837,6.41913 -0.68739,0.58845 -1.420064,1.12247 -2.109401,1.70864 -1.22777,1.04401 -2.36913,2.18702 -3.616957,3.20844 -1.400644,1.1927 -1.72556,1.48645 -3.104582,2.59951 -0.956122,0.77172 -2.123278,1.48439 -2.963576,2.39263 -0.146071,0.15788 -0.236329,0.35945 -0.354492,0.53918 0,0 -49.73979,19.96097 -49.73979,19.96097 z"
         id="path256"
         style="fill:#000000;stroke-width:0.26458332" />
      <path
         inkscape:connector-curvature="0"
         d="m 201.67737,50.576193 c 2.04224,4.477596 5.52999,8.038002 9.07539,11.359438 1.91858,1.906273 4.11993,3.504726 6.09615,5.345094 0.45999,0.428366 1.71466,1.782694 2.15967,2.257727 0.334,0.380235 0.69225,0.74046 1.00199,1.140703 0.6274,0.81072 1.30617,1.971236 1.86644,2.822816 1.20555,1.832329 2.33946,3.696176 3.4927,5.563065 2.67608,4.742299 6.10626,9.013899 9.8402,12.960459 3.1335,2.991291 5.69019,6.492329 8.51676,9.756715 3.93919,4.3278 8.43676,8.10911 13.19812,11.49742 2.09317,1.58873 4.39484,2.89137 6.75192,4.04492 0.5696,0.27875 1.17618,0.4798 1.73757,0.77469 1.08971,0.57238 1.86754,1.19006 2.85353,1.90706 1.93053,1.02719 3.60921,2.48468 5.50799,3.54917 1.44751,1.28319 2.47232,2.96075 3.62241,4.49697 0.75012,1.00193 1.54493,1.9696 2.31246,2.95825 0.3942,0.4545 0.79767,0.90114 1.18263,1.3635 1.19201,1.43173 1.0073,1.33174 2.19996,2.71662 0.94091,1.09255 1.96885,2.10158 2.92047,3.18488 1.33792,1.83081 2.76254,3.58571 4.09763,5.4188 0,0 -45.09143,26.71595 -45.09143,26.71595 v 0 c -1.32068,-1.75942 -2.70747,-3.46804 -4.05587,-5.20679 -1.84616,-2.55622 -3.69288,-5.10898 -5.64827,-7.58403 -1.87166,-2.15339 -3.76474,-4.30787 -6.34719,-5.62402 -1.57369,-1.40474 -3.28174,-2.64905 -4.83355,-4.07928 -3.2806,-2.55962 -6.41824,-5.29687 -9.7879,-7.74285 -4.76047,-3.8509 -9.60638,-7.61281 -13.95885,-11.93361 -3.29379,-3.07829 -6.65269,-6.18156 -9.17087,-9.95207 -3.01079,-4.5826 -6.30318,-8.97649 -9.72886,-13.25647 -2.38927,-2.79763 -4.81425,-5.562948 -7.15856,-8.398104 -2.3835,-2.692199 -4.62816,-5.495645 -6.92909,-8.258014 -2.7642,-3.220759 -6.0234,-6.931093 -9.76225,-9.025239 -0.39579,-0.221681 -0.83249,-0.360725 -1.24873,-0.541088 0,0 45.28743,-28.232682 45.28743,-28.232682 z"
         id="path258"
         style="fill:#000000;stroke-width:0.26458332" />
      <path
         inkscape:connector-curvature="0"
         d="m 266.89679,66.556118 c 0.63357,2.778385 1.46974,5.516126 2.53987,8.159904 0.67397,1.665094 1.46148,3.282272 2.15625,4.938802 1.50738,3.764164 3.22757,7.457355 4.47021,11.32064 0.91491,2.588117 1.68326,5.191016 2.12387,7.901969 0.31938,2.284517 0.621,4.570457 0.9716,6.851207 0,0 -46.69174,24.23987 -46.69174,24.23987 v 0 c 0.004,-2.2178 -0.14007,-4.42265 -0.6005,-6.59833 -0.3617,-2.57233 -1.08933,-5.05444 -1.74763,-7.5635 -0.63788,-3.84536 -1.58112,-7.66072 -2.84535,-11.3468 -1.58268,-3.93414 -3.28643,-8.158893 -6.48502,-11.067426 0,0 46.10844,-26.836336 46.10844,-26.836336 z"
         id="path260"
         style="fill:#000000;stroke-width:0.26458332" />
      <path
         inkscape:connector-curvature="0"
         d="m 247.35167,139.18682 c -0.28844,1.87216 -0.26702,3.7781 -0.40077,5.66744 -0.20138,3.37109 -0.41302,6.7503 -0.38481,10.12865 -0.0955,3.43772 0.1636,6.87088 0.1445,10.30727 -0.0515,1.47682 0.16429,2.95855 0.11489,4.43456 -0.0555,1.65961 -0.32434,3.34068 -0.47914,4.99346 -0.3745,3.79506 -0.46318,7.62013 -0.1981,11.42456 0.22338,2.63129 0.221,5.27228 0.16622,7.91008 -0.19264,3.14988 -0.12342,6.30623 -0.16737,9.45924 0.039,2.14993 0.11151,4.28972 -0.25308,6.41596 -0.13659,1.81065 -0.32806,3.59408 -0.75511,5.36005 -0.37297,1.24154 -0.41884,2.52641 -0.77484,3.77644 -0.26454,0.86266 -0.16613,1.77592 -0.27561,2.65455 -0.0189,0.15149 -0.3849,1.72908 -0.40439,1.81409 -0.26963,1.80863 -0.26848,3.6368 -0.26777,5.46025 -0.0666,1.54544 -0.34542,3.06388 -0.49342,4.60246 -0.17004,1.72196 -0.16825,3.45482 -0.1039,5.1822 0.0911,1.51897 0.0162,3.03708 0.001,4.55552 -0.07,1.5261 -0.0564,3.05203 -0.0623,4.57882 0,0 -47.18152,24.04072 -47.18152,24.04072 v 0 c -0.006,-1.50426 0.008,-3.00762 -0.0644,-4.51109 -0.0173,-1.52143 -0.0954,-3.04273 -0.005,-4.56501 0.0681,-1.79758 0.0729,-3.59644 0.0185,-5.39452 -0.005,-1.62498 -0.0234,-3.26995 0.37423,-4.85667 0.43696,-1.80944 0.20821,-3.72469 0.42779,-5.56671 -0.007,-0.33942 -0.0474,-1.39358 0.006,-1.78646 0.0236,-0.1733 0.12418,-0.32997 0.14896,-0.50311 0.10354,-0.72338 -0.0107,-1.47952 0.0901,-2.20456 0.0252,-0.72227 0.0941,-1.39157 0.29652,-2.08908 0.0541,-0.18651 0.16234,-0.35811 0.19212,-0.55001 0.0414,-0.26658 0.0125,-0.53939 0.0188,-0.80908 0.0395,-0.25367 0.0789,-0.50735 0.11841,-0.76103 0.16175,-0.72372 0.17755,-0.8774 0.41292,-1.58945 0.37321,-1.12909 0.97581,-2.15022 0.90237,-3.39301 0.14441,-2.1569 0.76757,-4.26071 0.94053,-6.42102 0.0418,-0.38962 0.28217,-2.57269 0.29747,-2.95664 0.0813,-2.04089 -0.11387,-4.09401 -0.16189,-6.13292 -0.0599,-2.71136 -0.0547,-5.42597 0.18639,-8.12986 0.29652,-3.88022 0.30962,-7.77502 0.21791,-11.66415 -0.004,-1.58321 -0.077,-3.19981 0.0433,-4.78052 0.10996,-1.44453 0.32516,-2.88285 0.24436,-4.34146 -0.0195,-3.48544 0.23875,-6.96782 0.1445,-10.45452 0.0269,-3.24776 -0.17374,-6.49686 -0.38482,-9.73651 -0.13371,-1.75261 -0.10004,-3.52823 -0.40076,-5.25904 0,0 47.71085,-24.30989 47.71085,-24.30989 z"
         id="path262"
         style="fill:#000000;stroke-width:0.26458332" />
      <path
         inkscape:connector-curvature="0"
         d="m 246.58469,15.373755 c -4.86592,4.51713 0.0815,-0.08667 13.52386,-11.2928545 0.21848,-0.1821201 -0.42683,0.3886139 -0.63929,0.5850647 -0.68464,0.6330026 -1.32508,1.289672 -1.95796,2.0268186 -0.93135,1.3036632 -1.36912,2.9591587 -1.63055,4.7503792 -0.16023,1.199597 0.17215,2.214848 0.66756,3.147514 0.6115,0.964536 1.2679,1.840192 1.7922,2.91254 0.59991,1.059075 1.26267,2.037905 1.92414,3.015167 0.70823,0.839944 1.41663,1.663683 2.15682,2.441079 0.91937,0.64656 1.59032,1.803263 2.29303,2.847158 0.85788,1.740387 1.25419,3.299651 1.30531,5.430039 -0.1356,1.935771 -0.63538,3.778326 -1.06229,5.612675 -0.19754,1.040862 -0.64843,1.891511 -1.00581,2.812555 -0.1856,0.478313 -0.33237,0.986179 -0.4992,1.478806 -0.71253,1.641383 -1.31401,3.372623 -1.95546,5.071856 -0.63502,1.607492 -1.51619,2.857775 -2.49632,4.009784 -6.13116,7.483327 -10.31153,9.291524 -15.9698,12.956768 0,0 13.1961,-15.171833 13.1961,-15.171833 v 0 c 5.21212,-3.38641 11.09319,-8.295005 -12.93568,10.973163 1.11794,-0.626002 2.07122,-1.688307 2.83287,-3.03044 0.84532,-1.456727 1.24944,-3.270342 1.95153,-4.866674 0.38721,-0.8377 0.42848,-1.239121 0.71153,-2.093124 0.18902,-0.570307 0.35303,-0.754584 0.5999,-1.266955 0.10441,-0.216717 0.19663,-0.445275 0.29496,-0.667914 0.54735,-1.558994 0.81487,-3.272385 1.28523,-4.882031 0.2161,-1.365615 -0.007,-2.511105 -0.63085,-3.592309 -0.6739,-0.954939 -1.38745,-1.788035 -2.19042,-2.506421 -0.7935,-0.864383 -1.55923,-1.793804 -2.27606,-2.788719 -0.71321,-1.048824 -1.43021,-2.100032 -2.04443,-3.276822 -0.59178,-1.036304 -1.3112,-1.898833 -1.85944,-2.989437 -0.64051,-1.463268 -1.2068,-3.020045 -1.19749,-4.801122 0.13227,-2.171486 0.54938,-4.299936 1.36412,-6.150487 0.16552,-0.360394 0.30269,-0.751856 0.49656,-1.081182 0.46848,-0.795764 1.19815,-1.536865 1.819,-2.064095 4.96953,-4.2201736 9.94809,-8.4179832 14.93139,-12.60388671 0.15285,-0.12839488 0.31727,-0.2253652 0.47591,-0.33804807 0,0 -13.27097,15.39298778 -13.27097,15.39298778 z"
         id="path264"
         style="fill:#000000;stroke-width:0.21972102" />
    </g>
  </g>
</svg>
