<?xml version="1.0" encoding="UTF-8" standalone="no"?>
<!-- Created with Inkscape (http://www.inkscape.org/) -->

<svg
   xmlns:dc="http://purl.org/dc/elements/1.1/"
   xmlns:cc="http://creativecommons.org/ns#"
   xmlns:rdf="http://www.w3.org/1999/02/22-rdf-syntax-ns#"
   xmlns:svg="http://www.w3.org/2000/svg"
   xmlns="http://www.w3.org/2000/svg"
   xmlns:sodipodi="http://sodipodi.sourceforge.net/DTD/sodipodi-0.dtd"
   xmlns:inkscape="http://www.inkscape.org/namespaces/inkscape"
   width="300mm"
   height="300mm"
   viewBox="0 0 300 300"
   version="1.1"
   id="svg8"
   inkscape:version="0.92.3 (2405546, 2018-03-11)"
   sodipodi:docname="home.svg">
  <defs
     id="defs2" />
  <sodipodi:namedview
     id="base"
     pagecolor="#ffffff"
     bordercolor="#666666"
     borderopacity="1.0"
     inkscape:pageopacity="0.0"
     inkscape:pageshadow="2"
     inkscape:zoom="0.48892506"
     inkscape:cx="566.92913"
     inkscape:cy="477.49405"
     inkscape:document-units="mm"
     inkscape:current-layer="layer1"
     showgrid="false"
     inkscape:window-width="1678"
     inkscape:window-height="1010"
     inkscape:window-x="0"
     inkscape:window-y="0"
     inkscape:window-maximized="1" />
  <metadata
     id="metadata5">
    <rdf:RDF>
      <cc:Work
         rdf:about="">
        <dc:format>image/svg+xml</dc:format>
        <dc:type
           rdf:resource="http://purl.org/dc/dcmitype/StillImage" />
        <dc:title></dc:title>
      </cc:Work>
    </rdf:RDF>
  </metadata>
  <g
     inkscape:label="Layer 1"
     inkscape:groupmode="layer"
     id="layer1"
     transform="translate(0,3)">
    <g
       id="g272">
      <path
         inkscape:connector-curvature="0"
         d="m 24.379525,286.88938 c 0.731292,-3.12272 0.614459,-6.36863 0.669592,-9.55506 0.0036,-3.04387 -0.255885,-6.07804 -0.192521,-9.12162 -0.150256,-2.39138 0.0703,-4.77514 0.218805,-7.15946 0.06936,-1.48441 -0.01637,-3.00215 0.226748,-4.47471 0.114393,-0.69287 0.295118,-1.37339 0.420387,-2.06438 0.878082,-2.60314 1.067883,-5.33486 1.218019,-8.05488 0.06552,-2.4627 -0.08641,-4.9217 -0.09055,-7.38329 0.08524,-1.88311 0.229153,-3.76757 0.521766,-5.63252 0.298321,-2.66019 1.23181,-5.18555 1.967839,-7.74202 0.125103,-0.41155 0.265329,-0.81881 0.375311,-1.23466 0.475038,-1.79616 0.162695,-1.05003 0.702929,-2.80451 0.417992,-1.35748 0.969828,-2.67691 1.464892,-4.00726 0.807128,-2.73883 2.011246,-5.32577 3.19441,-7.91605 0.938739,-2.02523 1.843847,-4.06479 2.680253,-6.1344 0.349848,-0.87693 0.67672,-1.78629 1.147411,-2.60993 0.366384,-0.64112 0.605761,-0.75886 0.899475,-1.50338 0.150431,-0.38132 0.219696,-0.78986 0.329546,-1.18479 0.469564,-2.91887 0.439161,-5.89825 0.551397,-8.8486 0.262202,-4.1454 0.326316,-8.29469 0.234259,-12.44615 -0.07198,-1.51571 -0.339391,-3.0099 -0.555286,-4.50884 0,0 46.495596,-24.07606 46.495596,-24.07606 v 0 c -0.0078,1.7339 -0.05131,3.46678 -0.05799,5.20075 -0.08017,4.07271 -0.01437,8.14243 0.263906,12.2079 0.108828,3.06208 0.10142,6.119 0.08267,9.18189 0.02903,1.26564 0.269301,2.66521 -0.05268,3.91071 -0.249402,0.96473 -0.872467,1.82681 -1.365412,2.67218 -1.013021,2.12871 -1.791501,4.37052 -2.946088,6.43622 -1.204052,2.45057 -2.43719,4.88082 -3.520045,7.38698 -0.412732,1.34848 -0.859417,2.67253 -1.384073,3.98233 -0.248671,0.62081 -0.761521,1.73878 -0.935931,2.3883 -0.126773,0.47211 -0.180192,0.96091 -0.270286,1.44136 -0.650531,2.24891 -1.254109,4.50847 -1.885516,6.75918 -0.07818,0.913 -0.254129,1.77853 -0.379116,2.6794 -0.154598,1.1143 0.01161,0.79039 -0.114406,1.91468 -0.03451,0.30788 -0.109672,0.60983 -0.164507,0.91474 -0.05251,0.28605 -0.32177,1.72349 -0.350697,2.00113 -0.186849,1.79342 -0.0074,3.60835 -0.200404,5.40192 -0.05068,2.87223 -0.126029,5.74799 -0.323969,8.61407 -0.311785,1.28191 -0.187322,0.62308 -0.365897,1.97787 -0.273931,1.28627 -0.920552,2.47039 -0.75334,3.84256 -0.06877,2.39016 -0.264197,4.76212 -0.667354,7.12169 0.06612,3.10861 -0.199445,6.20882 -0.192521,9.3178 0.05199,2.95185 -0.118094,6.00357 0.669592,8.87273 0,0 -47.56621,24.23618 -47.56621,24.23618 z"
         id="path254"
         style="fill:#000000;stroke-width:0.26458332" />
      <path
         inkscape:connector-curvature="0"
         d="m -12.099716,193.0794 c 0.309144,-0.18801 0.633101,-0.35359 0.927432,-0.56404 0.825123,-0.58996 1.5719938,-1.2826 2.3722274,-1.90591 1.7350991,-1.35147 3.5285579,-2.62889 5.2900648,-3.94548 4.8386518,-3.79624 9.6146515,-7.67345 14.2913668,-11.66754 6.478123,-5.5977 12.749672,-11.42223 18.887579,-17.38878 5.068363,-4.97926 9.635974,-10.43806 13.823307,-16.17033 3.826872,-5.47993 7.407656,-11.12451 11.136653,-16.66971 4.160917,-5.99169 8.524433,-11.8399 13.479018,-17.19881 4.553543,-4.8649 10.223942,-8.381977 15.754668,-11.999778 1.049001,-0.693031 2.102754,-1.378924 3.147007,-2.079093 2.491306,-1.670415 3.893666,-2.685476 6.411404,-4.323593 2.754471,-1.792142 5.579996,-3.475948 8.367939,-5.215091 16.20278,-10.374593 33.23963,-19.493894 49.87465,-29.05824 0.62762,-0.360852 1.29923,-0.639294 1.94321,-0.970063 2.77885,-1.427303 0.49394,-0.341371 3.05076,-1.520772 1.08062,-0.571643 2.27797,-0.649706 3.43739,-0.910185 1.1812,-0.265375 2.36229,-0.729962 3.51586,-1.093272 0.94469,-0.451048 2.00097,-0.512474 2.98294,-0.830265 0.54179,-0.175337 1.05419,-0.431073 1.58307,-0.642165 1.6788,-0.670052 3.18663,-1.293424 4.7726,-2.168993 0.54044,-0.269023 1.08639,-0.527233 1.6213,-0.807067 0.54173,-0.283398 1.08322,-0.568611 1.60799,-0.882293 0.52487,-0.31374 2.06917,-1.303038 1.5388,-0.998693 -14.31384,8.213725 -57.11308,33.100605 -42.8915,24.728156 0.88234,-0.519446 116.97895,-67.5235914 2.81571,-1.632878 2.49515,-1.396363 4.87653,-2.908573 7.02054,-4.806657 0.4912,-0.692875 1.26529,-1.067122 1.86176,-1.640011 0.3008,-0.288915 0.55141,-0.625912 0.82711,-0.938866 0,0 48.17785,-20.784257 48.17785,-20.784257 v 0 c -0.78163,1.23384 -1.35781,2.601066 -2.54983,3.511878 -1.3077,1.31209 -2.77917,3.107225 -4.20499,4.228166 -0.38458,0.302353 -0.82658,0.523653 -1.23411,0.79428 -0.44417,0.294952 -0.88051,0.60153 -1.32077,0.902295 -15.30299,8.851894 -30.6579,17.61463 -45.90897,26.555686 -14.27666,8.369811 57.37298,-33.020148 42.98572,-24.841906 -15.35484,8.728247 -30.57043,17.699379 -45.88852,26.491964 -1.61131,0.924896 -3.40915,1.519669 -5.06187,2.360838 -3.32933,1.244422 -6.71226,2.308902 -10.07086,3.466544 -2.2477,0.752322 -4.53967,1.369208 -6.57823,2.61992 -0.78211,0.403992 -1.57762,0.782267 -2.35247,1.20002 -0.51404,0.277143 -2.02851,1.158418 -1.52306,0.865886 13.89665,-8.042761 27.81027,-16.056213 41.6967,-24.116609 0.77387,-0.449193 -1.58048,0.83996 -2.35817,1.28251 -0.86801,0.493956 -1.71874,1.017698 -2.57811,1.526545 -6.21915,3.768389 -12.6453,7.212174 -18.43858,11.63801 -1.85947,1.243788 -3.70058,2.515407 -5.57723,3.733099 -3.54032,2.297181 -7.15208,4.496906 -10.34522,7.284161 -0.83368,0.754314 -1.69228,1.481974 -2.50104,2.262939 -4.41577,4.263993 -8.17035,9.171019 -11.70466,14.17009 -1.619939,2.40978 -2.314476,3.38407 -3.81656,5.84832 -2.213036,3.6306 -4.227227,7.37828 -6.798416,10.7822 -0.46732,0.65131 -3.537215,4.94422 -4.001894,5.53278 -3.312414,4.19549 -7.136355,7.98272 -10.705979,11.95114 -5.962478,5.74284 -11.910914,11.49968 -17.908952,17.20542 -2.310183,2.15432 -4.59336,4.36416 -6.993837,6.41913 -0.68739,0.58845 -1.420064,1.12247 -2.109401,1.70864 -1.22777,1.04401 -2.36913,2.18702 -3.616957,3.20844 -1.400644,1.1927 -1.72556,1.48645 -3.104582,2.59951 -0.956122,0.77172 -2.123278,1.48439 -2.963576,2.39263 -0.146071,0.15788 -0.236329,0.35945 -0.354492,0.53918 0,0 -49.73979,19.96097 -49.73979,19.96097 z"
         id="path256"
         style="fill:#000000;stroke-width:0.26458332" />
      <path
         inkscape:connector-curvature="0"
         d="m 201.67737,50.576193 c 2.04224,4.477596 5.52999,8.038002 9.07539,11.359438 1.91858,1.906273 4.11993,3.504726 6.09615,5.345094 0.45999,0.428366 1.71466,1.782694 2.15967,2.257727 0.334,0.380235 0.69225,0.74046 1.00199,1.140703 0.6274,0.81072 1.30617,1.971236 1.86644,2.822816 1.20555,1.832329 2.33946,3.696176 3.4927,5.563065 2.67608,4.742299 6.10626,9.013899 9.8402,12.960459 3.1335,2.991291 5.69019,6.492329 8.51676,9.756715 3.93919,4.3278 8.43676,8.10911 13.19812,11.49742 2.09317,1.58873 4.39484,2.89137 6.75192,4.04492 0.5696,0.27875 1.17618,0.4798 1.73757,0.77469 1.08971,0.57238 1.86754,1.19006 2.85353,1.90706 1.93053,1.02719 3.60921,2.48468 5.50799,3.54917 1.44751,1.28319 2.47232,2.96075 3.62241,4.49697 0.75012,1.00193 1.54493,1.9696 2.31246,2.95825 0.3942,0.4545 0.79767,0.90114 1.18263,1.3635 1.19201,1.43173 1.0073,1.33174 2.19996,2.71662 0.94091,1.09255 1.96885,2.10158 2.92047,3.18488 1.33792,1.83081 2.76254,3.58571 4.09763,5.4188 0,0 -45.09143,26.71595 -45.09143,26.71595 v 0 c -1.32068,-1.75942 -2.70747,-3.46804 -4.05587,-5.20679 -1.84616,-2.55622 -3.69288,-5.10898 -5.64827,-7.58403 -1.87166,-2.15339 -3.76474,-4.30787 -6.34719,-5.62402 -1.57369,-1.40474 -3.28174,-2.64905 -4.83355,-4.07928 -3.2806,-2.55962 -6.41824,-5.29687 -9.7879,-7.74285 -4.76047,-3.8509 -9.60638,-7.61281 -13.95885,-11.93361 -3.29379,-3.07829 -6.65269,-6.18156 -9.17087,-9.95207 -3.01079,-4.5826 -6.30318,-8.97649 -9.72886,-13.25647 -2.38927,-2.79763 -4.81425,-5.562948 -7.15856,-8.398104 -2.3835,-2.692199 -4.62816,-5.495645 -6.92909,-8.258014 -2.7642,-3.220759 -6.0234,-6.931093 -9.76225,-9.025239 -0.39579,-0.221681 -0.83249,-0.360725 -1.24873,-0.541088 0,0 45.28743,-28.232682 45.28743,-28.232682 z"
         id="path258"
         style="fill:#000000;stroke-width:0.26458332" />
      <path
         inkscape:connector-curvature="0"
         d="m 266.89679,66.556118 c 0.63357,2.778385 1.46974,5.516126 2.53987,8.159904 0.67397,1.665094 1.46148,3.282272 2.15625,4.938802 1.50738,3.764164 3.22757,7.457355 4.47021,11.32064 0.91491,2.588117 1.68326,5.191016 2.12387,7.901969 0.31938,2.284517 0.621,4.570457 0.9716,6.851207 0,0 -46.69174,24.23987 -46.69174,24.23987 v 0 c 0.004,-2.2178 -0.14007,-4.42265 -0.6005,-6.59833 -0.3617,-2.57233 -1.08933,-5.05444 -1.74763,-7.5635 -0.63788,-3.84536 -1.58112,-7.66072 -2.84535,-11.3468 -1.58268,-3.93414 -3.28643,-8.158893 -6.48502,-11.067426 0,0 46.10844,-26.836336 46.10844,-26.836336 z"
         id="path260"
         style="fill:#000000;stroke-width:0.26458332" />
      <path
         inkscape:connector-curvature="0"
         d="m 247.35167,139.18682 c -0.28844,1.87216 -0.26702,3.7781 -0.40077,5.66744 -0.20138,3.37109 -0.41302,6.7503 -0.38481,10.12865 -0.0955,3.43772 0.1636,6.87088 0.1445,10.30727 -0.0515,1.47682 0.16429,2.95855 0.11489,4.43456 -0.0555,1.65961 -0.32434,3.34068 -0.47914,4.99346 -0.3745,3.79506 -0.46318,7.62013 -0.1981,11.42456 0.22338,2.63129 0.221,5.27228 0.16622,7.91008 -0.19264,3.14988 -0.12342,6.30623 -0.16737,9.45924 0.039,2.14993 0.11151,4.28972 -0.25308,6.41596 -0.13659,1.81065 -0.32806,3.59408 -0.75511,5.36005 -0.37297,1.24154 -0.41884,2.52641 -0.77484,3.77644 -0.26454,0.86266 -0.16613,1.77592 -0.27561,2.65455 -0.0189,0.15149 -0.3849,1.72908 -0.40439,1.81409 -0.26963,1.80863 -0.26848,3.6368 -0.26777,5.46025 -0.0666,1.54544 -0.34542,3.06388 -0.49342,4.60246 -0.17004,1.72196 -0.16825,3.45482 -0.1039,5.1822 0.0911,1.51897 0.0162,3.03708 0.001,4.55552 -0.07,1.5261 -0.0564,3.05203 -0.0623,4.57882 0,0 -47.18152,24.04072 -47.18152,24.04072 v 0 c -0.006,-1.50426 0.008,-3.00762 -0.0644,-4.51109 -0.0173,-1.52143 -0.0954,-3.04273 -0.005,-4.56501 0.0681,-1.79758 0.0729,-3.59644 0.0185,-5.39452 -0.005,-1.62498 -0.0234,-3.26995 0.37423,-4.85667 0.43696,-1.80944 0.20821,-3.72469 0.42779,-5.56671 -0.007,-0.33942 -0.0474,-1.39358 0.006,-1.78646 0.0236,-0.1733 0.12418,-0.32997 0.14896,-0.50311 0.10354,-0.72338 -0.0107,-1.47952 0.0901,-2.20456 0.0252,-0.72227 0.0941,-1.39157 0.29652,-2.08908 0.0541,-0.18651 0.16234,-0.35811 0.19212,-0.55001 0.0414,-0.26658 0.0125,-0.53939 0.0188,-0.80908 0.0395,-0.25367 0.0789,-0.50735 0.11841,-0.76103 0.16175,-0.72372 0.17755,-0.8774 0.41292,-1.58945 0.37321,-1.12909 0.97581,-2.15022 0.90237,-3.39301 0.14441,-2.1569 0.76757,-4.26071 0.94053,-6.42102 0.0418,-0.38962 0.28217,-2.57269 0.29747,-2.95664 0.0813,-2.04089 -0.11387,-4.09401 -0.16189,-6.13292 -0.0599,-2.71136 -0.0547,-5.42597 0.18639,-8.12986 0.29652,-3.88022 0.30962,-7.77502 0.21791,-11.66415 -0.004,-1.58321 -0.077,-3.19981 0.0433,-4.78052 0.10996,-1.44453 0.32516,-2.88285 0.24436,-4.34146 -0.0195,-3.48544 0.23875,-6.96782 0.1445,-10.45452 0.0269,-3.24776 -0.17374,-6.49686 -0.38482,-9.73651 -0.13371,-1.75261 -0.10004,-3.52823 -0.40076,-5.25904 0,0 47.71085,-24.30989 47.71085,-24.30989 z"
         id="path262"
         style="fill:#000000;stroke-width:0.26458332" />
      <path
         inkscape:connector-curvature="0"
         d="m 246.58469,15.373755 c -4.86592,4.51713 0.0815,-0.08667 13.52386,-11.2928545 0.21848,-0.1821201 -0.42683,0.3886139 -0.63929,0.5850647 -0.68464,0.6330026 -1.32508,1.289672 -1.95796,2.0268186 -0.93135,1.3036632 -1.36912,2.9591587 -1.63055,4.7503792 -0.16023,1.199597 0.17215,2.214848 0.66756,3.147514 0.6115,0.964536 1.2679,1.840192 1.7922,2.91254 0.59991,1.059075 1.26267,2.037905 1.92414,3.015167 0.70823,0.839944 1.41663,1.663683 2.15682,2.441079 0.91937,0.64656 1.59032,1.803263 2.29303,2.847158 0.85788,1.740387 1.25419,3.299651 1.30531,5.430039 -0.1356,1.935771 -0.63538,3.778326 -1.06229,5.612675 -0.19754,1.040862 -0.64843,1.891511 -1.00581,2.812555 -0.1856,0.478313 -0.33237,0.986179 -0.4992,1.478806 -0.71253,1.641383 -1.31401,3.372623 -1.95546,5.071856 -0.63502,1.607492 -1.51619,2.857775 -2.49632,4.009784 -6.13116,7.483327 -10.31153,9.291524 -15.9698,12.956768 0,0 13.1961,-15.171833 13.1961,-15.171833 v 0 c 5.21212,-3.38641 11.09319,-8.295005 -12.93568,10.973163 1.11794,-0.626002 2.07122,-1.688307 2.83287,-3.03044 0.84532,-1.456727 1.24944,-3.270342 1.95153,-4.866674 0.38721,-0.8377 0.42848,-1.239121 0.71153,-2.093124 0.18902,-0.570307 0.35303,-0.754584 0.5999,-1.266955 0.10441,-0.216717 0.19663,-0.445275 0.29496,-0.667914 0.54735,-1.558994 0.81487,-3.272385 1.28523,-4.882031 0.2161,-1.365615 -0.007,-2.511105 -0.63085,-3.592309 -0.6739,-0.954939 -1.38745,-1.788035 -2.19042,-2.506421 -0.7935,-0.864383 -1.55923,-1.793804 -2.27606,-2.788719 -0.71321,-1.048824 -1.43021,-2.100032 -2.04443,-3.276822 -0.59178,-1.036304 -1.3112,-1.898833 -1.85944,-2.989437 -0.64051,-1.463268 -1.2068,-3.020045 -1.19749,-4.801122 0.13227,-2.171486 0.54938,-4.299936 1.36412,-6.150487 0.16552,-0.360394 0.30269,-0.751856 0.49656,-1.081182 0.46848,-0.795764 1.19815,-1.536865 1.819,-2.064095 4.96953,-4.2201736 9.94809,-8.4179832 14.93139,-12.60388671 0.15285,-0.12839488 0.31727,-0.2253652 0.47591,-0.33804807 0,0 -13.27097,15.39298778 -13.27097,15.39298778 z"
         id="path264"
         style="fill:#000000;stroke-width:0.21972102" />
    </g>
  </g>
</svg>
