<?xml version="1.0" encoding="UTF-8" standalone="no"?>
<!-- Created with Inkscape (http://www.inkscape.org/) -->

<svg
   xmlns:dc="http://purl.org/dc/elements/1.1/"
   xmlns:cc="http://creativecommons.org/ns#"
   xmlns:rdf="http://www.w3.org/1999/02/22-rdf-syntax-ns#"
   xmlns:svg="http://www.w3.org/2000/svg"
   xmlns="http://www.w3.org/2000/svg"
   xmlns:sodipodi="http://sodipodi.sourceforge.net/DTD/sodipodi-0.dtd"
   xmlns:inkscape="http://www.inkscape.org/namespaces/inkscape"
   width="300mm"
   height="300mm"
   viewBox="0 0 300 300"
   version="1.1"
   id="svg8"
   inkscape:version="0.92.3 (2405546, 2018-03-11)"
   sodipodi:docname="loan.svg">
  <defs
     id="defs2" />
  <sodipodi:namedview
     id="base"
     pagecolor="#ffffff"
     bordercolor="#666666"
     borderopacity="1.0"
     inkscape:pageopacity="0.0"
     inkscape:pageshadow="2"
     inkscape:zoom="0.48892506"
     inkscape:cx="566.92913"
     inkscape:cy="477.49405"
     inkscape:document-units="mm"
     inkscape:current-layer="layer1"
     showgrid="false"
     inkscape:window-width="1678"
     inkscape:window-height="1010"
     inkscape:window-x="0"
     inkscape:window-y="0"
     inkscape:window-maximized="1" />
  <metadata
     id="metadata5">
    <rdf:RDF>
      <cc:Work
         rdf:about="">
        <dc:format>image/svg+xml</dc:format>
        <dc:type
           rdf:resource="http://purl.org/dc/dcmitype/StillImage" />
        <dc:title></dc:title>
      </cc:Work>
    </rdf:RDF>
  </metadata>
  <g
     inkscape:label="Layer 1"
     inkscape:groupmode="layer"
     id="layer1"
     transform="translate(0,3)">
    <g
       id="g158"
       transform="translate(10.054167,-49.741692)">
      <path
         inkscape:connector-curvature="0"
         d="m 30.358281,94.660472 c 7.823602,5.711098 17.286586,8.580768 26.329274,11.730198 9.239343,3.33506 18.845525,5.61577 28.564729,7.01064 5.996675,0.86061 9.101743,1.03354 15.157686,1.54607 8.28926,0.77353 16.61286,0.79419 24.92512,1.01794 8.47103,0.22802 16.92938,0.68105 25.3865,1.19867 13.0419,0.82348 26.10487,1.21898 39.17161,1.12762 8.5054,-0.0514 17.0119,-0.11892 25.51347,-0.39228 5.97637,-0.15445 11.95483,-0.0592 17.90272,-0.7199 1.59551,-0.27888 3.22623,-0.23457 4.82719,-0.45624 0.30961,-0.0429 3.8821,-0.77312 4.24667,-0.83998 4.57255,-0.83849 -0.59253,0.19897 3.71159,-0.68539 1.70327,-0.4434 3.48857,-0.30223 5.21131,-0.57939 0.52322,-0.0842 1.02771,-0.25954 1.5443,-0.37779 1.66461,-0.38105 1.4138,-0.31047 3.09209,-0.55694 1.73499,-0.62572 3.5989,-0.5993 5.37967,-0.95839 3.57809,-0.72151 -1.48868,0.0454 2.09963,-0.45947 1.48939,0.12677 2.5509,-0.79519 3.85198,-1.29306 2.95365,-1.13023 -0.90445,0.45042 1.86071,-0.69904 0.91099,-0.16703 1.59594,-0.64361 2.30349,-1.19835 0,0 -41.56485,33.05209 -41.56485,33.05209 v 0 c -0.83209,0.18022 -1.6795,0.32162 -2.46441,0.66722 -0.94383,0.27323 -1.90154,0.64961 -2.87446,0.80491 -1.60284,0.25586 -0.82381,-0.009 -2.28456,0.1891 -0.34214,0.0464 -0.6772,0.13507 -1.01579,0.20261 -2.22393,0.42765 0.16179,0.0166 -2.07074,0.25639 -1.66326,0.17865 -3.283,0.6935 -4.96018,0.79115 -3.17903,0.55873 -6.4066,0.7076 -9.57735,1.3359 -4.09919,0.50582 -8.20539,0.88302 -12.33751,0.99729 -5.70618,0.0686 -11.41183,-0.16663 -17.11728,-0.24222 -8.00356,-0.28818 -16.01525,-0.36924 -24.00934,-0.89355 -12.09941,-0.9352 -24.17603,-2.08658 -36.2337,-3.46426 -6.77683,-0.58184 -9.20961,-0.86157 -16.07747,-1.1573 -11.482123,-0.49441 -22.986703,-0.28578 -34.463357,-0.94874 -2.659872,-0.21712 -5.324936,-0.37797 -7.979617,-0.65136 -4.947843,-0.50955 -10.425636,-1.28251 -15.302174,-2.28927 -6.305711,-1.30182 -8.181808,-2.02855 -14.335768,-3.83383 -2.442357,-0.71648 -4.888316,-1.42062 -7.332474,-2.13092 -5.506104,-1.55112 -8.44461,-2.42314 -13.9586474,-3.80506 -5.13588676,-1.28716 -10.5701205,-2.77412 -15.9326586,-2.48905 -0.764078,0.0406 -1.496856,0.31824 -2.245284,0.47737 0,0 43.057881,-31.283388 43.057881,-31.283388 z"
         id="path138"
         style="fill:#000000;stroke-width:0.26458332" />
      <path
         inkscape:connector-curvature="0"
         d="m 285.37241,115.41978 c -15.12628,11.33591 -0.60087,0.5073 -47.21985,27.17289 -0.82421,0.47144 -3.36301,1.76258 -2.54146,1.28652 57.15983,-33.12223 55.89038,-32.38228 40.43295,-23.23135 -4.4948,2.58991 -8.83341,5.4351 -12.90272,8.65308 -2.61368,2.24828 -5.07807,4.67283 -7.4,7.22033 -2.26342,2.35894 -4.34187,4.8795 -6.63197,7.21482 -2.32896,2.1456 -4.80285,4.10705 -7.37137,5.95279 -1.95188,1.26863 -3.68652,2.80147 -5.41374,4.35135 -1.02145,0.82007 -1.66509,2.00601 -2.7318,2.77748 -1.00976,0.59958 -0.52426,0.27656 -1.45761,0.9674 -0.74689,0.84182 -1.81077,1.30835 -2.58598,2.1068 -0.53949,0.55567 -0.73538,0.93634 -1.17382,1.60634 -0.19567,0.29569 -0.41331,0.57796 -0.58699,0.88708 -0.36125,0.64294 -0.60658,1.34536 -0.94806,1.99901 -0.60297,1.1542 -1.14717,2.24985 -1.61655,3.46918 -0.13351,0.33529 -0.26702,0.67058 -0.40053,1.00586 0,0 -47.85805,21.99555 -47.85805,21.99555 v 0 c 0.16864,-0.37087 0.33728,-0.74174 0.50592,-1.11261 0.58978,-1.18207 0.57787,-1.05822 1.00725,-2.33109 0.13477,-0.3995 0.21653,-0.81662 0.36752,-1.21028 0.41149,-1.0728 1.13895,-2.01705 1.35917,-3.16838 0.43978,-0.95641 0.80953,-1.93469 1.22898,-2.89975 0.14041,-0.32306 0.24305,-0.66763 0.43457,-0.96326 0.32734,-0.50527 0.91623,-0.80511 1.23144,-1.3212 0.43033,-0.47781 0.79414,-1.02123 1.27686,-1.44606 0.98286,-0.865 2.45003,-1.10655 3.19286,-2.28862 1.74265,-1.78118 3.54569,-3.52843 5.46589,-5.11265 2.59166,-1.9411 5.38144,-3.58848 7.89202,-5.64315 1.2374,-0.94511 2.45484,-1.89998 3.5213,-3.04255 0.59502,-0.63749 1.56831,-1.86922 2.10872,-2.53882 0.36196,-0.39201 0.77705,-0.7314 1.16558,-1.0971 1.13518,-1.25189 2.19866,-2.59882 3.36663,-3.81728 1.50434,-1.56936 3.23665,-2.91796 4.77409,-4.45302 3.86141,-3.4305 7.97812,-6.54589 12.35904,-9.29002 16.85873,-10.46663 1.28017,-0.82135 47.82571,-27.70888 0.57717,-0.3334 1.14967,-0.67512 1.73302,-0.99756 0.48917,-0.27038 1.96821,-1.05971 1.484,-0.78057 -14.76074,8.50896 -29.56504,16.94231 -44.31459,25.47065 -0.17276,0.0999 0.38106,-0.11869 0.5716,-0.17804 0,0 49.84997,-19.50489 49.84997,-19.50489 z"
         id="path140"
         style="fill:#000000;stroke-width:0.26458332" />
      <path
         inkscape:connector-curvature="0"
         d="m 236.47189,135.25785 c -4.36221,-3.83784 -9.65929,-6.30923 -14.94492,-8.5939 -1.04313,-0.39328 -2.09735,-0.75829 -3.12937,-1.17984 -1.02253,-0.41767 -2.00949,-0.91914 -3.03199,-1.33688 -3.27824,-1.33929 -6.67456,-2.40246 -10.06169,-3.42464 -0.72206,-0.16413 -1.45284,-0.29375 -2.16619,-0.49239 -1.46641,-0.40832 -2.89186,-0.95172 -4.34239,-1.4133 -2.20616,-0.70203 -4.43102,-1.33453 -6.63968,-2.02891 -2.30904,-0.53252 -4.59246,-1.18567 -6.91592,-1.6565 -2.58571,-0.52397 -2.16015,-0.2794 -4.74359,-0.93338 -0.78134,-0.19778 -1.54803,-0.44948 -2.32204,-0.67423 -2.95734,-0.81207 -5.86622,-1.82629 -8.88642,-2.39165 -1.59302,-0.29821 -2.28996,-0.34491 -3.87232,-0.51715 -2.65096,-0.28929 -5.31011,-0.0159 -7.96438,-0.0378 -1.55859,-0.0833 -3.13582,0.13886 -4.69251,0.013 -0.94682,-0.0765 -1.81258,-0.29575 -2.73853,-0.49472 -2.12561,-0.21922 -4.15877,-0.86594 -6.28857,-1.04227 -0.86104,0.0795 -1.63922,-0.0813 -2.47576,-0.23788 -0.99842,-0.18689 -1.0368,-0.067 -2.04775,-0.43539 -0.43341,-0.15794 -0.84301,-0.37481 -1.26451,-0.56221 -1.66405,-0.52537 -0.8294,-0.24327 -2.50325,-0.84831 0,0 43.46917,-29.551222 43.46917,-29.551222 v 0 c 1.49928,0.417928 0.72199,0.216874 2.33337,0.5974 2.02372,0.110832 4.07208,0.14659 6.05075,0.605071 1.80928,0.534897 3.64023,0.934111 5.52128,1.12354 2.43566,-0.0024 4.87158,-0.180743 7.30944,-0.05846 2.62172,0.06602 5.17781,0.644334 7.71824,1.269195 4.18981,1.091317 8.29139,2.498744 12.48975,3.563126 4.67309,1.090895 9.3976,2.010502 13.97864,3.45419 4.48938,1.240391 8.96541,2.530544 13.34826,4.111533 5.22206,2.09705 10.15037,4.798256 15.28577,7.09241 3.25195,1.529947 6.49032,3.094407 9.85569,4.365937 1.79279,0.67735 3.72851,1.34047 5.6279,1.68437 0.60642,0.1098 1.22761,0.11054 1.84144,0.1658 0,0 -43.79792,29.86541 -43.79792,29.86541 z"
         id="path142"
         style="fill:#000000;stroke-width:0.26458332" />
    </g>
    <g
       id="g164"
       transform="translate(10.054167,-67.73337)">
      <path
         inkscape:connector-curvature="0"
         d="m 239.80473,242.92835 c -0.69087,-0.34146 -1.53187,-0.77779 -2.24032,-1.00424 -0.62449,-0.19961 -1.27119,-0.32214 -1.91061,-0.46698 -3.1371,-0.71056 -6.27613,-1.10459 -9.46847,-1.48145 -9.98697,-0.95195 -20.02663,-0.89577 -30.0453,-1.11781 -9.90756,-0.22049 -19.81831,-0.16752 -29.72618,-0.008 -5.09305,0.16507 -10.21635,-0.052 -15.29831,0.41491 -1.37714,0.12651 -5.13465,0.69506 -6.48508,0.89255 -4.52954,0.53229 -8.91609,1.76655 -13.38243,2.62531 -2.37601,0.45684 -4.76157,0.86259 -7.14033,1.30491 -1.19448,0.1558 -2.387,0.32752 -3.58346,0.46742 -3.79982,0.44432 -3.36139,0.24897 -7.09446,0.87885 -1.11276,0.18776 -2.21294,0.44458 -3.32375,0.64361 -2.11874,0.37964 -4.3923,0.70688 -6.52083,1.02734 -6.408318,0.92803 -12.892519,1.17355 -19.358748,1.31023 -6.399996,0.10955 -12.799663,-0.006 -19.199201,-0.0587 -6.215399,-0.0697 -12.426082,0.16265 -18.639221,0.25704 -2.761499,0.002 -5.487231,0.44925 -8.21712,0.79859 -1.986396,0.2542 -0.761026,0.006 -2.536536,0.43894 -0.352668,0.0804 -0.704239,0.16567 -1.058005,0.24104 -0.75969,0.16184 -1.061255,0.14121 -1.743147,0.49021 -0.23972,0.1227 -0.43784,0.31597 -0.673859,0.44564 -0.70567,0.3877 -0.739894,0.32462 -1.532006,0.45887 -1.21403,0.49218 -2.536783,0.24008 -3.785571,0.46251 -0.597605,0.10644 -1.165766,0.3405 -1.755841,0.48289 -1.607977,0.24357 -3.224845,0.22543 -4.843543,0.20079 -1.634885,-0.0845 -3.268384,-0.0665 -4.902906,-0.15852 -2.646866,-0.12437 -5.296017,-0.18882 -7.9457712,-0.2195 -1.9932965,0.0478 -1.0185381,0.0149 -2.9243549,0.0961 0,0 42.4467051,-30.83823 42.4467051,-30.83823 v 0 c 1.708107,0.0831 0.821687,0.0492 2.659414,0.0972 2.8477,-0.0302 5.694725,-0.0959 8.54021,-0.20848 1.689405,-0.0803 3.38146,-0.0557 5.065631,-0.22114 1.412057,-0.13981 2.812558,-0.40729 4.18724,-0.75787 0.588851,-0.0911 1.187736,-0.10967 1.775449,-0.20784 1.240042,-0.20715 2.36397,-0.85635 3.582295,-1.14905 1.630568,-0.69137 3.41227,-0.48632 5.150392,-0.6336 3.203331,0.0494 6.406174,0.11105 9.604364,0.32917 5.962304,0.10168 11.92162,0.35296 17.88667,0.29022 6.46803,-0.044 12.93701,-0.11554 19.40336,-0.27142 6.29118,-0.22826 12.57943,-0.59821 18.79325,-1.6742 1.51985,-0.24354 4.90885,-0.79412 6.4493,-1.01151 4.57427,-0.64552 9.19519,-0.97419 13.72433,-1.92401 6.95397,-1.28341 13.81166,-3.08555 20.86122,-3.82234 3.00221,-0.3189 3.8639,-0.48311 6.87446,-0.51613 4.80214,-0.0527 9.60702,0.43435 14.41028,0.39082 9.53401,0.32526 19.06823,0.66103 28.6054,0.87807 10.49931,0.14625 20.99998,0.14018 31.49819,0.36082 6.2044,0.14589 2.54111,0.0402 8.28386,0.2457 2.516,0.09 5.14361,0.38675 7.65313,0.0258 0.40674,-0.0585 0.8005,-0.18618 1.20076,-0.27927 0,0 -43.32055,31.47422 -43.32055,31.47422 z"
         id="path144"
         style="fill:#000000;stroke-width:0.26458332" />
      <path
         inkscape:connector-curvature="0"
         d="m 39.462191,219.05413 c 0.952876,-0.92727 2.29449,-1.05896 3.453135,-1.5774 0.80641,-0.36084 1.546635,-0.85437 2.322624,-1.27667 1.149085,-0.70112 2.416643,-1.20779 3.564765,-1.90871 0.370369,-0.2261 0.697304,-0.51855 1.06693,-0.74587 0.380169,-0.2338 1.565174,-0.85833 1.178679,-0.63515 -14.57343,8.4153 -29.159977,16.80787 -43.739966,25.21181 3.171385,-1.60188 5.975562,-3.80059 8.959986,-5.70983 4.050995,-2.42731 7.956936,-5.08653 11.77192,-7.86735 2.640287,-1.89858 4.873712,-4.2881 7.435217,-6.27578 2.020178,-1.49375 3.974957,-3.06426 6.000157,-4.54919 2.828499,-1.93539 5.720019,-3.76872 8.507677,-5.76835 1.934972,-1.40978 3.870227,-2.82215 5.68238,-4.38829 1.059749,-0.77076 1.816833,-1.84545 2.748923,-2.74397 0.459446,-0.4429 0.971767,-0.82745 1.457891,-1.24089 1.606597,-1.00478 3.140178,-2.11518 4.606917,-3.31342 0,0 49.086644,-20.03597 49.086644,-20.03597 v 0 c -1.41404,1.39355 -2.86572,2.75199 -4.44454,3.95973 -1.68739,0.9347 -3.33281,1.89093 -4.59149,3.38703 -1.95745,1.884 -3.95082,3.72451 -6.204752,5.25798 -2.65339,1.92017 -5.229138,3.97552 -8.051599,5.64176 -0.714735,0.48602 -1.481759,0.89538 -2.175558,1.41084 -0.321923,0.23917 -0.580699,0.5552 -0.89658,0.8023 -1.000352,0.78253 -2.101821,1.45129 -3.078747,2.26943 -0.795594,0.56215 -1.646473,1.04332 -2.440882,1.60714 -2.144765,1.5222 -4.010353,3.41092 -6.102141,4.99991 -3.583741,2.91518 -7.368952,5.55633 -11.178791,8.16594 -1.52491,0.93838 -3.106769,1.81416 -4.568269,2.8514 -1.083511,0.76897 -1.385554,1.10014 -2.427161,1.90281 -0.366032,0.28206 -0.744744,0.54728 -1.117115,0.82093 -15.336518,8.84326 -30.673711,17.68535 -46.009553,26.52978 -1.9471677,1.12296 -4.0117469,2.03264 -6.0758622,2.92175 -2.1760783,0.80159 -0.4765615,0.21511 -2.7391771,0.88663 -1.72496379,0.51195 -3.4194766,1.13681 -5.2565426,0.83618 0,0 43.2548809,-31.42651 43.2548809,-31.42651 z"
         id="path146"
         style="fill:#000000;stroke-width:0.26458332" />
      <g
         id="g151">
        <path
           style="fill:#000000;stroke-width:0.26458332"
           id="path148"
           d="m 50.8046,225.47964 c -0.131595,0.34091 -0.382283,0.65751 -0.394787,1.02272 -0.120142,3.50938 3.168526,7.6709 5.353389,10.09753 0.859395,0.95449 1.824291,1.80843 2.736437,2.71265 2.71571,2.42366 5.713865,4.44586 8.789278,6.37002 2.337858,1.46271 4.640429,2.82877 7.122147,4.02958 0.592889,0.31415 1.171382,0.65711 1.778664,0.94243 0.493331,0.23178 1.024557,0.37621 1.518497,0.60669 0.427019,0.19925 2.687206,1.43949 3.067232,1.70035 0.575109,0.39476 1.080969,0.88286 1.642406,1.29683 0.593625,0.4377 1.213996,0.83791 1.820995,1.25687 3.526023,2.50891 0.647658,0.55014 4.371848,2.83808 2.335329,1.43471 2.366343,1.62305 4.797118,2.85654 1.787234,0.90693 2.464959,1.11188 4.272045,1.79472 0.55781,0.16163 1.114962,0.32554 1.673436,0.48484 0.491805,0.14031 0.993165,0.24937 1.477365,0.41397 1.79063,0.60878 3.46279,1.50199 5.26108,2.09598 0.36272,0.0881 0.72544,0.17626 1.08816,0.2644 0,0 -43.698154,29.44637 -43.698154,29.44637 v 0 c -0.346403,-0.17356 -0.692803,-0.3471 -1.039206,-0.52067 -2.626427,-1.29289 -5.428121,-2.25867 -7.855395,-3.92353 -4.263879,-2.93267 -8.703802,-5.57655 -13.309235,-7.94171 -3.443197,-1.79181 -7.09097,-3.31197 -10.044456,-5.89396 -4.836162,-4.13922 -9.893684,-8.02318 -14.504701,-12.42261 -4.94334,-4.66896 -9.8401312,-9.49115 -13.41805,-15.32874 0,0 47.493887,-24.19935 47.493887,-24.19935 z"
           inkscape:connector-curvature="0" />
      </g>
    </g>
  </g>
</svg>
