<?xml version="1.0" encoding="UTF-8" standalone="no"?>
<!-- Created with Inkscape (http://www.inkscape.org/) -->

<svg
   xmlns:dc="http://purl.org/dc/elements/1.1/"
   xmlns:cc="http://creativecommons.org/ns#"
   xmlns:rdf="http://www.w3.org/1999/02/22-rdf-syntax-ns#"
   xmlns:svg="http://www.w3.org/2000/svg"
   xmlns="http://www.w3.org/2000/svg"
   xmlns:sodipodi="http://sodipodi.sourceforge.net/DTD/sodipodi-0.dtd"
   xmlns:inkscape="http://www.inkscape.org/namespaces/inkscape"
   width="300mm"
   height="300mm"
   viewBox="0 0 300 300"
   version="1.1"
   id="svg8"
   inkscape:version="0.92.3 (2405546, 2018-03-11)"
   sodipodi:docname="profile.svg">
  <defs
     id="defs2" />
  <sodipodi:namedview
     id="base"
     pagecolor="#ffffff"
     bordercolor="#666666"
     borderopacity="1.0"
     inkscape:pageopacity="0.0"
     inkscape:pageshadow="2"
     inkscape:zoom="0.48892506"
     inkscape:cx="566.92913"
     inkscape:cy="477.49405"
     inkscape:document-units="mm"
     inkscape:current-layer="layer1"
     showgrid="false"
     inkscape:window-width="1678"
     inkscape:window-height="1010"
     inkscape:window-x="0"
     inkscape:window-y="0"
     inkscape:window-maximized="1" />
  <metadata
     id="metadata5">
    <rdf:RDF>
      <cc:Work
         rdf:about="">
        <dc:format>image/svg+xml</dc:format>
        <dc:type
           rdf:resource="http://purl.org/dc/dcmitype/StillImage" />
        <dc:title></dc:title>
      </cc:Work>
    </rdf:RDF>
  </metadata>
  <g
     inkscape:label="Layer 1"
     inkscape:groupmode="layer"
     id="layer1"
     transform="translate(0,3)">
    <g
       id="g318"
       transform="translate(-5.8208336,-2.1166667)">
      <path
         inkscape:connector-curvature="0"
         d="m 14.037858,243.34867 c 0.241041,-0.16756 0.517245,-0.29343 0.723123,-0.5027 0.153862,-0.1564 1.438431,-1.97246 1.513833,-2.07379 0.903498,-1.21426 1.83772,-2.40487 2.797559,-3.57476 2.062358,-2.90587 4.304267,-5.67468 6.37372,-8.57575 2.261264,-3.27179 4.562573,-6.51625 6.743795,-9.84247 2.083747,-3.02187 3.967416,-6.19299 5.698627,-9.43003 1.482389,-3.0037 3.19821,-5.88666 5.005073,-8.70495 2.060361,-3.02527 4.287536,-5.92702 6.628918,-8.73845 1.728915,-1.8322 3.304712,-3.81509 5.123371,-5.55967 2.435598,-2.052 4.858038,-4.11295 7.395464,-6.04076 3.227601,-2.39792 6.616356,-4.54751 10.047139,-6.63807 17.104188,-10.64222 34.63417,-20.24404 52.19625,-30.38248 1.71865,-1.05368 3.64678,-1.60138 5.55891,-2.17756 0.49208,-0.14828 1.00396,-0.23092 1.48812,-0.40329 0.4829,-0.17193 0.93624,-0.41767 1.40435,-0.6265 1.00646,-0.31551 1.91288,-0.87601 2.8994,-1.23819 0.49835,-0.18296 1.02549,-0.27849 1.52676,-0.45333 1.47154,-0.51328 2.8926,-1.21372 4.33735,-1.79793 3.23878,-1.43036 6.43791,-2.94346 9.70056,-4.32018 2.90503,-1.15829 5.97434,-1.92585 9.05067,-2.48671 0.45145,-0.0586 0.91022,-0.0758 1.35437,-0.1757 0.40749,-0.0916 0.7848,-0.28989 1.18872,-0.39615 1.89046,-0.49731 3.88393,-0.54474 5.82446,-0.58873 3.22413,-0.18692 6.45012,-0.0982 9.67617,-0.0628 0.5832,0.0106 1.16635,0.0249 1.74961,0.0319 1.97922,0.0238 1.66813,-0.0502 3.67747,0.17186 1.92394,0.21262 3.81688,0.61435 5.73267,0.88654 3.35705,0.82631 6.71422,1.6861 10.12435,2.26994 2.55033,0.12157 4.96646,0.91274 7.42647,1.49922 4.41955,1.05364 -0.59112,-0.30378 3.95938,0.97309 0.6444,0.14553 1.29499,0.266 1.93321,0.4366 0.65087,0.17399 1.28257,0.41415 1.93119,0.59637 2.21159,0.6213 4.46041,1.08379 6.68544,1.64859 2.23574,0.97474 4.68337,0.835 7.0153,1.2898 2.40272,0.78658 4.86889,1.32119 7.31019,1.96639 2.49393,1.01307 5.09097,1.81904 7.71661,2.41706 1.51274,0.45229 3.10191,0.10519 4.63382,0.25581 0.34352,0.0338 0.67846,0.12764 1.01769,0.19147 0.58336,0.21265 1.23135,0.0487 1.8212,0.20817 0.39237,0.10607 0.74488,0.32776 1.12897,0.46075 1.11643,0.38659 2.21666,0.71247 3.33889,1.12726 1.80796,0.70479 3.6857,1.25205 5.45941,2.04493 3.20693,1.43356 -0.34922,0.0297 2.75465,1.21137 2.46135,1.3971 5.12677,2.29619 7.74511,3.33046 2.25703,0.92877 4.48609,1.98088 6.41286,3.48968 0.93689,0.91172 1.98319,1.76193 2.78165,2.80752 1.05354,1.37961 1.89545,2.97389 2.80474,4.44961 1.73929,3.36014 3.58529,6.65373 4.96186,10.18413 0.18616,0.48985 0.40378,0.96886 0.55849,1.46953 0.14335,0.46393 0.55888,2.36507 0.69678,2.9256 0.33456,1.35971 0.68646,2.68918 0.94419,4.06681 0.55935,2.4693 0.5693,4.9899 0.69858,7.50203 0.0167,2.06089 0.16968,4.10455 0.12798,6.16531 -0.0374,1.64418 -0.0124,3.30278 0.28704,4.92163 0.32168,1.73888 0.67326,3.48005 0.87868,5.23878 0.47416,2.19339 0.92618,4.39128 1.33298,6.59964 0.14136,1.22061 0.0747,0.62335 0.20063,1.7917 0,0 -47.19002,24.30709 -47.19002,24.30709 v 0 c 0.0265,-1.06254 0.0215,-0.52644 0.014,-1.60829 0.007,-2.00975 -0.15461,-4.02022 -0.84319,-5.9271 -0.60633,-1.74944 -0.85386,-3.59417 -1.15138,-5.41992 -0.13406,-0.64482 -0.34174,-1.27337 -0.46473,-1.92039 -0.24954,-1.31278 -0.17298,-2.65621 -0.19507,-3.98236 -0.033,-2.07069 0.13893,-4.1259 0.12124,-6.1967 0.0557,-2.30158 -0.0349,-4.61242 -0.1772,-6.90881 -0.34681,-2.64931 -0.98385,-5.22946 -1.43195,-7.86074 -0.94397,-3.26589 -2.26731,-6.41282 -4.34857,-9.13233 -1.40606,-2.15026 -2.89996,-3.7178 -5.10694,-5.05209 -1.81263,-0.99499 -3.63158,-1.98252 -5.56105,-2.73861 -2.53976,-1.09613 -4.97925,-2.40365 -7.54871,-3.43275 -2.59437,-1.12654 -5.29797,-2.01705 -8.05649,-2.64716 -1.07366,-0.22159 -2.25076,-0.57186 -3.34997,-0.6565 -0.32529,-0.0251 -0.65239,0.0456 -0.97828,0.0304 -0.009,-5.2e-4 -1.72195,-0.21163 -1.83216,-0.22521 -2.0528,-0.0528 -4.02713,-0.5983 -5.92537,-1.36856 -2.42755,-0.88016 -4.87812,-1.76993 -7.40776,-2.30094 -2.41777,-0.51678 -4.79485,-1.2504 -7.26147,-1.50718 -2.44933,-0.30699 -4.69373,-1.28912 -7.03335,-2.03186 -3.28589,-1.03399 -6.54328,-2.16351 -9.90709,-2.93143 -1.94397,-0.42299 -3.8849,-0.88552 -5.8502,-1.20172 -1.85895,-0.29908 -1.88249,-0.21553 -3.77572,-0.49921 -0.63438,-0.0951 -1.26432,-0.21774 -1.89648,-0.32661 -1.70225,-0.35801 -3.39311,-0.73275 -5.08133,-1.15193 -0.10756,-0.0267 -2.98363,-0.74031 -3.06477,-0.75566 -0.57604,-0.10894 -1.16136,-0.16126 -1.74204,-0.24188 -3.59418,-0.53426 -7.20806,-0.48824 -10.83367,-0.36636 -3.17143,0.0705 -6.35213,0.18469 -9.50181,0.57848 -2.76266,0.52594 -5.46706,1.29053 -8.21994,1.84443 -2.71738,0.77537 -5.41168,1.61191 -7.95448,2.86673 -3.28616,1.49759 -6.57055,3.00345 -9.92863,4.33505 -2.961487,1.22529 -5.983372,2.29122 -8.953143,3.4971 -2.883292,0.94629 -5.547201,2.28374 -8.094054,3.93623 14.108314,-8.14956 56.618787,-32.26839 42.326407,-24.44613 -0.4259,0.23309 -0.87351,0.42582 -1.29437,0.66789 -1.43288,0.82419 -2.70189,1.90765 -4.20627,2.61318 -1.13636,0.66689 -2.29912,1.28849 -3.42985,1.96491 -0.58132,0.34775 -1.12832,0.75132 -1.71332,1.09285 -0.581,0.33919 -1.20475,0.60209 -1.78195,0.9477 -1.15762,0.69315 -2.20831,1.55518 -3.37305,2.23773 -2.28889,1.57516 -4.56822,3.16513 -6.48856,5.1848 -0.91337,0.72392 -1.90714,1.37712 -2.7949,2.12888 -1.184307,1.00289 -2.198413,2.2013 -3.355645,3.23357 -2.562127,2.51031 -4.983882,5.13527 -7.016077,8.10364 -1.947802,2.58964 -3.499168,5.40461 -5.20432,8.1531 -1.839444,3.41806 -3.828288,6.74391 -5.786774,10.09538 -2.303399,3.18558 -4.289856,6.58735 -6.626899,9.75016 -1.882077,2.92252 -3.829257,5.79114 -5.949056,8.54554 -0.743341,1.1906 -1.561158,2.30409 -2.374238,3.44676 -0.247537,0.34788 -0.928003,1.15019 -1.097159,1.60229 -0.09211,0.24619 -0.08078,0.51948 -0.121168,0.77922 0,0 -49.285881,21.0568 -49.285881,21.0568 z"
         id="path312"
         style="fill:#000000;stroke-width:0.26458332" />
      <path
         inkscape:connector-curvature="0"
         d="m 129.57669,59.243377 c -2.02508,-0.16555 -4.06653,-0.01275 -6.09825,0.0054 -1.88048,2.64e-4 -3.76291,0.155516 -5.64263,0.09337 -0.27969,-2.62e-4 -0.56189,-0.03816 -0.83907,-7.93e-4 -0.52034,0.07017 -1.01299,0.282395 -1.52967,0.375798 -0.76424,0.138157 -1.5303,0.212063 -2.30366,0.271859 -0.5186,0.361344 -1.10292,0.527415 -1.72276,0.608899 -0.20541,0.027 -0.43947,-0.05205 -0.61948,0.05052 -0.17356,0.09891 -0.20306,0.347567 -0.33786,0.495006 -0.15055,0.164661 -0.34033,0.288597 -0.51049,0.432895 -13.397949,11.971732 -1.22782,1.02647 44.16727,-25.237032 0.27523,-0.159229 -0.59432,0.229195 -0.87813,0.372555 -0.81752,0.412945 -1.53616,0.989883 -2.25161,1.552736 -1.7224,1.378117 -3.30174,2.915356 -4.84824,4.483878 -1.21523,1.374907 -2.39098,2.731788 -3.19411,4.390562 -1.17553,1.480156 -1.50916,3.318846 -2.1069,5.060391 -0.49028,2.410254 -1.49039,4.666126 -1.95427,7.076766 -0.31503,1.679863 -0.93174,3.285709 -1.37522,4.937365 -0.28571,1.893848 -1.16982,3.601292 -1.67386,5.439963 -0.46144,1.951048 -1.01394,3.880671 -1.45931,5.836179 -0.58982,1.870015 -1.33343,3.680005 -1.66641,5.623058 -0.27728,1.460386 -0.24098,2.952392 -0.21588,4.431339 -0.0563,1.383223 -0.0586,2.765981 -0.0195,4.149725 -0.0924,1.5626 -0.0793,3.133265 -0.0336,4.698005 0.0303,1.177341 0.0403,2.355647 -0.0231,3.530502 0.0336,0.08329 0.0595,0.175954 0.15354,0.220729 0.0489,0.02328 0.1123,-0.01976 0.1625,5.29e-4 0.40276,0.16338 1.90661,1.852814 2.06394,2.011749 2.03923,1.72351 4.28447,3.17194 6.75373,4.19729 0.8749,0.3633 1.77941,0.65077 2.66785,0.97958 0.37984,0.14006 0.77518,0.24371 1.13953,0.42019 1.43196,0.69361 2.75358,1.68785 4.1185,2.49901 1.55266,0.92274 1.34488,0.77574 2.94737,1.4925 2.80338,1.2945 5.11325,3.4135 7.75193,4.97761 0.57279,0.33954 1.18103,0.61537 1.77155,0.92305 3.00655,1.24286 6.14982,2.143 9.05607,3.61148 3.39332,1.64992 6.73636,3.4286 10.36984,4.4889 1.87557,0.81855 3.79998,0.97593 5.80824,0.891 1.75689,-0.0836 3.51596,-0.10094 5.27478,-0.10284 1.63281,-0.81535 3.319,-1.55187 5.14916,-1.73862 0.26962,-0.0767 0.54396,-0.13842 0.80885,-0.23012 1.40748,-0.48724 0.17881,-0.19744 1.68312,-0.58934 0.2926,-0.0762 0.59014,-0.13211 0.88521,-0.19816 0.30414,-0.0241 0.61705,0.004 0.91241,-0.0722 0.27186,-0.0704 0.50749,-0.24059 0.76124,-0.36088 1.29817,-0.72028 2.79461,-0.91345 4.21445,-1.26641 0.78413,-0.19493 1.55303,-0.44723 2.33454,-0.65243 0.93209,-0.57931 1.90731,-1.03563 2.9891,-1.2472 0.3508,-0.0686 0.71472,-0.061 1.06294,-0.14165 0.61089,-0.14153 1.19258,-0.39034 1.79881,-0.55064 3.39429,-0.6311 -1.45306,0.31622 1.58213,-0.41704 0.27502,-0.0665 0.5679,-0.0438 0.8402,-0.12063 0.25551,-0.0721 0.47484,-0.24357 0.72844,-0.32221 1.69149,-0.52451 0.0301,0.27285 1.60431,-0.57381 0.33003,-0.0917 0.6641,-0.16996 0.99009,-0.27511 0.3389,-0.10933 0.65854,-0.27745 1.00298,-0.36781 0.77783,-0.20405 1.5971,-0.218 2.37593,-0.4182 0.65032,-0.16717 1.36904,-0.50377 1.98409,-0.76874 0.34201,-0.088 0.68225,-0.18328 1.02603,-0.26412 1.09855,-0.25834 0.89075,-0.12898 1.91546,-0.51106 0.92695,-0.34562 1.80655,-0.80065 2.72982,-1.1589 0.34753,-0.15011 0.68196,-0.33518 1.04258,-0.45031 0.40128,-0.12811 0.83459,-0.13985 1.23313,-0.27622 1.39544,-0.47746 3.05897,-1.61052 4.28891,-2.43882 2.74063,-1.46778 -0.74597,0.34821 1.98597,-0.91574 0.3158,-0.14611 0.61987,-0.31774 0.91684,-0.49908 0.28442,-0.17368 1.114,-0.73068 0.82508,-0.56461 -45.54154,26.17704 -60.04948,32.77063 -43.60943,25.26086 1.02136,-0.48823 2.10702,-1.03711 2.85222,-1.92354 0.31541,-0.3752 0.55096,-0.81091 0.83404,-1.21106 0.1542,-0.22047 0.3327,-0.4258 0.46259,-0.66142 0.30498,-0.55325 0.50428,-1.15865 0.77194,-1.73088 0.33588,-0.71808 0.71935,-1.39652 1.02311,-2.12884 0.6838,-1.91545 1.19881,-3.83865 1.42003,-5.86376 0.21596,-2.7985 0.22515,-5.60945 0.29366,-8.41491 0.0298,-2.66935 -0.0918,-5.33352 -0.15868,-8.00072 -0.2729,-2.525706 -0.90167,-4.981619 -1.55571,-7.429231 -0.91171,-2.797318 -1.56167,-5.696405 -2.86778,-8.343792 -1.12866,-2.286243 -2.02494,-4.664009 -2.90501,-7.053429 -0.72067,-2.151306 -1.71949,-4.177001 -2.7744,-6.179772 -1.04414,-1.909376 -2.12855,-3.755438 -3.53034,-5.42844 -1.57625,-1.777077 -3.19487,-3.515138 -4.75192,-5.311103 -1.37137,-1.564093 -2.80342,-3.058208 -4.31902,-4.48668 -0.66566,-0.538192 -1.08345,-0.945277 -1.85916,-1.312693 -0.67852,-0.321384 -1.03317,-0.288875 -1.75638,-0.442159 -2.10754,-0.44669 0.0998,-0.07544 -2.09762,-0.413491 -2.65486,-0.689795 -5.2157,-1.728742 -7.87527,-2.427448 -0.9978,-0.34656 -2.06916,-0.253604 -3.09081,-0.407451 -0.31912,-0.04806 -0.62448,-0.164483 -0.9407,-0.228941 -0.27501,-0.05606 -0.56499,-0.04439 -0.83153,-0.132302 -0.35331,-0.116533 -0.67329,-0.31672 -1.00993,-0.475078 -2.13082,-0.577088 -4.27828,-1.100513 -6.48588,-1.266029 -1.50115,-0.07844 -3.00006,0.06254 -4.49993,0.0924 -1.35651,0.06137 -2.71337,0.04075 -4.07054,0.05682 -1.34357,-0.01659 -2.68849,0.02392 -4.03194,-0.0061 -0.90214,0.0029 -1.80357,0.0095 -2.7055,-7.94e-4 -0.23017,-0.0026 -0.46385,0.03904 -0.69056,-7.94e-4 -0.28632,-0.05032 -0.5536,-0.177665 -0.8304,-0.266499 -0.24137,-0.05685 -0.4913,-0.08517 -0.72413,-0.170537 -0.27674,-0.101462 -0.52202,-0.276103 -0.7953,-0.38654 -0.8007,-0.323575 -1.66915,-0.364363 -2.51946,-0.371856 -0.98101,0.0024 -1.96201,0.0086 -2.94284,0.02797 0,0 43.05482,-31.090643 43.05482,-31.090643 v 0 c 1.13837,0.08625 2.27887,0.166048 3.39751,0.410044 1.3074,0.32815 2.5584,0.870245 3.91976,0.686589 1.26522,-0.334194 2.6195,-0.05635 3.91593,-0.139261 1.34687,-0.02958 2.69499,0.0065 4.04196,-0.01682 1.36402,0.0088 2.72808,-0.02879 4.09074,0.05798 1.60486,0.08051 3.20162,0.342144 4.74763,0.783802 2.21018,0.631162 4.41625,1.264045 6.67236,1.717278 1.98538,0.153449 3.85372,0.808938 5.68282,1.579231 2.55015,0.9198 5.1717,1.606182 7.8242,2.151991 0.67115,0.231259 1.93997,0.64594 2.5784,0.956934 1.69751,0.826902 3.0553,2.13809 4.47278,3.351242 1.7847,1.536496 3.60405,3.078456 4.84701,5.104995 1.46032,1.923111 3.3677,3.457921 4.8028,5.410692 1.4679,1.985401 2.89623,4.006048 4.04956,6.195766 1.18158,2.199627 2.0224,4.518771 2.99784,6.815461 0.89717,2.293186 1.63134,4.639339 2.53706,6.929466 0.33052,0.814007 0.90833,2.210586 1.19539,3.028119 0.6824,1.943463 1.09477,3.976505 1.89941,5.878513 1.21014,3.433447 -0.0656,-0.319141 0.88186,2.851515 0.52987,1.773168 1.26863,3.493719 1.41407,5.36354 0.0786,0.500132 0.19621,0.995678 0.23585,1.500397 0.0497,0.633283 -0.0675,2.039707 -0.0889,2.658425 -0.0518,1.492755 -10e-4,2.985899 -0.0307,4.478909 0.0683,2.842508 0.0924,5.683067 0.0908,8.52656 1.8e-4,2.228829 0.23249,4.522301 -0.4236,6.686984 -0.0685,0.35398 -0.31604,1.67684 -0.41559,2.01107 -0.35301,1.18521 -1.14765,2.19767 -1.32033,3.44025 -0.84001,2.13288 0.18986,-0.39009 -0.77485,1.69072 -0.62061,1.33859 -1.13757,2.72672 -2.12726,3.85983 -13.05751,13.43316 -0.71234,0.86339 -46.77109,27.3501 -0.5746,0.33044 -1.23281,0.49413 -1.81866,0.80419 -0.31146,0.16484 -0.60471,0.362 -0.90707,0.543 -0.28571,0.15013 -0.57143,0.30027 -0.85714,0.4504 -0.26442,0.10766 -1.97984,0.80853 -2.20822,0.89105 -0.82889,0.29947 -1.69701,0.48504 -2.51957,0.80148 -0.39276,0.15109 -0.76243,0.35646 -1.14364,0.53469 -0.38664,0.14143 -0.77327,0.28286 -1.1599,0.42428 -1.94283,0.71302 -3.98269,1.04041 -5.92095,1.76902 -0.69319,0.14804 -1.39743,0.24813 -2.08257,0.42985 -1.45823,0.38677 -2.81288,1.12127 -4.26546,1.53264 -1.70318,0.34659 -3.37737,0.83271 -5.05506,1.28371 -0.55975,0.16273 -1.14017,0.25323 -1.69303,0.43805 -1.29555,0.4331 -2.46447,1.24801 -3.88982,1.27521 -0.74731,0.21338 -1.50423,0.39457 -2.24428,0.63196 -1.12206,0.35993 -2.20544,0.86834 -3.33319,1.20791 -0.36819,0.11086 -0.74863,0.17604 -1.12294,0.26407 -0.36427,0.0556 -0.73481,0.0794 -1.09283,0.16668 -0.25818,0.0629 -0.49479,0.19442 -0.74589,0.28139 -1.14541,0.39674 -2.32422,0.63679 -3.51436,0.85416 -1.83129,0.68186 -3.76323,1.04913 -5.71588,0.724 -1.91891,0.009 -3.85422,0.0257 -5.74514,-0.34601 -2.11586,-0.52893 -4.04391,-1.46791 -5.93224,-2.54932 -3.24428,-1.76953 -6.53859,-3.46698 -10.06227,-4.62072 -0.60132,-0.18461 -1.211,-0.34396 -1.80398,-0.55384 -2.63619,-0.93303 -5.02718,-2.46882 -7.44356,-3.84083 -3.15915,-2.02672 -6.49271,-3.73188 -9.83767,-5.42648 -1.425,-0.86091 -2.85834,-1.68644 -4.38093,-2.36707 -0.92766,-0.41468 -1.90382,-0.71469 -2.83128,-1.12981 -0.41373,-0.18518 -0.80524,-0.41648 -1.20785,-0.62472 -3.173437,-1.99254 -5.998571,-4.53733 -9.45577,-6.07592 -0.193929,-0.0926 -2.648032,-1.24827 -2.975864,-1.4575 -1.212432,-0.7738 -1.900359,-2.13112 -2.468359,-3.39628 -0.243993,-0.72952 -0.419161,-1.10656 -0.492612,-1.86704 -0.09045,-0.93642 0.08522,-1.9114 0.03151,-2.85058 0.04316,-1.54694 0.05977,-3.10072 -0.04238,-4.64485 0.03117,-1.39924 0.01437,-2.79641 -0.03375,-4.19504 0.05769,-1.75378 0.17807,-3.50367 0.291722,-5.25453 0.259934,-2.17128 0.48677,-4.37879 1.297794,-6.428153 0.760931,-1.739143 1.002649,-3.642379 1.531684,-5.455362 0.393157,-1.807151 0.632658,-3.742433 1.61713,-5.336047 0.348165,-1.79296 0.609936,-3.669081 1.535203,-5.271553 0.43203,-1.18944 0.609422,-2.398044 0.970939,-3.604303 0.470296,-1.569217 0.382473,-0.727665 0.848738,-2.210564 0.114038,-0.362686 0.179551,-0.738881 0.269327,-1.108321 0.351417,-2.501993 -0.06013,0.05337 0.424426,-2.09545 0.304761,-1.351481 0.346059,-2.768703 0.872538,-4.066167 1.051592,-1.830118 1.542925,-3.974166 3.073185,-5.525037 1.265989,-1.814253 2.687399,-3.485684 4.237859,-5.063863 0.68218,-0.694939 1.38173,-1.377831 2.04194,-2.093852 0.21333,-0.231357 0.35239,-0.54964 0.62414,-0.708342 45.30665,-26.459847 29.05885,-21.90682 47.03875,-26.858037 2.32786,-0.438287 -0.54342,0.01797 1.79528,-0.08567 0.17825,-0.0079 0.34204,-0.102201 0.51519,-0.14527 0.64967,-0.161594 1.28732,-0.241242 1.95392,-0.107434 1.60804,-0.188172 3.19981,-0.262308 4.81557,-0.132617 1.75728,-0.05988 3.51717,0.0643 5.27509,-0.03558 2.14541,-0.12741 4.32079,-0.237151 6.39879,-0.825722 0,0 -42.85669,31.958941 -42.85669,31.958941 z"
         id="path314"
         style="fill:#000000;stroke-width:0.26458332" />
    </g>
  </g>
</svg>
