<?xml version="1.0" encoding="UTF-8" standalone="no"?>
<!-- Created with Inkscape (http://www.inkscape.org/) -->

<svg
   xmlns:dc="http://purl.org/dc/elements/1.1/"
   xmlns:cc="http://creativecommons.org/ns#"
   xmlns:rdf="http://www.w3.org/1999/02/22-rdf-syntax-ns#"
   xmlns:svg="http://www.w3.org/2000/svg"
   xmlns="http://www.w3.org/2000/svg"
   xmlns:sodipodi="http://sodipodi.sourceforge.net/DTD/sodipodi-0.dtd"
   xmlns:inkscape="http://www.inkscape.org/namespaces/inkscape"
   width="300mm"
   height="300mm"
   viewBox="0 0 300 300"
   version="1.1"
   id="svg8"
   inkscape:version="0.92.3 (2405546, 2018-03-11)"
   sodipodi:docname="profileHere.svg">
  <defs
     id="defs2" />
  <sodipodi:namedview
     id="base"
     pagecolor="#ffffff"
     bordercolor="#666666"
     borderopacity="1.0"
     inkscape:pageopacity="0.0"
     inkscape:pageshadow="2"
     inkscape:zoom="0.48892506"
     inkscape:cx="566.92913"
     inkscape:cy="477.49405"
     inkscape:document-units="mm"
     inkscape:current-layer="layer1"
     showgrid="false"
     inkscape:window-width="1678"
     inkscape:window-height="1010"
     inkscape:window-x="0"
     inkscape:window-y="0"
     inkscape:window-maximized="1" />
  <metadata
     id="metadata5">
    <rdf:RDF>
      <cc:Work
         rdf:about="">
        <dc:format>image/svg+xml</dc:format>
        <dc:type
           rdf:resource="http://purl.org/dc/dcmitype/StillImage" />
        <dc:title></dc:title>
      </cc:Work>
    </rdf:RDF>
  </metadata>
  <g
     inkscape:label="Layer 1"
     inkscape:groupmode="layer"
     id="layer1"
     transform="translate(0,3)">
    <g
       id="g136"
       transform="translate(0.158447,0.10794129)">
      <path
         inkscape:connector-curvature="0"
         d="m 42.327448,259.21874 c 0.428774,0.11088 0.851673,0.24767 1.286325,0.33265 1.787065,0.3494 3.599749,0.55414 5.392248,0.87449 1.340514,0.23958 2.672027,0.52819 4.013467,0.76252 3.227689,0.56384 6.468502,1.0498 9.701602,1.58172 11.732487,1.71079 23.489472,3.25302 35.217554,4.99586 10.004886,1.67185 2.424356,0.47202 12.381746,1.87129 5.89588,0.82855 6.11986,0.97962 12.01078,1.60057 3.03361,0.31975 8.41044,0.73385 11.47465,0.98036 8.95277,0.60733 17.85438,1.72204 26.7806,2.61454 4.13063,0.3539 8.27271,0.46738 12.41557,0.36631 3.11359,-0.12996 6.22494,0.0635 9.33717,0.14129 3.95763,0.0389 7.91456,-0.0328 11.87218,-0.0148 3.55945,-0.0445 7.11964,-0.12379 10.67946,-0.0976 3.2327,-0.15746 6.35552,-1.03921 9.45789,-1.89021 0.41415,-0.10322 0.84459,-0.15513 1.24246,-0.30965 0.65779,-0.25545 1.22754,-0.70437 1.8799,-0.9734 0.80729,-0.33292 1.6515,-0.49826 2.46762,-0.80436 3.49922,-0.49236 -2.12308,0.25387 1.81099,-0.10057 0.65133,-0.0587 1.27743,-0.294 1.92737,-0.36642 0.83256,-0.0928 1.44235,-0.0425 2.28491,-0.0172 2.74574,0.004 5.49156,-0.0156 8.23729,0.004 2.95735,-0.0473 5.91213,0.0605 8.86696,0.15737 4.04169,0.10422 8.08524,0.14817 12.12814,0.11576 2.00069,-0.10962 3.99689,-0.28514 5.99533,-0.42566 0.60856,-0.0428 1.22329,-0.0228 1.82674,-0.11232 0.5393,-0.08 1.05524,-0.27567 1.58736,-0.39444 0.51763,-0.11554 1.0406,-0.20553 1.56091,-0.30832 2.56537,-0.29554 5.03637,-1.14935 7.61568,-1.29847 2.3907,0.0685 4.78544,0.0393 7.17601,-0.0378 0.29223,-0.083 0.58311,-0.17092 0.87667,-0.24919 0.38676,-0.1031 1.16813,-0.29718 1.57723,-0.3503 2.49034,-0.32332 -1.09096,0.21992 1.59999,-0.009 0.27474,-0.0233 0.53819,-0.12039 0.80727,-0.18058 2.3749,-0.20973 4.76067,-0.13123 7.14078,-0.20296 1.48334,-0.0249 2.65634,-0.97618 4.02014,-1.38851 1.98143,-0.59904 0.0193,0.21212 1.79676,-0.58322 0.82433,-0.17936 1.46743,-0.59089 2.05636,-1.17898 0.17487,-0.17463 0.70993,-0.67442 0.49554,-0.55147 -44.11957,25.30731 -58.27758,37.20018 -44.5595,25.71625 46.44032,-26.65685 28.49765,-27.44877 46.90472,-26.51511 0,0 -42.11675,32.96999 -42.11675,32.96999 v 0 c -10.65638,14.39 -0.42349,0.46464 45.0269,-25.69482 -16.88735,7.2544 1.45465,-0.65125 -46.60452,26.99684 -0.51786,0.29792 -1.75555,0.30237 -2.36318,0.43709 -0.25793,0.0572 -0.50873,0.14274 -0.7631,0.2141 -2.46313,0.42897 0.63959,-0.14951 -1.78522,0.42508 -1.48985,0.35306 -3.01457,0.19045 -4.52762,0.18225 -2.41007,0.0836 -4.79822,0.39497 -7.17127,0.82018 -1.70988,0.0786 -3.38638,0.61664 -5.10955,0.23132 -2.2682,-0.0333 -4.56597,0.0233 -6.7852,0.53248 -2.31781,0.48834 -4.68425,0.64722 -7.02912,0.96242 -3.61791,0.34576 -7.27991,0.16354 -10.91079,0.2612 -4.14729,-0.035 -8.29512,0.0143 -12.44145,0.1076 -3.07798,0.0881 -6.15551,0.18301 -9.23545,0.16148 -2.7077,0.0576 -5.42971,0.0774 -8.10629,0.54276 -0.40637,0.098 -0.81274,0.19603 -1.21911,0.29404 -0.33769,0.0909 -0.67336,0.18965 -1.01306,0.2727 -0.65899,0.16111 -1.34348,0.22143 -1.98969,0.42791 -0.54533,0.17426 -1.02096,0.5293 -1.56867,0.69932 -0.74795,0.20857 -1.45271,0.51777 -2.20106,0.72112 -1.24119,0.33732 -0.71407,0.14333 -2.09638,0.32549 -0.35209,0.0464 -0.69996,0.1206 -1.04994,0.1809 -3.23444,0.49617 -6.50059,0.83926 -9.77807,0.74009 -3.4702,0.0251 -6.9407,-0.0504 -10.41055,-0.094 -3.95441,0.0225 -7.9084,-0.0401 -11.8627,0.0172 -3.32078,0.0901 -6.65066,0.34129 -9.96734,0.0408 -3.72382,-0.41035 -7.41472,-1.0422 -11.01693,-2.09572 -3.34416,-0.75789 -6.67915,-1.55159 -10.05998,-2.13513 -3.59636,-0.62077 -5.43663,-0.81052 -9.1045,-1.30463 -1.66249,-0.22397 -3.323951,-0.45554 -4.985931,-0.68332 -5.700443,-0.67156 -11.383328,-1.40364 -17.06072,-2.25115 -17.926955,-2.67613 5.894007,0.86249 -11.978666,-1.91043 -2.092315,-0.32461 -4.191008,-0.60668 -6.286513,-0.91003 -6.135394,-0.81484 -12.260466,-1.72622 -18.409449,-2.43501 -7.759253,-0.8944 -4.427262,-0.42146 -12.142891,-1.20581 -1.860126,-0.18913 -3.716498,-0.41347 -5.574746,-0.62021 -3.643853,-0.31621 -6.897524,-0.65564 -10.54857,-0.75489 -4.6928854,-0.12755 -9.392328,0.20183 -14.02334678,0.96494 0,0 42.92655078,-31.18796 42.92655078,-31.18796 z"
         id="path108"
         style="fill:#000000;stroke-width:0.26458332" />
      <path
         inkscape:connector-curvature="0"
         d="m 30.899436,240.23067 c 0.356266,0.0889 0.707723,0.20002 1.0688,0.26679 2.333363,0.4315 4.731811,0.50677 7.095249,0.61353 2.308204,0.10427 4.617432,0.18452 6.926016,0.2799 9.035608,0.37617 18.075468,0.28958 27.115791,0.34721 8.598681,0.42957 17.2016,0.51203 25.808167,0.40186 4.606931,-0.0521 9.204111,-0.37154 13.808881,-0.48201 1.89556,0.0282 3.80965,-0.22477 5.70485,-0.11862 0.91839,0.0514 1.82766,0.21146 2.74372,0.29463 1.35676,0.3489 2.76726,0.36284 4.11213,0.76963 0.50416,0.1525 0.97971,0.38867 1.47936,0.55537 0.9284,0.30972 1.87558,0.56079 2.80581,0.86498 0.43703,0.10625 0.87626,0.20386 1.3111,0.31874 1.47939,0.39085 1.16377,0.39707 2.63902,0.6464 1.31971,0.22305 2.65902,0.29473 3.99219,0.38388 3.76205,0.20002 7.5309,0.25618 11.29757,0.29488 4.10887,0.0229 8.21651,-0.14687 12.32488,-0.10835 3.76527,-0.0405 7.5308,-0.007 11.29553,-0.055 1.21413,-0.11368 2.43969,0.11913 3.65366,0.0212 0.57954,-0.0467 1.14286,-0.21595 1.71754,-0.30425 1.79469,-0.27576 3.59893,-0.39405 5.39473,-0.6677 2.3672,-0.1512 4.66559,-0.78033 7.00876,-1.10763 0.84759,-0.11839 2.01814,-0.19374 2.87652,-0.25855 1.17553,-0.35889 2.39315,-0.43428 3.61097,-0.49686 0.41912,-0.0215 0.84549,0.0206 1.25768,-0.0583 0.37547,-0.0719 0.71073,-0.28598 1.07889,-0.38895 0.39596,-0.11075 0.80515,-0.16707 1.20773,-0.25061 2.59369,-0.40654 5.16443,-0.81361 7.79146,-0.90614 3.08173,0.075 6.14727,-0.28995 9.22031,-0.47564 1.42103,-0.25634 2.87705,-0.28541 4.27975,-0.65057 0.43303,-0.11272 0.84241,-0.30506 1.27421,-0.42244 0.29953,-0.0814 2.24928,-0.46852 2.57015,-0.53307 0.78257,-0.20509 1.59576,-0.13802 2.38785,-0.25316 2.1334,-0.3101 -0.0376,-0.16033 2.07926,-0.43064 0.42186,-0.0539 1.75024,-0.0946 2.16537,-0.1104 2.24473,-0.43164 4.53615,-0.507 6.81574,-0.57831 1.88537,-0.53773 3.87641,-0.60465 5.82597,-0.56817 2.3218,0.0879 4.64639,0.0534 6.96787,0.12312 1.86962,0.10442 3.75924,-0.0255 5.62694,0.0822 1.05154,0.0606 2.09626,0.213 3.1474,0.28016 1.47212,-0.0264 2.88639,0.28817 4.30632,0.62032 0.38481,0.09 0.78282,0.13156 1.15705,0.25862 0.83365,0.28305 1.60941,0.71457 2.42213,1.05299 1.84848,0.65569 3.60759,1.56179 5.50415,2.07911 3.16188,0.86247 -0.70241,-0.3245 2.34871,0.63885 1.17263,0.17046 2.28327,0.59437 3.44567,0.80235 0.22405,0.0401 0.46566,0.003 0.67736,0.0863 0.30705,0.12134 0.5638,0.34369 0.84569,0.51553 0.62584,0.32179 1.28875,0.53336 1.98945,0.60287 0.1841,0.0183 0.37354,-0.0157 0.55457,0.0224 0.44643,0.0941 0.86664,0.28761 1.30804,0.40301 0.53555,0.16442 1.14374,-0.0644 1.67685,0.0425 0.25011,0.0502 0.47326,0.19205 0.7165,0.26899 0.50583,0.16001 0.67646,0.16168 1.18554,0.22966 1.5625,0.0763 2.15704,1.35509 3.77172,1.65127 0.72736,0.006 1.74034,0.24561 2.4494,0.037 0.18786,-0.0552 0.33025,-0.2131 0.50869,-0.29368 0.19021,-0.0859 0.39478,-0.13566 0.59219,-0.20349 0.65074,-0.77305 1.4219,-1.00959 2.33468,-1.31676 1.79097,-0.60269 -0.53147,0.0399 1.41187,-0.46792 0.98809,-0.16638 0.56666,0.032 1.28876,-0.5403 0,0 -41.99741,32.84165 -41.99741,32.84165 v 0 c -0.90504,0.0426 -0.47286,-0.0583 -1.29747,0.29871 -1.46949,0.58905 -2.96005,1.22174 -4.56544,0.83633 -1.66655,-0.19498 -3.28505,-0.77796 -4.81642,-1.45196 -0.63007,-0.30586 -1.31844,-0.76747 -2.04333,-0.79983 -0.52731,-0.0236 -0.25953,0.15811 -0.82812,0.0799 -0.20867,-0.0287 -0.40558,-0.11395 -0.60836,-0.17092 -0.31238,-0.084 -0.83486,-0.24029 -1.16508,-0.2686 -0.16767,-0.0143 -0.33799,0.0398 -0.50461,0.0161 -0.72467,-0.10281 -1.40853,-0.4622 -2.10794,-0.65468 -0.40131,-0.1256 -0.82293,-0.17957 -1.22334,-0.30803 -0.94467,-0.30308 -1.76853,-0.93469 -2.73892,-1.17636 -0.75377,-0.0265 -1.30212,-0.32877 -2.01239,-0.56499 -0.86135,-0.28644 -1.71991,-0.56693 -2.5298,-0.99026 -2.46139,-0.9779 -4.85164,-2.16437 -7.44913,-2.76315 -2.32756,-0.51342 -4.67713,-0.88268 -7.06568,-0.95755 -2.92402,-0.16717 -5.85738,0.0537 -8.78523,0.0493 -2.37015,0.0751 -4.7467,0.04 -7.10724,0.31557 -1.90386,0.2412 -3.8193,0.5932 -5.7413,0.52385 -2.23283,0.18674 -4.43496,0.54766 -6.66271,0.77978 -0.68162,0.11983 -1.35677,0.27506 -2.0391,0.39076 -1.38551,0.23498 -2.80452,0.25226 -4.16405,0.65175 -0.81286,0.14962 -1.61762,0.34997 -2.43739,0.4554 -1.91916,0.24691 -3.87813,0.24151 -5.80539,0.38717 -3.08419,0.18677 -6.18099,0.34205 -9.24479,0.73869 -2.5424,0.41598 -5.08103,0.85966 -7.61062,1.34588 -2.61803,0.445 0.0277,0.0607 -2.64952,0.25024 -1.58798,0.11245 -3.14033,0.60561 -4.74484,0.5229 -3.08682,0.35809 -6.17295,0.72252 -9.25963,1.08114 -1.8614,0.17489 -3.74111,0.46508 -5.61199,0.50662 -1.85727,0.0412 -3.72464,-0.10985 -5.58339,-0.0238 -3.71583,-0.0487 -7.43252,-0.0114 -11.14893,-0.0456 -4.02827,0.0451 -8.05626,-0.10427 -12.08497,-0.088 -4.0776,0.0212 -8.164785,0.11353 -12.232931,-0.22863 -2.976015,-0.36819 -5.844363,-1.1507 -8.695756,-2.07319 -0.488694,-0.1346 -2.1453,-0.60169 -2.625704,-0.68903 -1.697855,-0.30866 -3.466073,-0.34708 -5.181407,-0.46651 -2.644735,-0.11285 -5.300133,0.0643 -7.945969,-0.12984 -4.062069,-0.1371 -8.103616,-0.57414 -12.154998,-0.88333 -8.059711,-0.63834 -16.120761,-1.37949 -24.214285,-1.37047 -9.358813,0.0586 -18.717011,-0.0185 -28.0715844,0.34722 -6.09867437,0.22624 -12.238203,0.24884 -18.2838826,1.16022 0,0 43.057883,-31.28337 43.057883,-31.28337 z"
         id="path110"
         style="fill:#000000;stroke-width:0.26458332" />
      <path
         inkscape:connector-curvature="0"
         d="m 161.8266,251.57103 c 2.04146,1.53675 4.52937,2.04869 6.9615,2.62859 3.01519,0.71892 2.33539,0.549 5.51908,1.12384 1.08565,0.16562 2.1755,0.30575 3.25695,0.49684 6.12966,1.08311 0.79697,0.34096 6.885,1.23917 3.11295,0.45928 6.20755,0.71366 9.34658,0.89157 4.67069,0.17497 9.3451,0.1962 14.01849,0.20223 3.97299,0.0126 7.94417,-0.14127 11.91377,-0.28921 2.13651,-0.13857 4.27396,-0.22698 6.41332,-0.30172 1.8673,0.61813 3.85676,0.59207 5.8006,0.66595 2.60812,0.0615 5.21407,0.16308 7.82327,0.16472 3.1932,0.0643 6.39869,-0.1101 9.57936,0.19745 0.56783,0.0421 1.13707,0.0683 1.7035,0.12623 6.8853,0.7041 -3.27342,-0.23567 3.37834,0.42104 1.07499,0.10613 2.16268,0.0831 3.2321,0.23555 0.58703,0.0837 1.16022,0.24554 1.74034,0.36832 2.76703,0.55062 5.58543,0.70473 8.40004,0.69869 0,0 -42.87387,30.67115 -42.87387,30.67115 v 0 c -2.68451,-0.4087 -5.33038,-1.0115 -8.02074,-1.38827 -3.25719,-0.19902 -6.48957,-0.70337 -9.75835,-0.71998 -3.2077,0.0716 -6.41741,0.0507 -9.626,0.0691 -2.80089,-0.0101 -5.60414,0.10343 -8.40297,-0.0362 -1.98811,-0.1093 -4.01058,-0.53158 -5.98762,-0.21916 -1.86676,-0.0695 -3.73138,-0.14774 -5.59504,-0.28191 -3.74114,-0.13539 -7.48341,-0.2604 -11.22727,-0.27734 -4.61398,-0.0698 -9.24995,-0.1674 -13.8008,-1.01647 -6.36763,-1.12057 -12.70804,-2.45126 -19.15162,-3.06615 -3.01291,-0.35531 -5.9974,-0.80283 -8.99844,-1.24008 -1.16116,-0.16918 -3.13145,-0.51086 -4.38077,-0.39275 -0.43878,0.0415 -0.8482,0.2399 -1.2723,0.35986 0,0 43.12355,-31.3311 43.12355,-31.3311 z"
         id="path112"
         style="fill:#000000;stroke-width:0.26458332" />
    </g>
    <g
       id="g318"
       transform="translate(-5.8208336,-2.1166667)">
      <path
         inkscape:connector-curvature="0"
         d="m 14.037858,243.34867 c 0.241041,-0.16756 0.517245,-0.29343 0.723123,-0.5027 0.153862,-0.1564 1.438431,-1.97246 1.513833,-2.07379 0.903498,-1.21426 1.83772,-2.40487 2.797559,-3.57476 2.062358,-2.90587 4.304267,-5.67468 6.37372,-8.57575 2.261264,-3.27179 4.562573,-6.51625 6.743795,-9.84247 2.083747,-3.02187 3.967416,-6.19299 5.698627,-9.43003 1.482389,-3.0037 3.19821,-5.88666 5.005073,-8.70495 2.060361,-3.02527 4.287536,-5.92702 6.628918,-8.73845 1.728915,-1.8322 3.304712,-3.81509 5.123371,-5.55967 2.435598,-2.052 4.858038,-4.11295 7.395464,-6.04076 3.227601,-2.39792 6.616356,-4.54751 10.047139,-6.63807 17.104188,-10.64222 34.63417,-20.24404 52.19625,-30.38248 1.71865,-1.05368 3.64678,-1.60138 5.55891,-2.17756 0.49208,-0.14828 1.00396,-0.23092 1.48812,-0.40329 0.4829,-0.17193 0.93624,-0.41767 1.40435,-0.6265 1.00646,-0.31551 1.91288,-0.87601 2.8994,-1.23819 0.49835,-0.18296 1.02549,-0.27849 1.52676,-0.45333 1.47154,-0.51328 2.8926,-1.21372 4.33735,-1.79793 3.23878,-1.43036 6.43791,-2.94346 9.70056,-4.32018 2.90503,-1.15829 5.97434,-1.92585 9.05067,-2.48671 0.45145,-0.0586 0.91022,-0.0758 1.35437,-0.1757 0.40749,-0.0916 0.7848,-0.28989 1.18872,-0.39615 1.89046,-0.49731 3.88393,-0.54474 5.82446,-0.58873 3.22413,-0.18692 6.45012,-0.0982 9.67617,-0.0628 0.5832,0.0106 1.16635,0.0249 1.74961,0.0319 1.97922,0.0238 1.66813,-0.0502 3.67747,0.17186 1.92394,0.21262 3.81688,0.61435 5.73267,0.88654 3.35705,0.82631 6.71422,1.6861 10.12435,2.26994 2.55033,0.12157 4.96646,0.91274 7.42647,1.49922 4.41955,1.05364 -0.59112,-0.30378 3.95938,0.97309 0.6444,0.14553 1.29499,0.266 1.93321,0.4366 0.65087,0.17399 1.28257,0.41415 1.93119,0.59637 2.21159,0.6213 4.46041,1.08379 6.68544,1.64859 2.23574,0.97474 4.68337,0.835 7.0153,1.2898 2.40272,0.78658 4.86889,1.32119 7.31019,1.96639 2.49393,1.01307 5.09097,1.81904 7.71661,2.41706 1.51274,0.45229 3.10191,0.10519 4.63382,0.25581 0.34352,0.0338 0.67846,0.12764 1.01769,0.19147 0.58336,0.21265 1.23135,0.0487 1.8212,0.20817 0.39237,0.10607 0.74488,0.32776 1.12897,0.46075 1.11643,0.38659 2.21666,0.71247 3.33889,1.12726 1.80796,0.70479 3.6857,1.25205 5.45941,2.04493 3.20693,1.43356 -0.34922,0.0297 2.75465,1.21137 2.46135,1.3971 5.12677,2.29619 7.74511,3.33046 2.25703,0.92877 4.48609,1.98088 6.41286,3.48968 0.93689,0.91172 1.98319,1.76193 2.78165,2.80752 1.05354,1.37961 1.89545,2.97389 2.80474,4.44961 1.73929,3.36014 3.58529,6.65373 4.96186,10.18413 0.18616,0.48985 0.40378,0.96886 0.55849,1.46953 0.14335,0.46393 0.55888,2.36507 0.69678,2.9256 0.33456,1.35971 0.68646,2.68918 0.94419,4.06681 0.55935,2.4693 0.5693,4.9899 0.69858,7.50203 0.0167,2.06089 0.16968,4.10455 0.12798,6.16531 -0.0374,1.64418 -0.0124,3.30278 0.28704,4.92163 0.32168,1.73888 0.67326,3.48005 0.87868,5.23878 0.47416,2.19339 0.92618,4.39128 1.33298,6.59964 0.14136,1.22061 0.0747,0.62335 0.20063,1.7917 0,0 -47.19002,24.30709 -47.19002,24.30709 v 0 c 0.0265,-1.06254 0.0215,-0.52644 0.014,-1.60829 0.007,-2.00975 -0.15461,-4.02022 -0.84319,-5.9271 -0.60633,-1.74944 -0.85386,-3.59417 -1.15138,-5.41992 -0.13406,-0.64482 -0.34174,-1.27337 -0.46473,-1.92039 -0.24954,-1.31278 -0.17298,-2.65621 -0.19507,-3.98236 -0.033,-2.07069 0.13893,-4.1259 0.12124,-6.1967 0.0557,-2.30158 -0.0349,-4.61242 -0.1772,-6.90881 -0.34681,-2.64931 -0.98385,-5.22946 -1.43195,-7.86074 -0.94397,-3.26589 -2.26731,-6.41282 -4.34857,-9.13233 -1.40606,-2.15026 -2.89996,-3.7178 -5.10694,-5.05209 -1.81263,-0.99499 -3.63158,-1.98252 -5.56105,-2.73861 -2.53976,-1.09613 -4.97925,-2.40365 -7.54871,-3.43275 -2.59437,-1.12654 -5.29797,-2.01705 -8.05649,-2.64716 -1.07366,-0.22159 -2.25076,-0.57186 -3.34997,-0.6565 -0.32529,-0.0251 -0.65239,0.0456 -0.97828,0.0304 -0.009,-5.2e-4 -1.72195,-0.21163 -1.83216,-0.22521 -2.0528,-0.0528 -4.02713,-0.5983 -5.92537,-1.36856 -2.42755,-0.88016 -4.87812,-1.76993 -7.40776,-2.30094 -2.41777,-0.51678 -4.79485,-1.2504 -7.26147,-1.50718 -2.44933,-0.30699 -4.69373,-1.28912 -7.03335,-2.03186 -3.28589,-1.03399 -6.54328,-2.16351 -9.90709,-2.93143 -1.94397,-0.42299 -3.8849,-0.88552 -5.8502,-1.20172 -1.85895,-0.29908 -1.88249,-0.21553 -3.77572,-0.49921 -0.63438,-0.0951 -1.26432,-0.21774 -1.89648,-0.32661 -1.70225,-0.35801 -3.39311,-0.73275 -5.08133,-1.15193 -0.10756,-0.0267 -2.98363,-0.74031 -3.06477,-0.75566 -0.57604,-0.10894 -1.16136,-0.16126 -1.74204,-0.24188 -3.59418,-0.53426 -7.20806,-0.48824 -10.83367,-0.36636 -3.17143,0.0705 -6.35213,0.18469 -9.50181,0.57848 -2.76266,0.52594 -5.46706,1.29053 -8.21994,1.84443 -2.71738,0.77537 -5.41168,1.61191 -7.95448,2.86673 -3.28616,1.49759 -6.57055,3.00345 -9.92863,4.33505 -2.961487,1.22529 -5.983372,2.29122 -8.953143,3.4971 -2.883292,0.94629 -5.547201,2.28374 -8.094054,3.93623 14.108314,-8.14956 56.618787,-32.26839 42.326407,-24.44613 -0.4259,0.23309 -0.87351,0.42582 -1.29437,0.66789 -1.43288,0.82419 -2.70189,1.90765 -4.20627,2.61318 -1.13636,0.66689 -2.29912,1.28849 -3.42985,1.96491 -0.58132,0.34775 -1.12832,0.75132 -1.71332,1.09285 -0.581,0.33919 -1.20475,0.60209 -1.78195,0.9477 -1.15762,0.69315 -2.20831,1.55518 -3.37305,2.23773 -2.28889,1.57516 -4.56822,3.16513 -6.48856,5.1848 -0.91337,0.72392 -1.90714,1.37712 -2.7949,2.12888 -1.184307,1.00289 -2.198413,2.2013 -3.355645,3.23357 -2.562127,2.51031 -4.983882,5.13527 -7.016077,8.10364 -1.947802,2.58964 -3.499168,5.40461 -5.20432,8.1531 -1.839444,3.41806 -3.828288,6.74391 -5.786774,10.09538 -2.303399,3.18558 -4.289856,6.58735 -6.626899,9.75016 -1.882077,2.92252 -3.829257,5.79114 -5.949056,8.54554 -0.743341,1.1906 -1.561158,2.30409 -2.374238,3.44676 -0.247537,0.34788 -0.928003,1.15019 -1.097159,1.60229 -0.09211,0.24619 -0.08078,0.51948 -0.121168,0.77922 0,0 -49.285881,21.0568 -49.285881,21.0568 z"
         id="path312"
         style="fill:#000000;stroke-width:0.26458332" />
      <path
         inkscape:connector-curvature="0"
         d="m 129.57669,59.243377 c -2.02508,-0.16555 -4.06653,-0.01275 -6.09825,0.0054 -1.88048,2.64e-4 -3.76291,0.155516 -5.64263,0.09337 -0.27969,-2.62e-4 -0.56189,-0.03816 -0.83907,-7.93e-4 -0.52034,0.07017 -1.01299,0.282395 -1.52967,0.375798 -0.76424,0.138157 -1.5303,0.212063 -2.30366,0.271859 -0.5186,0.361344 -1.10292,0.527415 -1.72276,0.608899 -0.20541,0.027 -0.43947,-0.05205 -0.61948,0.05052 -0.17356,0.09891 -0.20306,0.347567 -0.33786,0.495006 -0.15055,0.164661 -0.34033,0.288597 -0.51049,0.432895 -13.397949,11.971732 -1.22782,1.02647 44.16727,-25.237032 0.27523,-0.159229 -0.59432,0.229195 -0.87813,0.372555 -0.81752,0.412945 -1.53616,0.989883 -2.25161,1.552736 -1.7224,1.378117 -3.30174,2.915356 -4.84824,4.483878 -1.21523,1.374907 -2.39098,2.731788 -3.19411,4.390562 -1.17553,1.480156 -1.50916,3.318846 -2.1069,5.060391 -0.49028,2.410254 -1.49039,4.666126 -1.95427,7.076766 -0.31503,1.679863 -0.93174,3.285709 -1.37522,4.937365 -0.28571,1.893848 -1.16982,3.601292 -1.67386,5.439963 -0.46144,1.951048 -1.01394,3.880671 -1.45931,5.836179 -0.58982,1.870015 -1.33343,3.680005 -1.66641,5.623058 -0.27728,1.460386 -0.24098,2.952392 -0.21588,4.431339 -0.0563,1.383223 -0.0586,2.765981 -0.0195,4.149725 -0.0924,1.5626 -0.0793,3.133265 -0.0336,4.698005 0.0303,1.177341 0.0403,2.355647 -0.0231,3.530502 0.0336,0.08329 0.0595,0.175954 0.15354,0.220729 0.0489,0.02328 0.1123,-0.01976 0.1625,5.29e-4 0.40276,0.16338 1.90661,1.852814 2.06394,2.011749 2.03923,1.72351 4.28447,3.17194 6.75373,4.19729 0.8749,0.3633 1.77941,0.65077 2.66785,0.97958 0.37984,0.14006 0.77518,0.24371 1.13953,0.42019 1.43196,0.69361 2.75358,1.68785 4.1185,2.49901 1.55266,0.92274 1.34488,0.77574 2.94737,1.4925 2.80338,1.2945 5.11325,3.4135 7.75193,4.97761 0.57279,0.33954 1.18103,0.61537 1.77155,0.92305 3.00655,1.24286 6.14982,2.143 9.05607,3.61148 3.39332,1.64992 6.73636,3.4286 10.36984,4.4889 1.87557,0.81855 3.79998,0.97593 5.80824,0.891 1.75689,-0.0836 3.51596,-0.10094 5.27478,-0.10284 1.63281,-0.81535 3.319,-1.55187 5.14916,-1.73862 0.26962,-0.0767 0.54396,-0.13842 0.80885,-0.23012 1.40748,-0.48724 0.17881,-0.19744 1.68312,-0.58934 0.2926,-0.0762 0.59014,-0.13211 0.88521,-0.19816 0.30414,-0.0241 0.61705,0.004 0.91241,-0.0722 0.27186,-0.0704 0.50749,-0.24059 0.76124,-0.36088 1.29817,-0.72028 2.79461,-0.91345 4.21445,-1.26641 0.78413,-0.19493 1.55303,-0.44723 2.33454,-0.65243 0.93209,-0.57931 1.90731,-1.03563 2.9891,-1.2472 0.3508,-0.0686 0.71472,-0.061 1.06294,-0.14165 0.61089,-0.14153 1.19258,-0.39034 1.79881,-0.55064 3.39429,-0.6311 -1.45306,0.31622 1.58213,-0.41704 0.27502,-0.0665 0.5679,-0.0438 0.8402,-0.12063 0.25551,-0.0721 0.47484,-0.24357 0.72844,-0.32221 1.69149,-0.52451 0.0301,0.27285 1.60431,-0.57381 0.33003,-0.0917 0.6641,-0.16996 0.99009,-0.27511 0.3389,-0.10933 0.65854,-0.27745 1.00298,-0.36781 0.77783,-0.20405 1.5971,-0.218 2.37593,-0.4182 0.65032,-0.16717 1.36904,-0.50377 1.98409,-0.76874 0.34201,-0.088 0.68225,-0.18328 1.02603,-0.26412 1.09855,-0.25834 0.89075,-0.12898 1.91546,-0.51106 0.92695,-0.34562 1.80655,-0.80065 2.72982,-1.1589 0.34753,-0.15011 0.68196,-0.33518 1.04258,-0.45031 0.40128,-0.12811 0.83459,-0.13985 1.23313,-0.27622 1.39544,-0.47746 3.05897,-1.61052 4.28891,-2.43882 2.74063,-1.46778 -0.74597,0.34821 1.98597,-0.91574 0.3158,-0.14611 0.61987,-0.31774 0.91684,-0.49908 0.28442,-0.17368 1.114,-0.73068 0.82508,-0.56461 -45.54154,26.17704 -60.04948,32.77063 -43.60943,25.26086 1.02136,-0.48823 2.10702,-1.03711 2.85222,-1.92354 0.31541,-0.3752 0.55096,-0.81091 0.83404,-1.21106 0.1542,-0.22047 0.3327,-0.4258 0.46259,-0.66142 0.30498,-0.55325 0.50428,-1.15865 0.77194,-1.73088 0.33588,-0.71808 0.71935,-1.39652 1.02311,-2.12884 0.6838,-1.91545 1.19881,-3.83865 1.42003,-5.86376 0.21596,-2.7985 0.22515,-5.60945 0.29366,-8.41491 0.0298,-2.66935 -0.0918,-5.33352 -0.15868,-8.00072 -0.2729,-2.525706 -0.90167,-4.981619 -1.55571,-7.429231 -0.91171,-2.797318 -1.56167,-5.696405 -2.86778,-8.343792 -1.12866,-2.286243 -2.02494,-4.664009 -2.90501,-7.053429 -0.72067,-2.151306 -1.71949,-4.177001 -2.7744,-6.179772 -1.04414,-1.909376 -2.12855,-3.755438 -3.53034,-5.42844 -1.57625,-1.777077 -3.19487,-3.515138 -4.75192,-5.311103 -1.37137,-1.564093 -2.80342,-3.058208 -4.31902,-4.48668 -0.66566,-0.538192 -1.08345,-0.945277 -1.85916,-1.312693 -0.67852,-0.321384 -1.03317,-0.288875 -1.75638,-0.442159 -2.10754,-0.44669 0.0998,-0.07544 -2.09762,-0.413491 -2.65486,-0.689795 -5.2157,-1.728742 -7.87527,-2.427448 -0.9978,-0.34656 -2.06916,-0.253604 -3.09081,-0.407451 -0.31912,-0.04806 -0.62448,-0.164483 -0.9407,-0.228941 -0.27501,-0.05606 -0.56499,-0.04439 -0.83153,-0.132302 -0.35331,-0.116533 -0.67329,-0.31672 -1.00993,-0.475078 -2.13082,-0.577088 -4.27828,-1.100513 -6.48588,-1.266029 -1.50115,-0.07844 -3.00006,0.06254 -4.49993,0.0924 -1.35651,0.06137 -2.71337,0.04075 -4.07054,0.05682 -1.34357,-0.01659 -2.68849,0.02392 -4.03194,-0.0061 -0.90214,0.0029 -1.80357,0.0095 -2.7055,-7.94e-4 -0.23017,-0.0026 -0.46385,0.03904 -0.69056,-7.94e-4 -0.28632,-0.05032 -0.5536,-0.177665 -0.8304,-0.266499 -0.24137,-0.05685 -0.4913,-0.08517 -0.72413,-0.170537 -0.27674,-0.101462 -0.52202,-0.276103 -0.7953,-0.38654 -0.8007,-0.323575 -1.66915,-0.364363 -2.51946,-0.371856 -0.98101,0.0024 -1.96201,0.0086 -2.94284,0.02797 0,0 43.05482,-31.090643 43.05482,-31.090643 v 0 c 1.13837,0.08625 2.27887,0.166048 3.39751,0.410044 1.3074,0.32815 2.5584,0.870245 3.91976,0.686589 1.26522,-0.334194 2.6195,-0.05635 3.91593,-0.139261 1.34687,-0.02958 2.69499,0.0065 4.04196,-0.01682 1.36402,0.0088 2.72808,-0.02879 4.09074,0.05798 1.60486,0.08051 3.20162,0.342144 4.74763,0.783802 2.21018,0.631162 4.41625,1.264045 6.67236,1.717278 1.98538,0.153449 3.85372,0.808938 5.68282,1.579231 2.55015,0.9198 5.1717,1.606182 7.8242,2.151991 0.67115,0.231259 1.93997,0.64594 2.5784,0.956934 1.69751,0.826902 3.0553,2.13809 4.47278,3.351242 1.7847,1.536496 3.60405,3.078456 4.84701,5.104995 1.46032,1.923111 3.3677,3.457921 4.8028,5.410692 1.4679,1.985401 2.89623,4.006048 4.04956,6.195766 1.18158,2.199627 2.0224,4.518771 2.99784,6.815461 0.89717,2.293186 1.63134,4.639339 2.53706,6.929466 0.33052,0.814007 0.90833,2.210586 1.19539,3.028119 0.6824,1.943463 1.09477,3.976505 1.89941,5.878513 1.21014,3.433447 -0.0656,-0.319141 0.88186,2.851515 0.52987,1.773168 1.26863,3.493719 1.41407,5.36354 0.0786,0.500132 0.19621,0.995678 0.23585,1.500397 0.0497,0.633283 -0.0675,2.039707 -0.0889,2.658425 -0.0518,1.492755 -10e-4,2.985899 -0.0307,4.478909 0.0683,2.842508 0.0924,5.683067 0.0908,8.52656 1.8e-4,2.228829 0.23249,4.522301 -0.4236,6.686984 -0.0685,0.35398 -0.31604,1.67684 -0.41559,2.01107 -0.35301,1.18521 -1.14765,2.19767 -1.32033,3.44025 -0.84001,2.13288 0.18986,-0.39009 -0.77485,1.69072 -0.62061,1.33859 -1.13757,2.72672 -2.12726,3.85983 -13.05751,13.43316 -0.71234,0.86339 -46.77109,27.3501 -0.5746,0.33044 -1.23281,0.49413 -1.81866,0.80419 -0.31146,0.16484 -0.60471,0.362 -0.90707,0.543 -0.28571,0.15013 -0.57143,0.30027 -0.85714,0.4504 -0.26442,0.10766 -1.97984,0.80853 -2.20822,0.89105 -0.82889,0.29947 -1.69701,0.48504 -2.51957,0.80148 -0.39276,0.15109 -0.76243,0.35646 -1.14364,0.53469 -0.38664,0.14143 -0.77327,0.28286 -1.1599,0.42428 -1.94283,0.71302 -3.98269,1.04041 -5.92095,1.76902 -0.69319,0.14804 -1.39743,0.24813 -2.08257,0.42985 -1.45823,0.38677 -2.81288,1.12127 -4.26546,1.53264 -1.70318,0.34659 -3.37737,0.83271 -5.05506,1.28371 -0.55975,0.16273 -1.14017,0.25323 -1.69303,0.43805 -1.29555,0.4331 -2.46447,1.24801 -3.88982,1.27521 -0.74731,0.21338 -1.50423,0.39457 -2.24428,0.63196 -1.12206,0.35993 -2.20544,0.86834 -3.33319,1.20791 -0.36819,0.11086 -0.74863,0.17604 -1.12294,0.26407 -0.36427,0.0556 -0.73481,0.0794 -1.09283,0.16668 -0.25818,0.0629 -0.49479,0.19442 -0.74589,0.28139 -1.14541,0.39674 -2.32422,0.63679 -3.51436,0.85416 -1.83129,0.68186 -3.76323,1.04913 -5.71588,0.724 -1.91891,0.009 -3.85422,0.0257 -5.74514,-0.34601 -2.11586,-0.52893 -4.04391,-1.46791 -5.93224,-2.54932 -3.24428,-1.76953 -6.53859,-3.46698 -10.06227,-4.62072 -0.60132,-0.18461 -1.211,-0.34396 -1.80398,-0.55384 -2.63619,-0.93303 -5.02718,-2.46882 -7.44356,-3.84083 -3.15915,-2.02672 -6.49271,-3.73188 -9.83767,-5.42648 -1.425,-0.86091 -2.85834,-1.68644 -4.38093,-2.36707 -0.92766,-0.41468 -1.90382,-0.71469 -2.83128,-1.12981 -0.41373,-0.18518 -0.80524,-0.41648 -1.20785,-0.62472 -3.173437,-1.99254 -5.998571,-4.53733 -9.45577,-6.07592 -0.193929,-0.0926 -2.648032,-1.24827 -2.975864,-1.4575 -1.212432,-0.7738 -1.900359,-2.13112 -2.468359,-3.39628 -0.243993,-0.72952 -0.419161,-1.10656 -0.492612,-1.86704 -0.09045,-0.93642 0.08522,-1.9114 0.03151,-2.85058 0.04316,-1.54694 0.05977,-3.10072 -0.04238,-4.64485 0.03117,-1.39924 0.01437,-2.79641 -0.03375,-4.19504 0.05769,-1.75378 0.17807,-3.50367 0.291722,-5.25453 0.259934,-2.17128 0.48677,-4.37879 1.297794,-6.428153 0.760931,-1.739143 1.002649,-3.642379 1.531684,-5.455362 0.393157,-1.807151 0.632658,-3.742433 1.61713,-5.336047 0.348165,-1.79296 0.609936,-3.669081 1.535203,-5.271553 0.43203,-1.18944 0.609422,-2.398044 0.970939,-3.604303 0.470296,-1.569217 0.382473,-0.727665 0.848738,-2.210564 0.114038,-0.362686 0.179551,-0.738881 0.269327,-1.108321 0.351417,-2.501993 -0.06013,0.05337 0.424426,-2.09545 0.304761,-1.351481 0.346059,-2.768703 0.872538,-4.066167 1.051592,-1.830118 1.542925,-3.974166 3.073185,-5.525037 1.265989,-1.814253 2.687399,-3.485684 4.237859,-5.063863 0.68218,-0.694939 1.38173,-1.377831 2.04194,-2.093852 0.21333,-0.231357 0.35239,-0.54964 0.62414,-0.708342 45.30665,-26.459847 29.05885,-21.90682 47.03875,-26.858037 2.32786,-0.438287 -0.54342,0.01797 1.79528,-0.08567 0.17825,-0.0079 0.34204,-0.102201 0.51519,-0.14527 0.64967,-0.161594 1.28732,-0.241242 1.95392,-0.107434 1.60804,-0.188172 3.19981,-0.262308 4.81557,-0.132617 1.75728,-0.05988 3.51717,0.0643 5.27509,-0.03558 2.14541,-0.12741 4.32079,-0.237151 6.39879,-0.825722 0,0 -42.85669,31.958941 -42.85669,31.958941 z"
         id="path314"
         style="fill:#000000;stroke-width:0.26458332" />
    </g>
  </g>
</svg>
