<?xml version="1.0" encoding="UTF-8" standalone="no"?>
<!-- Created with Inkscape (http://www.inkscape.org/) -->

<svg
   xmlns:dc="http://purl.org/dc/elements/1.1/"
   xmlns:cc="http://creativecommons.org/ns#"
   xmlns:rdf="http://www.w3.org/1999/02/22-rdf-syntax-ns#"
   xmlns:svg="http://www.w3.org/2000/svg"
   xmlns="http://www.w3.org/2000/svg"
   xmlns:sodipodi="http://sodipodi.sourceforge.net/DTD/sodipodi-0.dtd"
   xmlns:inkscape="http://www.inkscape.org/namespaces/inkscape"
   width="300mm"
   height="300mm"
   viewBox="0 0 300 300"
   version="1.1"
   id="svg8"
   inkscape:version="0.92.3 (2405546, 2018-03-11)"
   sodipodi:docname="search.svg">
  <defs
     id="defs2" />
  <sodipodi:namedview
     id="base"
     pagecolor="#ffffff"
     bordercolor="#666666"
     borderopacity="1.0"
     inkscape:pageopacity="0.0"
     inkscape:pageshadow="2"
     inkscape:zoom="0.48892506"
     inkscape:cx="566.92913"
     inkscape:cy="477.49405"
     inkscape:document-units="mm"
     inkscape:current-layer="layer1"
     showgrid="false"
     inkscape:window-width="1678"
     inkscape:window-height="1010"
     inkscape:window-x="0"
     inkscape:window-y="0"
     inkscape:window-maximized="1" />
  <metadata
     id="metadata5">
    <rdf:RDF>
      <cc:Work
         rdf:about="">
        <dc:format>image/svg+xml</dc:format>
        <dc:type
           rdf:resource="http://purl.org/dc/dcmitype/StillImage" />
        <dc:title></dc:title>
      </cc:Work>
    </rdf:RDF>
  </metadata>
  <g
     inkscape:label="Layer 1"
     inkscape:groupmode="layer"
     id="layer1"
     transform="translate(0,3)">
    <g
       id="g214"
       transform="matrix(0.91963658,0,0,0.95965678,17.928813,12.097803)">
      <path
         inkscape:connector-curvature="0"
         d="m 184.96271,161.4443 c 2.24523,2.17365 4.92702,3.78464 7.46452,5.58023 3.67597,2.49347 7.08091,5.34673 10.60931,8.03903 3.41191,2.51913 6.85337,4.99725 10.71292,6.78865 2.181,0.99928 4.38006,1.99518 6.40982,3.27979 1.35051,0.97348 2.89285,1.59417 4.36796,2.33581 1.75417,0.95522 0.87293,0.49416 2.64335,1.38387 1.45238,0.5204 2.95059,1.0573 4.2673,1.88045 0.54851,0.34291 1.03742,0.77333 1.56724,1.14447 1.20091,0.84125 1.81504,1.20536 3.04503,1.97688 1.47105,1.05933 3.20334,1.67693 4.71701,2.66358 0.59707,0.38918 1.67714,1.28416 2.18779,1.6946 2.98483,2.23041 6.19537,4.12335 9.50537,5.82307 2.77681,1.76735 5.41606,3.7253 8.12722,5.59258 1.48486,0.81555 2.67259,2.02036 4.0263,3.01273 0.68648,0.50323 1.40578,0.96016 2.10354,1.44764 1.14705,0.94405 2.49257,1.59392 3.72637,2.40232 0.45329,0.29701 0.87151,0.64473 1.31789,0.95203 1.0419,0.71728 1.56295,1.01192 2.63673,1.66227 1.62693,1.15768 3.16937,2.4902 4.97906,3.36536 0.61648,0.29811 1.26021,0.53716 1.87902,0.83045 0.90816,0.49573 1.91175,0.99223 2.94294,1.18587 1.70616,0.32039 -0.46993,-0.27203 1.48693,0.30992 0.95403,0.0909 1.83327,0.45941 2.77466,0.62511 0.28712,0.0505 0.58272,0.0527 0.86632,0.12012 0.76571,0.18208 1.06225,0.38435 1.76266,0.7378 1.96164,1.12942 3.59375,3.19374 4.98887,4.97166 1.17031,1.59106 2.49145,3.04555 3.8803,4.44598 1.22984,0.73325 2.10019,1.85547 3.04856,2.89795 0,0 -45.2086,27.57274 -45.2086,27.57274 v 0 c -1.03523,-1.01669 -2.27322,-1.81234 -3.13392,-3.00418 -1.31439,-1.56282 -2.58979,-3.15915 -3.87115,-4.74832 -0.56254,-0.63498 -1.14034,-1.41605 -1.87642,-1.86547 -0.56553,-0.34528 -1.31022,-0.33769 -1.91437,-0.5778 -1.72467,-0.28808 -3.37733,-0.88699 -5.07828,-1.28463 -1.8288,-0.54981 -3.48531,-1.53025 -5.04203,-2.62382 -2.15075,-1.54586 -4.06214,-3.42519 -6.3798,-4.73665 -2.5775,-1.73882 -5.23985,-3.3425 -7.85349,-5.02481 -2.22685,-1.4251 -4.36475,-2.99823 -6.38273,-4.70406 -2.30764,-1.98333 -4.79094,-3.73127 -7.41681,-5.27108 -3.17577,-2.09872 -6.32792,-4.23404 -9.75401,-5.91556 -0.33076,-0.1665 -2.29165,-1.14184 -2.68345,-1.38115 -1.45623,-0.88943 -2.62221,-2.19866 -4.0709,-3.10062 -0.86378,-0.57501 -1.9519,-1.3349 -2.87829,-1.80816 -1.90142,-0.97137 -4.00588,-1.50129 -5.88627,-2.51967 -2.52425,-1.19083 -5.09876,-2.2813 -7.48887,-3.73717 -2.17441,-1.04218 -4.22518,-2.30794 -6.14742,-3.76638 -3.2764,-2.63607 -6.57725,-5.24746 -10.01069,-7.67714 -3.62273,-2.50916 -7.14872,-5.16728 -10.92852,-7.44157 -2.76219,-1.5439 -0.62122,-0.35753 -3.38496,-1.86136 -1.55512,-0.84619 -3.15547,-1.77445 -4.97167,-1.84326 0,0 44.31766,-29.8301 44.31766,-29.8301 z"
         id="path206"
         style="fill:#000000;stroke-width:0.26458332" />
      <path
         inkscape:connector-curvature="0"
         d="m 48.181219,35.912878 c -0.221869,0.09307 -0.43362,0.215408 -0.665604,0.279212 -0.35955,0.09889 -0.742029,0.100198 -1.099526,0.20628 -0.388716,0.115345 -0.7488,0.311721 -1.128202,0.454763 -1.31385,0.495345 -1.953083,0.72181 -3.082616,1.575914 -0.310835,0.177035 -1.242589,0.709456 -0.932505,0.531108 C 56.048988,30.461485 100.11803,4.5294983 85.603692,13.468077 62.775355,27.526795 53.511967,32.497218 36.520578,41.584298 c -0.494146,0.314495 -1.535199,0.992741 -2.059397,1.264349 -0.364103,0.188653 -0.75602,0.319651 -1.121638,0.505351 -0.364845,0.185306 -0.715431,0.397664 -1.067364,0.606454 -0.352143,0.208918 -1.399181,0.851011 -1.044493,0.646446 14.623427,-8.43403 29.234139,-16.890084 43.85121,-25.335126 -2.108449,1.142717 -4.06558,2.528199 -6.015877,3.916119 -1.770763,1.414854 -3.608575,2.727785 -5.343429,4.188748 -1.19652,1.2021 -2.61519,2.182982 -3.79325,3.402991 -0.420541,0.435518 -1.734132,2.04751 -2.097365,2.487862 -1.307174,1.542618 -2.316136,3.302825 -3.49668,4.936251 -0.513302,0.710216 -1.062757,1.393749 -1.579282,2.101623 -0.582401,0.994674 -1.379479,1.794526 -2.122133,2.656438 -0.729824,0.847021 -1.377476,1.779688 -2.082993,2.648701 -0.214686,0.306761 -0.453485,0.597987 -0.644054,0.920284 -0.46667,0.789258 -0.708777,1.502178 -1.131075,2.310583 -0.604745,1.157663 -1.321668,2.218729 -1.883826,3.401269 -0.737663,1.894035 -1.431496,3.811645 -2.060956,5.744453 -0.678754,1.113137 -1.100772,2.353143 -1.70443,3.503263 -1.424858,2.714715 0.147923,-0.567549 -1.209082,2.341094 -1.195044,2.501353 -2.310616,5.046959 -3.036443,7.726355 -0.705447,2.405271 -1.179389,4.864632 -1.805462,7.290123 -0.479236,2.089271 -0.945868,4.177964 -1.252599,6.300427 -0.209868,2.206927 -0.234941,4.427009 -0.39362,6.638676 -0.138538,3.041008 -0.14101,6.084823 -0.24771,9.127428 -0.369953,3.84957 -0.0015,7.67081 0.796212,11.43792 0.319077,1.85636 1.183779,3.52543 1.836104,5.26475 0.189533,0.50537 0.597486,1.97446 0.741447,2.47847 0.791765,3.81673 2.285394,7.41369 3.802703,10.98641 0.341103,0.81459 0.636087,1.65007 1.023313,2.44377 0.374917,0.76848 0.83298,1.49359 1.259237,2.23482 1.381249,2.40191 2.832372,4.72133 4.484449,6.94525 1.526635,1.56807 2.618279,3.47431 4.013512,5.14866 1.222187,1.46668 1.701623,1.86526 3.053165,3.17843 3.171695,2.9637 6.329965,5.94615 9.638847,8.75788 4.549309,3.76127 9.499351,7.03146 14.890057,9.44595 0.589856,0.21451 1.17222,0.45086 1.769565,0.64352 0.470469,0.15175 0.968216,0.2154 1.431128,0.38883 0.453099,0.16977 0.865103,0.4341 1.304724,0.63622 0.421177,0.19363 0.867929,0.33263 1.276975,0.55073 6.6051,3.52179 -3.842526,-1.70371 3.369656,1.85533 4.189661,2.09511 8.732724,3.29513 13.315756,4.15381 2.73483,0.49792 5.51391,0.38144 8.27702,0.4193 3.29712,0.0328 6.59171,0.1518 9.8889,0.19688 3.95422,0.0108 7.9076,-0.0564 11.86177,-0.0367 3.34998,-0.0453 6.69805,-0.0781 10.0438,-0.26037 2.08791,-0.35422 3.98879,-1.34704 6.05357,-1.81518 1.18136,-0.26319 2.43661,-0.32534 3.60804,-0.62695 0.39655,-0.10211 0.76439,-0.29481 1.15305,-0.42375 1.1581,-0.3842 1.55059,-0.45126 2.75997,-0.74374 0.51029,-0.0813 1.02406,-0.14318 1.53085,-0.24402 0.89871,-0.17883 1.9564,-0.51166 2.86174,-0.67337 1.31551,-0.23497 2.65569,-0.28265 3.97606,-0.49763 1.18177,-0.22474 2.35812,-0.3858 3.55969,-0.42963 0.37967,-0.0138 0.7637,0.0272 1.13939,-0.0293 0.66774,-0.1005 1.51053,-0.4937 2.11822,-0.74377 0.4244,-0.0796 0.85528,-0.13026 1.2732,-0.2389 0.17489,-0.0455 2.30024,-0.78092 2.47182,-0.83131 0.43317,-0.12719 0.88126,-0.19999 1.31341,-0.33064 0.88336,-0.26705 1.7442,-0.60397 2.62213,-0.88837 0.44214,-0.14194 0.87949,-0.29981 1.32643,-0.42584 0.4538,-0.12797 0.9197,-0.20978 1.37408,-0.33568 1.61344,-0.44707 3.16064,-1.0551 4.81112,-1.33748 0.36347,-0.14067 0.72341,-0.29085 1.09041,-0.42202 1.65367,-0.59106 0.69424,-0.16133 2.28356,-0.82295 1.07629,-0.44805 2.10959,-0.9641 3.19665,-1.38778 0.9581,-0.55852 1.93075,-1.08345 2.89088,-1.63505 0.28962,-0.16638 0.54587,-0.38783 0.83929,-0.54741 3.25366,-1.76959 -1.4301,1.00756 1.75976,-0.91684 -14.81875,8.5254 -29.64885,17.03111 -44.45625,25.57622 -0.25261,0.14577 0.52764,-0.24871 0.78959,-0.37692 0.29064,-0.14225 0.58621,-0.27556 0.86812,-0.4344 0.79483,-0.44784 1.5048,-1.01647 2.21379,-1.58494 1.43724,-1.4522 3.11945,-2.61691 4.59064,-4.03392 2.13846,-1.55936 3.92493,-3.50641 5.76761,-5.38846 2.15963,-2.62871 3.60981,-5.42523 4.51709,-8.68809 0.96287,-2.96868 1.19032,-6.04831 1.3133,-9.14166 -0.0596,-2.62489 -0.0295,-5.25022 -0.0818,-7.87535 -0.0346,-2.11748 -0.15417,-4.23152 -0.20135,-6.34855 -0.0721,-2.25837 0.20631,-4.36605 0.0578,-6.64299 -0.31272,-3.55562 -0.41097,-7.12249 -0.61764,-10.68422 -0.28012,-2.30797 -0.005,-4.62495 -0.007,-6.93636 -8e-4,-1.2107 -0.0833,-2.06801 -0.17047,-3.25856 -0.0171,-0.48444 -0.0266,-0.96921 -0.0512,-1.45333 -0.0353,-0.69455 -0.13952,-1.75244 -0.14639,-2.45802 -0.0138,-1.41969 0.1163,-2.8486 0.1658,-4.26708 -0.0294,-2.87289 -0.15225,-5.72862 0.0382,-8.597471 0.50879,-4.125439 -1.22355,-7.808617 -3.08219,-11.36435 -1.623,-2.843265 -3.98192,-5.07298 -5.65883,-7.882818 -1.18729,-2.200794 -2.73502,-4.136906 -4.449,-5.94242 -2.06546,-2.500493 -4.00725,-5.098405 -6.05133,-7.615605 -1.82754,-2.123141 -3.69025,-4.261922 -5.82562,-6.08802 -0.44683,-0.382109 -1.82044,-1.392841 -2.33578,-1.776191 -2.46811,-1.532162 -4.51328,-3.591613 -6.58291,-5.606587 -3.07483,-2.982896 -6.45934,-5.610042 -10.0356,-7.959553 -2.33291,-1.391533 -4.62597,-2.845151 -6.94433,-4.259513 -1.63688,-1.149371 -3.42628,-1.999861 -5.12195,-3.048701 -0.31095,-0.202565 -0.60856,-0.427265 -0.93285,-0.607698 -0.52974,-0.294741 -1.10637,-0.496186 -1.65336,-0.757502 -0.93616,-0.447228 -1.84088,-0.942856 -2.74937,-1.443204 -0.28709,-0.116896 -0.58225,-0.215665 -0.86128,-0.350687 -1.38913,-0.672203 -0.49914,-0.372975 -1.99789,-1.22551 -1.07485,-0.611413 -2.30404,-1.027332 -3.43898,-1.509467 -1.87502,-0.708596 -3.72941,-1.330647 -5.7473,-1.355346 -2.012794,-1.016762 -4.354941,-0.972273 -6.558682,-1.092692 -3.224543,-0.117137 -6.45187,-0.119814 -9.677958,-0.161015 -3.65003,-0.01267 -7.299595,0.0037 -10.9494,2.64e-4 -3.401248,0.0217 -6.803964,0.01924 -10.203278,0.14401 -1.483101,0.07818 -3.023912,0.03063 -4.439737,0.566092 -3.054819,1.15533 1.66937,-0.310062 -1.436638,0.613236 -1.007983,0.206965 -0.526735,0.05933 -1.446617,0.43344 0,0 42.180007,-32.302781 42.180007,-32.302781 v 0 c 1.086842,-0.150903 0.568571,-0.056259 1.556602,-0.2739684 1.951257,-0.2868991 3.935771,0.2621005 5.902301,0.218997 3.26789,0.1326983 6.54017,0.1162968 9.81024,0.1374116 3.66416,-0.00885 7.3281,-0.0042 10.99248,-0.011964 3.41153,-0.026231 6.8273,-0.035573 10.23219,0.2113063 1.48481,0.1304468 2.94461,0.3080076 4.40974,0.58898012 0.8257,0.1583474 1.63347,0.40640667 2.46288,0.54396117 0.28293,0.046922 0.57164,0.04723 0.85746,0.070845 1.92826,0.79249424 3.78699,1.74621681 5.6777,2.62144421 1.29215,0.5698 2.54987,1.1878024 3.82488,1.7886113 0.49292,0.232272 1.68662,0.6648807 2.17131,0.9032957 0.30377,0.149426 0.58495,0.3409717 0.87742,0.5114577 1.84541,0.9396734 3.71276,1.8318258 5.42341,3.0093362 0.61682,0.337403 1.26103,0.6251207 1.86574,0.9837754 1.18347,0.7019267 2.27213,1.5762097 3.40503,2.3539977 2.1557,1.575377 4.12382,3.368744 6.18654,5.062749 3.30484,2.800184 6.63251,5.577272 10.11461,8.156668 1.02653,0.697426 2.02624,1.433843 3.05357,2.130092 1.53892,1.042961 3.19792,1.946124 4.38634,3.423136 2.46224,2.963905 4.80904,6.030553 7.54096,8.760788 2.37343,2.456117 4.96559,4.664713 7.36962,7.084375 1.5323,2.170973 2.90167,4.449334 4.33194,6.687661 1.9408,2.791455 3.38298,5.884807 5.02585,8.855001 1.08054,2.182114 2.10525,4.368541 3.00624,6.632387 0.42716,1.073277 1.33412,3.435871 1.63364,4.568431 0.16451,0.62207 0.2313,1.265954 0.34694,1.89893 0.20316,2.856453 0.055,5.701374 0.0355,8.562428 0.048,1.364075 0.17618,2.738884 0.1605,4.104184 -0.008,0.697707 -0.11746,1.928326 -0.15131,2.607379 -0.0249,0.500727 -0.0353,1.002072 -0.053,1.503109 -0.0824,1.203624 -0.17081,2.201603 -0.16751,3.416211 0.006,2.250428 0.29602,4.500426 0.11058,6.752523 -0.0278,3.37652 0.11385,6.7703 0.64266,10.1092 0.40757,2.27901 1.11831,4.53305 0.85935,6.87627 -0.0427,2.17713 -0.15219,4.35157 -0.17263,6.52932 -0.0382,2.7413 0.0233,5.48676 -0.17339,8.22319 -0.10117,3.43949 -0.20106,6.9208 -0.89542,10.29827 -0.95338,3.48203 -1.72792,7.04657 -3.58076,10.19654 -0.2357,0.47928 -0.43022,0.98111 -0.70709,1.43785 -0.41032,0.67687 -1.24763,1.587 -1.73976,2.21025 -0.75247,0.95296 -1.48312,1.9105 -2.3557,2.76312 -1.54883,1.18681 -2.76545,2.75689 -4.41698,3.82426 -14.45324,14.68401 -17.92376,13.47691 -49.63931,29.99057 -1.90399,0.89716 -3.72612,1.97452 -5.77909,2.53256 -2.23491,0.88021 -4.56206,1.51033 -6.89456,2.07305 -2.33899,0.82248 -4.79861,1.27194 -7.12778,2.13888 -2.66401,0.79757 -5.34285,1.51447 -8.05693,2.11264 -2.34769,0.21882 -4.68472,0.42583 -7.01272,0.82034 -2.64064,0.37702 -5.25105,1.02368 -7.8174,1.73753 -0.71856,0.2152 -2.23487,0.68174 -2.95224,0.84477 -1.64192,0.37315 -3.32589,0.607 -4.91716,1.19072 -2.2348,0.68317 -4.45079,0.96951 -6.785089,0.65325 -3.10565,-0.1992 -6.215173,-0.20871 -9.326036,-0.25758 -3.929676,0.0236 -7.858786,-0.0352 -11.788497,-0.004 -3.569374,0.0643 -7.138945,0.24357 -10.70869,0.15145 -2.86525,-0.15644 -5.57521,-0.82451 -8.252523,-1.86787 -4.538417,-1.59959 -9.045054,-3.28516 -13.583698,-4.88475 -3.327892,-1.26328 -6.764964,-2.18911 -9.422768,-4.70419 -4.656133,-3.62721 -9.428502,-7.11158 -14.341614,-10.38301 -2.316651,-1.49483 -4.79724,-2.88699 -6.94851,-4.62292 -1.561227,-1.25981 -2.784137,-2.83233 -4.101264,-4.32848 -1.3073175,-1.51234 -1.5603082,-1.86388 -3.0166957,-3.2983 -1.4430393,-1.42127 -3.2082722,-2.66514 -4.4003285,-4.32626 -0.3155434,-0.43971 -0.5220259,-0.94822 -0.7830385,-1.42233 -1.87983139,-4.2234 -3.6504421,-8.52719 -6.1843709,-12.41518 -1.9184818,-3.58224 -3.6577519,-7.2612 -5.326609,-10.96557 -0.9995604,-2.84014 -1.6467604,-5.76716 -2.2574384,-8.71471 -0.565642,-4.02562 -1.371595,-8.02677 -1.445872,-12.1077 -0.113027,-2.97312 -0.125991,-5.94704 -0.246938,-8.91939 -0.142353,-2.34864 -0.10131,-4.69296 0.09157,-7.0383 0.145238,-2.35749 0.349377,-4.72985 0.920834,-7.0274 0.435318,-1.691607 0.170105,-0.78389 0.723994,-2.443494 0.130059,-0.389697 0.298941,-0.768774 0.387769,-1.169884 0.279607,-1.262561 0.241524,-2.608995 0.762181,-3.824389 0.40228,-1.404493 0.7139997,-2.830555 1.1835004,-4.215421 0.4219997,-1.244754 0.6069657,-1.592488 1.0927714,-2.813005 0.173801,-0.43665 0.339472,-0.876491 0.5092067,-1.314739 0.15343,-0.408254 0.30686,-0.816509 0.4602897,-1.224764 0.117513,-0.394282 0.20882,-0.797343 0.35254,-1.182849 0.4215597,-1.130768 1.0852244,-2.174459 1.3901911,-3.355247 0.8517824,-1.314204 -0.0063,0.07719 0.8128417,-1.500084 0.7268314,-1.399472 1.4932531,-2.791725 1.9996538,-4.294294 0.3237507,-0.904989 0.5856457,-1.832858 0.9466994,-2.723621 0.6290427,-1.551924 1.84445371,-2.810181 2.18267771,-4.491971 C 0.59462358,66.587845 0.74171458,66.176265 0.94491258,65.791815 1.4168672,64.89888 1.7542376,64.607071 2.2981349,63.766554 2.5165998,63.428948 2.6700378,63.049477 2.9104069,62.727098 3.3811568,62.095736 4.0759243,61.652813 4.5060529,60.984711 5.6482536,59.612743 5.08635,60.31648 6.190171,58.87223 c 1.3280996,-1.625867 2.7655376,-3.173015 3.825143,-5.00262 0.571928,-0.843809 1.177926,-1.664829 1.729372,-2.522164 0.264054,-0.410525 0.471002,-0.857001 0.74822,-1.258755 0.712553,-1.032653 1.645222,-1.891014 2.528147,-2.770857 1.610685,-1.626817 3.213774,-3.290467 5.135688,-4.555826 1.887686,-1.620118 3.886544,-3.09513 5.909558,-4.543391 C 43.120622,28.340502 60.104867,18.044353 77.468452,8.6246179 78.20851,8.2232532 78.962541,7.8477325 79.698392,7.4387065 80.007732,7.2667568 80.916142,6.7168061 80.609617,6.8937288 -22.976066,66.682257 67.329169,14.586225 82.467069,5.8985894 82.754152,5.7338327 83.0663,5.6172217 83.365914,5.4765387 84.841956,5.020696 86.3742,4.5485673 87.748134,3.828534 c 0.385468,-0.202011 0.72799,-0.477584 1.10191,-0.7002452 0.334708,-0.199313 0.681987,-0.3767212 1.022982,-0.565082 0,0 -41.691983,33.3496412 -41.691983,33.3496412 z"
         id="path210"
         style="fill:#000000;stroke-width:0.26458332" />
    </g>
  </g>
</svg>
