<?xml version="1.0" encoding="UTF-8" standalone="no"?>
<!-- Created with Inkscape (http://www.inkscape.org/) -->

<svg
   xmlns:dc="http://purl.org/dc/elements/1.1/"
   xmlns:cc="http://creativecommons.org/ns#"
   xmlns:rdf="http://www.w3.org/1999/02/22-rdf-syntax-ns#"
   xmlns:svg="http://www.w3.org/2000/svg"
   xmlns="http://www.w3.org/2000/svg"
   xmlns:sodipodi="http://sodipodi.sourceforge.net/DTD/sodipodi-0.dtd"
   xmlns:inkscape="http://www.inkscape.org/namespaces/inkscape"
   width="300mm"
   height="300mm"
   viewBox="0 0 300 300"
   version="1.1"
   id="svg8"
   inkscape:version="0.92.3 (2405546, 2018-03-11)"
   sodipodi:docname="searchHere.svg">
  <defs
     id="defs2" />
  <sodipodi:namedview
     id="base"
     pagecolor="#ffffff"
     bordercolor="#666666"
     borderopacity="1.0"
     inkscape:pageopacity="0.0"
     inkscape:pageshadow="2"
     inkscape:zoom="0.48892506"
     inkscape:cx="566.92913"
     inkscape:cy="477.49405"
     inkscape:document-units="mm"
     inkscape:current-layer="layer1"
     showgrid="false"
     inkscape:window-width="1678"
     inkscape:window-height="1010"
     inkscape:window-x="0"
     inkscape:window-y="0"
     inkscape:window-maximized="1" />
  <metadata
     id="metadata5">
    <rdf:RDF>
      <cc:Work
         rdf:about="">
        <dc:format>image/svg+xml</dc:format>
        <dc:type
           rdf:resource="http://purl.org/dc/dcmitype/StillImage" />
        <dc:title></dc:title>
      </cc:Work>
    </rdf:RDF>
  </metadata>
  <g
     inkscape:label="Layer 1"
     inkscape:groupmode="layer"
     id="layer1"
     transform="translate(0,3)">
    <g
       id="g136"
       transform="translate(0.158447,0.10794129)">
      <path
         inkscape:connector-curvature="0"
         d="m 42.327448,259.21874 c 0.428774,0.11088 0.851673,0.24767 1.286325,0.33265 1.787065,0.3494 3.599749,0.55414 5.392248,0.87449 1.340514,0.23958 2.672027,0.52819 4.013467,0.76252 3.227689,0.56384 6.468502,1.0498 9.701602,1.58172 11.732487,1.71079 23.489472,3.25302 35.217554,4.99586 10.004886,1.67185 2.424356,0.47202 12.381746,1.87129 5.89588,0.82855 6.11986,0.97962 12.01078,1.60057 3.03361,0.31975 8.41044,0.73385 11.47465,0.98036 8.95277,0.60733 17.85438,1.72204 26.7806,2.61454 4.13063,0.3539 8.27271,0.46738 12.41557,0.36631 3.11359,-0.12996 6.22494,0.0635 9.33717,0.14129 3.95763,0.0389 7.91456,-0.0328 11.87218,-0.0148 3.55945,-0.0445 7.11964,-0.12379 10.67946,-0.0976 3.2327,-0.15746 6.35552,-1.03921 9.45789,-1.89021 0.41415,-0.10322 0.84459,-0.15513 1.24246,-0.30965 0.65779,-0.25545 1.22754,-0.70437 1.8799,-0.9734 0.80729,-0.33292 1.6515,-0.49826 2.46762,-0.80436 3.49922,-0.49236 -2.12308,0.25387 1.81099,-0.10057 0.65133,-0.0587 1.27743,-0.294 1.92737,-0.36642 0.83256,-0.0928 1.44235,-0.0425 2.28491,-0.0172 2.74574,0.004 5.49156,-0.0156 8.23729,0.004 2.95735,-0.0473 5.91213,0.0605 8.86696,0.15737 4.04169,0.10422 8.08524,0.14817 12.12814,0.11576 2.00069,-0.10962 3.99689,-0.28514 5.99533,-0.42566 0.60856,-0.0428 1.22329,-0.0228 1.82674,-0.11232 0.5393,-0.08 1.05524,-0.27567 1.58736,-0.39444 0.51763,-0.11554 1.0406,-0.20553 1.56091,-0.30832 2.56537,-0.29554 5.03637,-1.14935 7.61568,-1.29847 2.3907,0.0685 4.78544,0.0393 7.17601,-0.0378 0.29223,-0.083 0.58311,-0.17092 0.87667,-0.24919 0.38676,-0.1031 1.16813,-0.29718 1.57723,-0.3503 2.49034,-0.32332 -1.09096,0.21992 1.59999,-0.009 0.27474,-0.0233 0.53819,-0.12039 0.80727,-0.18058 2.3749,-0.20973 4.76067,-0.13123 7.14078,-0.20296 1.48334,-0.0249 2.65634,-0.97618 4.02014,-1.38851 1.98143,-0.59904 0.0193,0.21212 1.79676,-0.58322 0.82433,-0.17936 1.46743,-0.59089 2.05636,-1.17898 0.17487,-0.17463 0.70993,-0.67442 0.49554,-0.55147 -44.11957,25.30731 -58.27758,37.20018 -44.5595,25.71625 46.44032,-26.65685 28.49765,-27.44877 46.90472,-26.51511 0,0 -42.11675,32.96999 -42.11675,32.96999 v 0 c -10.65638,14.39 -0.42349,0.46464 45.0269,-25.69482 -16.88735,7.2544 1.45465,-0.65125 -46.60452,26.99684 -0.51786,0.29792 -1.75555,0.30237 -2.36318,0.43709 -0.25793,0.0572 -0.50873,0.14274 -0.7631,0.2141 -2.46313,0.42897 0.63959,-0.14951 -1.78522,0.42508 -1.48985,0.35306 -3.01457,0.19045 -4.52762,0.18225 -2.41007,0.0836 -4.79822,0.39497 -7.17127,0.82018 -1.70988,0.0786 -3.38638,0.61664 -5.10955,0.23132 -2.2682,-0.0333 -4.56597,0.0233 -6.7852,0.53248 -2.31781,0.48834 -4.68425,0.64722 -7.02912,0.96242 -3.61791,0.34576 -7.27991,0.16354 -10.91079,0.2612 -4.14729,-0.035 -8.29512,0.0143 -12.44145,0.1076 -3.07798,0.0881 -6.15551,0.18301 -9.23545,0.16148 -2.7077,0.0576 -5.42971,0.0774 -8.10629,0.54276 -0.40637,0.098 -0.81274,0.19603 -1.21911,0.29404 -0.33769,0.0909 -0.67336,0.18965 -1.01306,0.2727 -0.65899,0.16111 -1.34348,0.22143 -1.98969,0.42791 -0.54533,0.17426 -1.02096,0.5293 -1.56867,0.69932 -0.74795,0.20857 -1.45271,0.51777 -2.20106,0.72112 -1.24119,0.33732 -0.71407,0.14333 -2.09638,0.32549 -0.35209,0.0464 -0.69996,0.1206 -1.04994,0.1809 -3.23444,0.49617 -6.50059,0.83926 -9.77807,0.74009 -3.4702,0.0251 -6.9407,-0.0504 -10.41055,-0.094 -3.95441,0.0225 -7.9084,-0.0401 -11.8627,0.0172 -3.32078,0.0901 -6.65066,0.34129 -9.96734,0.0408 -3.72382,-0.41035 -7.41472,-1.0422 -11.01693,-2.09572 -3.34416,-0.75789 -6.67915,-1.55159 -10.05998,-2.13513 -3.59636,-0.62077 -5.43663,-0.81052 -9.1045,-1.30463 -1.66249,-0.22397 -3.323951,-0.45554 -4.985931,-0.68332 -5.700443,-0.67156 -11.383328,-1.40364 -17.06072,-2.25115 -17.926955,-2.67613 5.894007,0.86249 -11.978666,-1.91043 -2.092315,-0.32461 -4.191008,-0.60668 -6.286513,-0.91003 -6.135394,-0.81484 -12.260466,-1.72622 -18.409449,-2.43501 -7.759253,-0.8944 -4.427262,-0.42146 -12.142891,-1.20581 -1.860126,-0.18913 -3.716498,-0.41347 -5.574746,-0.62021 -3.643853,-0.31621 -6.897524,-0.65564 -10.54857,-0.75489 -4.6928854,-0.12755 -9.392328,0.20183 -14.02334678,0.96494 0,0 42.92655078,-31.18796 42.92655078,-31.18796 z"
         id="path108"
         style="fill:#000000;stroke-width:0.26458332" />
      <path
         inkscape:connector-curvature="0"
         d="m 30.899436,240.23067 c 0.356266,0.0889 0.707723,0.20002 1.0688,0.26679 2.333363,0.4315 4.731811,0.50677 7.095249,0.61353 2.308204,0.10427 4.617432,0.18452 6.926016,0.2799 9.035608,0.37617 18.075468,0.28958 27.115791,0.34721 8.598681,0.42957 17.2016,0.51203 25.808167,0.40186 4.606931,-0.0521 9.204111,-0.37154 13.808881,-0.48201 1.89556,0.0282 3.80965,-0.22477 5.70485,-0.11862 0.91839,0.0514 1.82766,0.21146 2.74372,0.29463 1.35676,0.3489 2.76726,0.36284 4.11213,0.76963 0.50416,0.1525 0.97971,0.38867 1.47936,0.55537 0.9284,0.30972 1.87558,0.56079 2.80581,0.86498 0.43703,0.10625 0.87626,0.20386 1.3111,0.31874 1.47939,0.39085 1.16377,0.39707 2.63902,0.6464 1.31971,0.22305 2.65902,0.29473 3.99219,0.38388 3.76205,0.20002 7.5309,0.25618 11.29757,0.29488 4.10887,0.0229 8.21651,-0.14687 12.32488,-0.10835 3.76527,-0.0405 7.5308,-0.007 11.29553,-0.055 1.21413,-0.11368 2.43969,0.11913 3.65366,0.0212 0.57954,-0.0467 1.14286,-0.21595 1.71754,-0.30425 1.79469,-0.27576 3.59893,-0.39405 5.39473,-0.6677 2.3672,-0.1512 4.66559,-0.78033 7.00876,-1.10763 0.84759,-0.11839 2.01814,-0.19374 2.87652,-0.25855 1.17553,-0.35889 2.39315,-0.43428 3.61097,-0.49686 0.41912,-0.0215 0.84549,0.0206 1.25768,-0.0583 0.37547,-0.0719 0.71073,-0.28598 1.07889,-0.38895 0.39596,-0.11075 0.80515,-0.16707 1.20773,-0.25061 2.59369,-0.40654 5.16443,-0.81361 7.79146,-0.90614 3.08173,0.075 6.14727,-0.28995 9.22031,-0.47564 1.42103,-0.25634 2.87705,-0.28541 4.27975,-0.65057 0.43303,-0.11272 0.84241,-0.30506 1.27421,-0.42244 0.29953,-0.0814 2.24928,-0.46852 2.57015,-0.53307 0.78257,-0.20509 1.59576,-0.13802 2.38785,-0.25316 2.1334,-0.3101 -0.0376,-0.16033 2.07926,-0.43064 0.42186,-0.0539 1.75024,-0.0946 2.16537,-0.1104 2.24473,-0.43164 4.53615,-0.507 6.81574,-0.57831 1.88537,-0.53773 3.87641,-0.60465 5.82597,-0.56817 2.3218,0.0879 4.64639,0.0534 6.96787,0.12312 1.86962,0.10442 3.75924,-0.0255 5.62694,0.0822 1.05154,0.0606 2.09626,0.213 3.1474,0.28016 1.47212,-0.0264 2.88639,0.28817 4.30632,0.62032 0.38481,0.09 0.78282,0.13156 1.15705,0.25862 0.83365,0.28305 1.60941,0.71457 2.42213,1.05299 1.84848,0.65569 3.60759,1.56179 5.50415,2.07911 3.16188,0.86247 -0.70241,-0.3245 2.34871,0.63885 1.17263,0.17046 2.28327,0.59437 3.44567,0.80235 0.22405,0.0401 0.46566,0.003 0.67736,0.0863 0.30705,0.12134 0.5638,0.34369 0.84569,0.51553 0.62584,0.32179 1.28875,0.53336 1.98945,0.60287 0.1841,0.0183 0.37354,-0.0157 0.55457,0.0224 0.44643,0.0941 0.86664,0.28761 1.30804,0.40301 0.53555,0.16442 1.14374,-0.0644 1.67685,0.0425 0.25011,0.0502 0.47326,0.19205 0.7165,0.26899 0.50583,0.16001 0.67646,0.16168 1.18554,0.22966 1.5625,0.0763 2.15704,1.35509 3.77172,1.65127 0.72736,0.006 1.74034,0.24561 2.4494,0.037 0.18786,-0.0552 0.33025,-0.2131 0.50869,-0.29368 0.19021,-0.0859 0.39478,-0.13566 0.59219,-0.20349 0.65074,-0.77305 1.4219,-1.00959 2.33468,-1.31676 1.79097,-0.60269 -0.53147,0.0399 1.41187,-0.46792 0.98809,-0.16638 0.56666,0.032 1.28876,-0.5403 0,0 -41.99741,32.84165 -41.99741,32.84165 v 0 c -0.90504,0.0426 -0.47286,-0.0583 -1.29747,0.29871 -1.46949,0.58905 -2.96005,1.22174 -4.56544,0.83633 -1.66655,-0.19498 -3.28505,-0.77796 -4.81642,-1.45196 -0.63007,-0.30586 -1.31844,-0.76747 -2.04333,-0.79983 -0.52731,-0.0236 -0.25953,0.15811 -0.82812,0.0799 -0.20867,-0.0287 -0.40558,-0.11395 -0.60836,-0.17092 -0.31238,-0.084 -0.83486,-0.24029 -1.16508,-0.2686 -0.16767,-0.0143 -0.33799,0.0398 -0.50461,0.0161 -0.72467,-0.10281 -1.40853,-0.4622 -2.10794,-0.65468 -0.40131,-0.1256 -0.82293,-0.17957 -1.22334,-0.30803 -0.94467,-0.30308 -1.76853,-0.93469 -2.73892,-1.17636 -0.75377,-0.0265 -1.30212,-0.32877 -2.01239,-0.56499 -0.86135,-0.28644 -1.71991,-0.56693 -2.5298,-0.99026 -2.46139,-0.9779 -4.85164,-2.16437 -7.44913,-2.76315 -2.32756,-0.51342 -4.67713,-0.88268 -7.06568,-0.95755 -2.92402,-0.16717 -5.85738,0.0537 -8.78523,0.0493 -2.37015,0.0751 -4.7467,0.04 -7.10724,0.31557 -1.90386,0.2412 -3.8193,0.5932 -5.7413,0.52385 -2.23283,0.18674 -4.43496,0.54766 -6.66271,0.77978 -0.68162,0.11983 -1.35677,0.27506 -2.0391,0.39076 -1.38551,0.23498 -2.80452,0.25226 -4.16405,0.65175 -0.81286,0.14962 -1.61762,0.34997 -2.43739,0.4554 -1.91916,0.24691 -3.87813,0.24151 -5.80539,0.38717 -3.08419,0.18677 -6.18099,0.34205 -9.24479,0.73869 -2.5424,0.41598 -5.08103,0.85966 -7.61062,1.34588 -2.61803,0.445 0.0277,0.0607 -2.64952,0.25024 -1.58798,0.11245 -3.14033,0.60561 -4.74484,0.5229 -3.08682,0.35809 -6.17295,0.72252 -9.25963,1.08114 -1.8614,0.17489 -3.74111,0.46508 -5.61199,0.50662 -1.85727,0.0412 -3.72464,-0.10985 -5.58339,-0.0238 -3.71583,-0.0487 -7.43252,-0.0114 -11.14893,-0.0456 -4.02827,0.0451 -8.05626,-0.10427 -12.08497,-0.088 -4.0776,0.0212 -8.164785,0.11353 -12.232931,-0.22863 -2.976015,-0.36819 -5.844363,-1.1507 -8.695756,-2.07319 -0.488694,-0.1346 -2.1453,-0.60169 -2.625704,-0.68903 -1.697855,-0.30866 -3.466073,-0.34708 -5.181407,-0.46651 -2.644735,-0.11285 -5.300133,0.0643 -7.945969,-0.12984 -4.062069,-0.1371 -8.103616,-0.57414 -12.154998,-0.88333 -8.059711,-0.63834 -16.120761,-1.37949 -24.214285,-1.37047 -9.358813,0.0586 -18.717011,-0.0185 -28.0715844,0.34722 -6.09867437,0.22624 -12.238203,0.24884 -18.2838826,1.16022 0,0 43.057883,-31.28337 43.057883,-31.28337 z"
         id="path110"
         style="fill:#000000;stroke-width:0.26458332" />
      <path
         inkscape:connector-curvature="0"
         d="m 161.8266,251.57103 c 2.04146,1.53675 4.52937,2.04869 6.9615,2.62859 3.01519,0.71892 2.33539,0.549 5.51908,1.12384 1.08565,0.16562 2.1755,0.30575 3.25695,0.49684 6.12966,1.08311 0.79697,0.34096 6.885,1.23917 3.11295,0.45928 6.20755,0.71366 9.34658,0.89157 4.67069,0.17497 9.3451,0.1962 14.01849,0.20223 3.97299,0.0126 7.94417,-0.14127 11.91377,-0.28921 2.13651,-0.13857 4.27396,-0.22698 6.41332,-0.30172 1.8673,0.61813 3.85676,0.59207 5.8006,0.66595 2.60812,0.0615 5.21407,0.16308 7.82327,0.16472 3.1932,0.0643 6.39869,-0.1101 9.57936,0.19745 0.56783,0.0421 1.13707,0.0683 1.7035,0.12623 6.8853,0.7041 -3.27342,-0.23567 3.37834,0.42104 1.07499,0.10613 2.16268,0.0831 3.2321,0.23555 0.58703,0.0837 1.16022,0.24554 1.74034,0.36832 2.76703,0.55062 5.58543,0.70473 8.40004,0.69869 0,0 -42.87387,30.67115 -42.87387,30.67115 v 0 c -2.68451,-0.4087 -5.33038,-1.0115 -8.02074,-1.38827 -3.25719,-0.19902 -6.48957,-0.70337 -9.75835,-0.71998 -3.2077,0.0716 -6.41741,0.0507 -9.626,0.0691 -2.80089,-0.0101 -5.60414,0.10343 -8.40297,-0.0362 -1.98811,-0.1093 -4.01058,-0.53158 -5.98762,-0.21916 -1.86676,-0.0695 -3.73138,-0.14774 -5.59504,-0.28191 -3.74114,-0.13539 -7.48341,-0.2604 -11.22727,-0.27734 -4.61398,-0.0698 -9.24995,-0.1674 -13.8008,-1.01647 -6.36763,-1.12057 -12.70804,-2.45126 -19.15162,-3.06615 -3.01291,-0.35531 -5.9974,-0.80283 -8.99844,-1.24008 -1.16116,-0.16918 -3.13145,-0.51086 -4.38077,-0.39275 -0.43878,0.0415 -0.8482,0.2399 -1.2723,0.35986 0,0 43.12355,-31.3311 43.12355,-31.3311 z"
         id="path112"
         style="fill:#000000;stroke-width:0.26458332" />
    </g>
    <g
       id="g214"
       transform="matrix(0.91963658,0,0,0.95965678,17.928813,12.097803)">
      <path
         inkscape:connector-curvature="0"
         d="m 184.96271,161.4443 c 2.24523,2.17365 4.92702,3.78464 7.46452,5.58023 3.67597,2.49347 7.08091,5.34673 10.60931,8.03903 3.41191,2.51913 6.85337,4.99725 10.71292,6.78865 2.181,0.99928 4.38006,1.99518 6.40982,3.27979 1.35051,0.97348 2.89285,1.59417 4.36796,2.33581 1.75417,0.95522 0.87293,0.49416 2.64335,1.38387 1.45238,0.5204 2.95059,1.0573 4.2673,1.88045 0.54851,0.34291 1.03742,0.77333 1.56724,1.14447 1.20091,0.84125 1.81504,1.20536 3.04503,1.97688 1.47105,1.05933 3.20334,1.67693 4.71701,2.66358 0.59707,0.38918 1.67714,1.28416 2.18779,1.6946 2.98483,2.23041 6.19537,4.12335 9.50537,5.82307 2.77681,1.76735 5.41606,3.7253 8.12722,5.59258 1.48486,0.81555 2.67259,2.02036 4.0263,3.01273 0.68648,0.50323 1.40578,0.96016 2.10354,1.44764 1.14705,0.94405 2.49257,1.59392 3.72637,2.40232 0.45329,0.29701 0.87151,0.64473 1.31789,0.95203 1.0419,0.71728 1.56295,1.01192 2.63673,1.66227 1.62693,1.15768 3.16937,2.4902 4.97906,3.36536 0.61648,0.29811 1.26021,0.53716 1.87902,0.83045 0.90816,0.49573 1.91175,0.99223 2.94294,1.18587 1.70616,0.32039 -0.46993,-0.27203 1.48693,0.30992 0.95403,0.0909 1.83327,0.45941 2.77466,0.62511 0.28712,0.0505 0.58272,0.0527 0.86632,0.12012 0.76571,0.18208 1.06225,0.38435 1.76266,0.7378 1.96164,1.12942 3.59375,3.19374 4.98887,4.97166 1.17031,1.59106 2.49145,3.04555 3.8803,4.44598 1.22984,0.73325 2.10019,1.85547 3.04856,2.89795 0,0 -45.2086,27.57274 -45.2086,27.57274 v 0 c -1.03523,-1.01669 -2.27322,-1.81234 -3.13392,-3.00418 -1.31439,-1.56282 -2.58979,-3.15915 -3.87115,-4.74832 -0.56254,-0.63498 -1.14034,-1.41605 -1.87642,-1.86547 -0.56553,-0.34528 -1.31022,-0.33769 -1.91437,-0.5778 -1.72467,-0.28808 -3.37733,-0.88699 -5.07828,-1.28463 -1.8288,-0.54981 -3.48531,-1.53025 -5.04203,-2.62382 -2.15075,-1.54586 -4.06214,-3.42519 -6.3798,-4.73665 -2.5775,-1.73882 -5.23985,-3.3425 -7.85349,-5.02481 -2.22685,-1.4251 -4.36475,-2.99823 -6.38273,-4.70406 -2.30764,-1.98333 -4.79094,-3.73127 -7.41681,-5.27108 -3.17577,-2.09872 -6.32792,-4.23404 -9.75401,-5.91556 -0.33076,-0.1665 -2.29165,-1.14184 -2.68345,-1.38115 -1.45623,-0.88943 -2.62221,-2.19866 -4.0709,-3.10062 -0.86378,-0.57501 -1.9519,-1.3349 -2.87829,-1.80816 -1.90142,-0.97137 -4.00588,-1.50129 -5.88627,-2.51967 -2.52425,-1.19083 -5.09876,-2.2813 -7.48887,-3.73717 -2.17441,-1.04218 -4.22518,-2.30794 -6.14742,-3.76638 -3.2764,-2.63607 -6.57725,-5.24746 -10.01069,-7.67714 -3.62273,-2.50916 -7.14872,-5.16728 -10.92852,-7.44157 -2.76219,-1.5439 -0.62122,-0.35753 -3.38496,-1.86136 -1.55512,-0.84619 -3.15547,-1.77445 -4.97167,-1.84326 0,0 44.31766,-29.8301 44.31766,-29.8301 z"
         id="path206"
         style="fill:#000000;stroke-width:0.26458332" />
      <path
         inkscape:connector-curvature="0"
         d="m 48.181219,35.912878 c -0.221869,0.09307 -0.43362,0.215408 -0.665604,0.279212 -0.35955,0.09889 -0.742029,0.100198 -1.099526,0.20628 -0.388716,0.115345 -0.7488,0.311721 -1.128202,0.454763 -1.31385,0.495345 -1.953083,0.72181 -3.082616,1.575914 -0.310835,0.177035 -1.242589,0.709456 -0.932505,0.531108 C 56.048988,30.461485 100.11803,4.5294983 85.603692,13.468077 62.775355,27.526795 53.511967,32.497218 36.520578,41.584298 c -0.494146,0.314495 -1.535199,0.992741 -2.059397,1.264349 -0.364103,0.188653 -0.75602,0.319651 -1.121638,0.505351 -0.364845,0.185306 -0.715431,0.397664 -1.067364,0.606454 -0.352143,0.208918 -1.399181,0.851011 -1.044493,0.646446 14.623427,-8.43403 29.234139,-16.890084 43.85121,-25.335126 -2.108449,1.142717 -4.06558,2.528199 -6.015877,3.916119 -1.770763,1.414854 -3.608575,2.727785 -5.343429,4.188748 -1.19652,1.2021 -2.61519,2.182982 -3.79325,3.402991 -0.420541,0.435518 -1.734132,2.04751 -2.097365,2.487862 -1.307174,1.542618 -2.316136,3.302825 -3.49668,4.936251 -0.513302,0.710216 -1.062757,1.393749 -1.579282,2.101623 -0.582401,0.994674 -1.379479,1.794526 -2.122133,2.656438 -0.729824,0.847021 -1.377476,1.779688 -2.082993,2.648701 -0.214686,0.306761 -0.453485,0.597987 -0.644054,0.920284 -0.46667,0.789258 -0.708777,1.502178 -1.131075,2.310583 -0.604745,1.157663 -1.321668,2.218729 -1.883826,3.401269 -0.737663,1.894035 -1.431496,3.811645 -2.060956,5.744453 -0.678754,1.113137 -1.100772,2.353143 -1.70443,3.503263 -1.424858,2.714715 0.147923,-0.567549 -1.209082,2.341094 -1.195044,2.501353 -2.310616,5.046959 -3.036443,7.726355 -0.705447,2.405271 -1.179389,4.864632 -1.805462,7.290123 -0.479236,2.089271 -0.945868,4.177964 -1.252599,6.300427 -0.209868,2.206927 -0.234941,4.427009 -0.39362,6.638676 -0.138538,3.041008 -0.14101,6.084823 -0.24771,9.127428 -0.369953,3.84957 -0.0015,7.67081 0.796212,11.43792 0.319077,1.85636 1.183779,3.52543 1.836104,5.26475 0.189533,0.50537 0.597486,1.97446 0.741447,2.47847 0.791765,3.81673 2.285394,7.41369 3.802703,10.98641 0.341103,0.81459 0.636087,1.65007 1.023313,2.44377 0.374917,0.76848 0.83298,1.49359 1.259237,2.23482 1.381249,2.40191 2.832372,4.72133 4.484449,6.94525 1.526635,1.56807 2.618279,3.47431 4.013512,5.14866 1.222187,1.46668 1.701623,1.86526 3.053165,3.17843 3.171695,2.9637 6.329965,5.94615 9.638847,8.75788 4.549309,3.76127 9.499351,7.03146 14.890057,9.44595 0.589856,0.21451 1.17222,0.45086 1.769565,0.64352 0.470469,0.15175 0.968216,0.2154 1.431128,0.38883 0.453099,0.16977 0.865103,0.4341 1.304724,0.63622 0.421177,0.19363 0.867929,0.33263 1.276975,0.55073 6.6051,3.52179 -3.842526,-1.70371 3.369656,1.85533 4.189661,2.09511 8.732724,3.29513 13.315756,4.15381 2.73483,0.49792 5.51391,0.38144 8.27702,0.4193 3.29712,0.0328 6.59171,0.1518 9.8889,0.19688 3.95422,0.0108 7.9076,-0.0564 11.86177,-0.0367 3.34998,-0.0453 6.69805,-0.0781 10.0438,-0.26037 2.08791,-0.35422 3.98879,-1.34704 6.05357,-1.81518 1.18136,-0.26319 2.43661,-0.32534 3.60804,-0.62695 0.39655,-0.10211 0.76439,-0.29481 1.15305,-0.42375 1.1581,-0.3842 1.55059,-0.45126 2.75997,-0.74374 0.51029,-0.0813 1.02406,-0.14318 1.53085,-0.24402 0.89871,-0.17883 1.9564,-0.51166 2.86174,-0.67337 1.31551,-0.23497 2.65569,-0.28265 3.97606,-0.49763 1.18177,-0.22474 2.35812,-0.3858 3.55969,-0.42963 0.37967,-0.0138 0.7637,0.0272 1.13939,-0.0293 0.66774,-0.1005 1.51053,-0.4937 2.11822,-0.74377 0.4244,-0.0796 0.85528,-0.13026 1.2732,-0.2389 0.17489,-0.0455 2.30024,-0.78092 2.47182,-0.83131 0.43317,-0.12719 0.88126,-0.19999 1.31341,-0.33064 0.88336,-0.26705 1.7442,-0.60397 2.62213,-0.88837 0.44214,-0.14194 0.87949,-0.29981 1.32643,-0.42584 0.4538,-0.12797 0.9197,-0.20978 1.37408,-0.33568 1.61344,-0.44707 3.16064,-1.0551 4.81112,-1.33748 0.36347,-0.14067 0.72341,-0.29085 1.09041,-0.42202 1.65367,-0.59106 0.69424,-0.16133 2.28356,-0.82295 1.07629,-0.44805 2.10959,-0.9641 3.19665,-1.38778 0.9581,-0.55852 1.93075,-1.08345 2.89088,-1.63505 0.28962,-0.16638 0.54587,-0.38783 0.83929,-0.54741 3.25366,-1.76959 -1.4301,1.00756 1.75976,-0.91684 -14.81875,8.5254 -29.64885,17.03111 -44.45625,25.57622 -0.25261,0.14577 0.52764,-0.24871 0.78959,-0.37692 0.29064,-0.14225 0.58621,-0.27556 0.86812,-0.4344 0.79483,-0.44784 1.5048,-1.01647 2.21379,-1.58494 1.43724,-1.4522 3.11945,-2.61691 4.59064,-4.03392 2.13846,-1.55936 3.92493,-3.50641 5.76761,-5.38846 2.15963,-2.62871 3.60981,-5.42523 4.51709,-8.68809 0.96287,-2.96868 1.19032,-6.04831 1.3133,-9.14166 -0.0596,-2.62489 -0.0295,-5.25022 -0.0818,-7.87535 -0.0346,-2.11748 -0.15417,-4.23152 -0.20135,-6.34855 -0.0721,-2.25837 0.20631,-4.36605 0.0578,-6.64299 -0.31272,-3.55562 -0.41097,-7.12249 -0.61764,-10.68422 -0.28012,-2.30797 -0.005,-4.62495 -0.007,-6.93636 -8e-4,-1.2107 -0.0833,-2.06801 -0.17047,-3.25856 -0.0171,-0.48444 -0.0266,-0.96921 -0.0512,-1.45333 -0.0353,-0.69455 -0.13952,-1.75244 -0.14639,-2.45802 -0.0138,-1.41969 0.1163,-2.8486 0.1658,-4.26708 -0.0294,-2.87289 -0.15225,-5.72862 0.0382,-8.597471 0.50879,-4.125439 -1.22355,-7.808617 -3.08219,-11.36435 -1.623,-2.843265 -3.98192,-5.07298 -5.65883,-7.882818 -1.18729,-2.200794 -2.73502,-4.136906 -4.449,-5.94242 -2.06546,-2.500493 -4.00725,-5.098405 -6.05133,-7.615605 -1.82754,-2.123141 -3.69025,-4.261922 -5.82562,-6.08802 -0.44683,-0.382109 -1.82044,-1.392841 -2.33578,-1.776191 -2.46811,-1.532162 -4.51328,-3.591613 -6.58291,-5.606587 -3.07483,-2.982896 -6.45934,-5.610042 -10.0356,-7.959553 -2.33291,-1.391533 -4.62597,-2.845151 -6.94433,-4.259513 -1.63688,-1.149371 -3.42628,-1.999861 -5.12195,-3.048701 -0.31095,-0.202565 -0.60856,-0.427265 -0.93285,-0.607698 -0.52974,-0.294741 -1.10637,-0.496186 -1.65336,-0.757502 -0.93616,-0.447228 -1.84088,-0.942856 -2.74937,-1.443204 -0.28709,-0.116896 -0.58225,-0.215665 -0.86128,-0.350687 -1.38913,-0.672203 -0.49914,-0.372975 -1.99789,-1.22551 -1.07485,-0.611413 -2.30404,-1.027332 -3.43898,-1.509467 -1.87502,-0.708596 -3.72941,-1.330647 -5.7473,-1.355346 -2.012794,-1.016762 -4.354941,-0.972273 -6.558682,-1.092692 -3.224543,-0.117137 -6.45187,-0.119814 -9.677958,-0.161015 -3.65003,-0.01267 -7.299595,0.0037 -10.9494,2.64e-4 -3.401248,0.0217 -6.803964,0.01924 -10.203278,0.14401 -1.483101,0.07818 -3.023912,0.03063 -4.439737,0.566092 -3.054819,1.15533 1.66937,-0.310062 -1.436638,0.613236 -1.007983,0.206965 -0.526735,0.05933 -1.446617,0.43344 0,0 42.180007,-32.302781 42.180007,-32.302781 v 0 c 1.086842,-0.150903 0.568571,-0.056259 1.556602,-0.2739684 1.951257,-0.2868991 3.935771,0.2621005 5.902301,0.218997 3.26789,0.1326983 6.54017,0.1162968 9.81024,0.1374116 3.66416,-0.00885 7.3281,-0.0042 10.99248,-0.011964 3.41153,-0.026231 6.8273,-0.035573 10.23219,0.2113063 1.48481,0.1304468 2.94461,0.3080076 4.40974,0.58898012 0.8257,0.1583474 1.63347,0.40640667 2.46288,0.54396117 0.28293,0.046922 0.57164,0.04723 0.85746,0.070845 1.92826,0.79249424 3.78699,1.74621681 5.6777,2.62144421 1.29215,0.5698 2.54987,1.1878024 3.82488,1.7886113 0.49292,0.232272 1.68662,0.6648807 2.17131,0.9032957 0.30377,0.149426 0.58495,0.3409717 0.87742,0.5114577 1.84541,0.9396734 3.71276,1.8318258 5.42341,3.0093362 0.61682,0.337403 1.26103,0.6251207 1.86574,0.9837754 1.18347,0.7019267 2.27213,1.5762097 3.40503,2.3539977 2.1557,1.575377 4.12382,3.368744 6.18654,5.062749 3.30484,2.800184 6.63251,5.577272 10.11461,8.156668 1.02653,0.697426 2.02624,1.433843 3.05357,2.130092 1.53892,1.042961 3.19792,1.946124 4.38634,3.423136 2.46224,2.963905 4.80904,6.030553 7.54096,8.760788 2.37343,2.456117 4.96559,4.664713 7.36962,7.084375 1.5323,2.170973 2.90167,4.449334 4.33194,6.687661 1.9408,2.791455 3.38298,5.884807 5.02585,8.855001 1.08054,2.182114 2.10525,4.368541 3.00624,6.632387 0.42716,1.073277 1.33412,3.435871 1.63364,4.568431 0.16451,0.62207 0.2313,1.265954 0.34694,1.89893 0.20316,2.856453 0.055,5.701374 0.0355,8.562428 0.048,1.364075 0.17618,2.738884 0.1605,4.104184 -0.008,0.697707 -0.11746,1.928326 -0.15131,2.607379 -0.0249,0.500727 -0.0353,1.002072 -0.053,1.503109 -0.0824,1.203624 -0.17081,2.201603 -0.16751,3.416211 0.006,2.250428 0.29602,4.500426 0.11058,6.752523 -0.0278,3.37652 0.11385,6.7703 0.64266,10.1092 0.40757,2.27901 1.11831,4.53305 0.85935,6.87627 -0.0427,2.17713 -0.15219,4.35157 -0.17263,6.52932 -0.0382,2.7413 0.0233,5.48676 -0.17339,8.22319 -0.10117,3.43949 -0.20106,6.9208 -0.89542,10.29827 -0.95338,3.48203 -1.72792,7.04657 -3.58076,10.19654 -0.2357,0.47928 -0.43022,0.98111 -0.70709,1.43785 -0.41032,0.67687 -1.24763,1.587 -1.73976,2.21025 -0.75247,0.95296 -1.48312,1.9105 -2.3557,2.76312 -1.54883,1.18681 -2.76545,2.75689 -4.41698,3.82426 -14.45324,14.68401 -17.92376,13.47691 -49.63931,29.99057 -1.90399,0.89716 -3.72612,1.97452 -5.77909,2.53256 -2.23491,0.88021 -4.56206,1.51033 -6.89456,2.07305 -2.33899,0.82248 -4.79861,1.27194 -7.12778,2.13888 -2.66401,0.79757 -5.34285,1.51447 -8.05693,2.11264 -2.34769,0.21882 -4.68472,0.42583 -7.01272,0.82034 -2.64064,0.37702 -5.25105,1.02368 -7.8174,1.73753 -0.71856,0.2152 -2.23487,0.68174 -2.95224,0.84477 -1.64192,0.37315 -3.32589,0.607 -4.91716,1.19072 -2.2348,0.68317 -4.45079,0.96951 -6.785089,0.65325 -3.10565,-0.1992 -6.215173,-0.20871 -9.326036,-0.25758 -3.929676,0.0236 -7.858786,-0.0352 -11.788497,-0.004 -3.569374,0.0643 -7.138945,0.24357 -10.70869,0.15145 -2.86525,-0.15644 -5.57521,-0.82451 -8.252523,-1.86787 -4.538417,-1.59959 -9.045054,-3.28516 -13.583698,-4.88475 -3.327892,-1.26328 -6.764964,-2.18911 -9.422768,-4.70419 -4.656133,-3.62721 -9.428502,-7.11158 -14.341614,-10.38301 -2.316651,-1.49483 -4.79724,-2.88699 -6.94851,-4.62292 -1.561227,-1.25981 -2.784137,-2.83233 -4.101264,-4.32848 -1.3073175,-1.51234 -1.5603082,-1.86388 -3.0166957,-3.2983 -1.4430393,-1.42127 -3.2082722,-2.66514 -4.4003285,-4.32626 -0.3155434,-0.43971 -0.5220259,-0.94822 -0.7830385,-1.42233 -1.87983139,-4.2234 -3.6504421,-8.52719 -6.1843709,-12.41518 -1.9184818,-3.58224 -3.6577519,-7.2612 -5.326609,-10.96557 -0.9995604,-2.84014 -1.6467604,-5.76716 -2.2574384,-8.71471 -0.565642,-4.02562 -1.371595,-8.02677 -1.445872,-12.1077 -0.113027,-2.97312 -0.125991,-5.94704 -0.246938,-8.91939 -0.142353,-2.34864 -0.10131,-4.69296 0.09157,-7.0383 0.145238,-2.35749 0.349377,-4.72985 0.920834,-7.0274 0.435318,-1.691607 0.170105,-0.78389 0.723994,-2.443494 0.130059,-0.389697 0.298941,-0.768774 0.387769,-1.169884 0.279607,-1.262561 0.241524,-2.608995 0.762181,-3.824389 0.40228,-1.404493 0.7139997,-2.830555 1.1835004,-4.215421 0.4219997,-1.244754 0.6069657,-1.592488 1.0927714,-2.813005 0.173801,-0.43665 0.339472,-0.876491 0.5092067,-1.314739 0.15343,-0.408254 0.30686,-0.816509 0.4602897,-1.224764 0.117513,-0.394282 0.20882,-0.797343 0.35254,-1.182849 0.4215597,-1.130768 1.0852244,-2.174459 1.3901911,-3.355247 0.8517824,-1.314204 -0.0063,0.07719 0.8128417,-1.500084 0.7268314,-1.399472 1.4932531,-2.791725 1.9996538,-4.294294 0.3237507,-0.904989 0.5856457,-1.832858 0.9466994,-2.723621 0.6290427,-1.551924 1.84445371,-2.810181 2.18267771,-4.491971 C 0.59462358,66.587845 0.74171458,66.176265 0.94491258,65.791815 1.4168672,64.89888 1.7542376,64.607071 2.2981349,63.766554 2.5165998,63.428948 2.6700378,63.049477 2.9104069,62.727098 3.3811568,62.095736 4.0759243,61.652813 4.5060529,60.984711 5.6482536,59.612743 5.08635,60.31648 6.190171,58.87223 c 1.3280996,-1.625867 2.7655376,-3.173015 3.825143,-5.00262 0.571928,-0.843809 1.177926,-1.664829 1.729372,-2.522164 0.264054,-0.410525 0.471002,-0.857001 0.74822,-1.258755 0.712553,-1.032653 1.645222,-1.891014 2.528147,-2.770857 1.610685,-1.626817 3.213774,-3.290467 5.135688,-4.555826 1.887686,-1.620118 3.886544,-3.09513 5.909558,-4.543391 C 43.120622,28.340502 60.104867,18.044353 77.468452,8.6246179 78.20851,8.2232532 78.962541,7.8477325 79.698392,7.4387065 80.007732,7.2667568 80.916142,6.7168061 80.609617,6.8937288 -22.976066,66.682257 67.329169,14.586225 82.467069,5.8985894 82.754152,5.7338327 83.0663,5.6172217 83.365914,5.4765387 84.841956,5.020696 86.3742,4.5485673 87.748134,3.828534 c 0.385468,-0.202011 0.72799,-0.477584 1.10191,-0.7002452 0.334708,-0.199313 0.681987,-0.3767212 1.022982,-0.565082 0,0 -41.691983,33.3496412 -41.691983,33.3496412 z"
         id="path210"
         style="fill:#000000;stroke-width:0.26458332" />
    </g>
  </g>
</svg>
